{"asset":{"version":"2.0","generator":"Blockbench 5.0.7 glTF exporter"},"scenes":[{"nodes":[0],"name":"blockbench_export"}],"scene":0,"nodes":[{"rotation":[0,-1,0,6.123233995736766e-17],"translation":[0,0.6875,0],"name":"mesh","mesh":0}],"bufferViews":[{"buffer":0,"byteOffset":0,"byteLength":312,"target":34962,"byteStride":12},{"buffer":0,"byteOffset":312,"byteLength":312,"target":34962,"byteStride":12},{"buffer":0,"byteOffset":624,"byteLength":208,"target":34962,"byteStride":8},{"buffer":0,"byteOffset":832,"byteLength":72,"target":34963}],"buffers":[{"byteLength":904,"uri":"data:application/octet-stream;base64,"}],"accessors":[{"bufferView":0,"componentType":5126,"count":26,"max":[3.2372705936431885,0.4375,3.964513092728723e-16],"min":[-3.2372705936431885,-0.6960460543632507,0],"type":"VEC3"},{"bufferView":1,"componentType":5126,"count":26,"max":[0,8.606735713344975e-32,1],"min":[-1.2246468525851679e-16,-2.041077922205824e-17,-1],"type":"VEC3"},{"bufferView":2,"componentType":5126,"count":26,"max":[2.3125,1.3675289154052734],"min":[0,0],"type":"VEC2"},{"bufferView":3,"componentType":5123,"count":36,"max":[25],"min":[0],"type":"SCALAR"}],"materials":[{"pbrMetallicRoughness":{"metallicFactor":0,"roughnessFactor":1},"alphaMode":"MASK","alphaCutoff":0.05,"doubleSided":true}],"meshes":[{"primitives":[{"mode":4,"attributes":{"POSITION":0,"NORMAL":1,"TEXCOORD_0":2},"indices":3,"material":0}]}]}