{"asset":{"version":"2.0","generator":"Blockbench 5.0.4 glTF exporter"},"scenes":[{"nodes":[7],"name":"blockbench_export"}],"scene":0,"nodes":[{"translation":[0,-0.3125,-0.4375],"name":"Frame","mesh":0},{"translation":[-0.3125,-0.015625,0],"name":"Mid","mesh":1},{"translation":[0,0.7406250000000001,0.15625],"name":"Straps","mesh":2},{"translation":[0,0.05312500000000009,0],"name":"Tarp","mesh":3},{"name":"Body","children":[0,1,2,3]},{"translation":[0.015625,-0.015625,0.015625],"name":"Hitbox_Main-col","mesh":4},{"translation":[-0.125,-0.3125,-0.125],"name":"mesh","children":[5]},{"translation":[0,0.328125,0],"name":"Object","children":[4,6]}],"bufferViews":[{"buffer":0,"byteOffset":0,"byteLength":3444,"target":34962,"byteStride":12},{"buffer":0,"byteOffset":3444,"byteLength":3444,"target":34962,"byteStride":12},{"buffer":0,"byteOffset":6888,"byteLength":2296,"target":34962,"byteStride":8},{"buffer":0,"byteOffset":9184,"byteLength":848,"target":34963},{"buffer":0,"byteOffset":10032,"byteLength":288,"target":34962,"byteStride":12},{"buffer":0,"byteOffset":10320,"byteLength":288,"target":34962,"byteStride":12},{"buffer":0,"byteOffset":10608,"byteLength":192,"target":34962,"byteStride":8},{"buffer":0,"byteOffset":10800,"byteLength":72,"target":34963},{"buffer":0,"byteOffset":10872,"byteLength":3072,"target":34962,"byteStride":12},{"buffer":0,"byteOffset":13944,"byteLength":3072,"target":34962,"byteStride":12},{"buffer":0,"byteOffset":17016,"byteLength":2048,"target":34962,"byteStride":8},{"buffer":0,"byteOffset":19064,"byteLength":768,"target":34963},{"buffer":0,"byteOffset":19832,"byteLength":2148,"target":34962,"byteStride":12},{"buffer":0,"byteOffset":21980,"byteLength":2148,"target":34962,"byteStride":12},{"buffer":0,"byteOffset":24128,"byteLength":1432,"target":34962,"byteStride":8},{"buffer":0,"byteOffset":25560,"byteLength":476,"target":34963},{"buffer":0,"byteOffset":26036,"byteLength":288,"target":34962,"byteStride":12},{"buffer":0,"byteOffset":26324,"byteLength":288,"target":34962,"byteStride":12},{"buffer":0,"byteOffset":26612,"byteLength":192,"target":34962,"byteStride":8},{"buffer":0,"byteOffset":26804,"byteLength":72,"target":34963}],"buffers":[{"byteLength":26876,"uri":"data:application/octet-stream;base64,"}],"accessors":[{"bufferView":0,"componentType":5126,"count":287,"max":[0.4375,1.671875,0.875],"min":[-0.4375,-0.015625,0],"type":"VEC3"},{"bufferView":1,"componentType":5126,"count":287,"max":[1,1,1],"min":[-1,-1,-1],"type":"VEC3"},{"bufferView":2,"componentType":5126,"count":287,"max":[0.875,0.875],"min":[0,0],"type":"VEC2"},{"bufferView":3,"componentType":5123,"count":423,"max":[286],"min":[0],"type":"SCALAR"},{"bufferView":4,"componentType":5126,"count":24,"max":[0.6875,1.375,0.375],"min":[-0.0625,-0.25,-0.375],"type":"VEC3"},{"bufferView":5,"componentType":5126,"count":24,"max":[1,1,1],"min":[-1,-1,-1],"type":"VEC3"},{"bufferView":6,"componentType":5126,"count":24,"max":[0.75,1],"min":[0,0],"type":"VEC2"},{"bufferView":7,"componentType":5123,"count":36,"max":[23],"min":[0],"type":"SCALAR"},{"bufferView":8,"componentType":5126,"count":256,"max":[0.44999998807907104,0.6937500238418579,0.29374998807907104],"min":[-0.44999998807907104,-1.0750000476837158,-0.606249988079071],"type":"VEC3"},{"bufferView":9,"componentType":5126,"count":256,"max":[1,1,1],"min":[-1,-1,-1],"type":"VEC3"},{"bufferView":10,"componentType":5126,"count":256,"max":[0.8999999761581421,0.887499988079071],"min":[0,0],"type":"VEC2"},{"bufferView":11,"componentType":5123,"count":384,"max":[255],"min":[0],"type":"SCALAR"},{"bufferView":12,"componentType":5126,"count":179,"max":[0.4437499940395355,1.375,0.4437499940395355],"min":[-0.4437499940395355,-0.046875,-0.4437499940395355],"type":"VEC3"},{"bufferView":13,"componentType":5126,"count":179,"max":[1,1,1],"min":[-1,-0.9890248775482178,-1],"type":"VEC3"},{"bufferView":14,"componentType":5126,"count":179,"max":[1,0.887499988079071],"min":[0,0],"type":"VEC2"},{"bufferView":15,"componentType":5123,"count":237,"max":[178],"min":[0],"type":"SCALAR"},{"bufferView":16,"componentType":5126,"count":24,"max":[0.546875,1.75,0.546875],"min":[-0.328125,0,-0.328125],"type":"VEC3"},{"bufferView":17,"componentType":5126,"count":24,"max":[1,1,1],"min":[-1,-1,-1],"type":"VEC3"},{"bufferView":18,"componentType":5126,"count":24,"max":[1,1],"min":[0,0],"type":"VEC2"},{"bufferView":19,"componentType":5123,"count":36,"max":[23],"min":[0],"type":"SCALAR"}],"materials":[{"pbrMetallicRoughness":{"metallicFactor":0,"roughnessFactor":1},"alphaMode":"MASK","alphaCutoff":0.05,"doubleSided":true},{"pbrMetallicRoughness":{"metallicFactor":0,"roughnessFactor":1},"alphaMode":"MASK","alphaCutoff":0.05,"doubleSided":true},{"pbrMetallicRoughness":{"metallicFactor":0,"roughnessFactor":1},"alphaMode":"MASK","alphaCutoff":0.05,"doubleSided":true},{"pbrMetallicRoughness":{"metallicFactor":0,"roughnessFactor":1},"alphaMode":"MASK","alphaCutoff":0.05,"doubleSided":true},{"pbrMetallicRoughness":{"metallicFactor":0,"roughnessFactor":1,"baseColorTexture":{"index":0}},"alphaMode":"MASK","alphaCutoff":0.05,"doubleSided":true}],"meshes":[{"primitives":[{"mode":4,"attributes":{"POSITION":0,"NORMAL":1,"TEXCOORD_0":2},"indices":3,"material":0}]},{"primitives":[{"mode":4,"attributes":{"POSITION":4,"NORMAL":5,"TEXCOORD_0":6},"indices":7,"material":1}]},{"primitives":[{"mode":4,"attributes":{"POSITION":8,"NORMAL":9,"TEXCOORD_0":10},"indices":11,"material":2}]},{"primitives":[{"mode":4,"attributes":{"POSITION":12,"NORMAL":13,"TEXCOORD_0":14},"indices":15,"material":3}]},{"primitives":[{"mode":4,"attributes":{"POSITION":16,"NORMAL":17,"TEXCOORD_0":18},"indices":19,"material":4}]}],"textures":[{"sampler":0,"source":0,"name":"No-Texture.png"}],"samplers":[{"magFilter":9728,"minFilter":9728,"wrapS":33071,"wrapT":33071}],"images":[{"mimeType":"image/png","uri":"data:image/png;base64,"}]}