{"asset":{"version":"2.0","generator":"Blockbench 5.0.4 glTF exporter"},"scenes":[{"nodes":[7],"name":"blockbench_export"}],"scene":0,"nodes":[{"translation":[0.4375,0.7406250000000001,0.15625],"name":"Straps","mesh":0},{"translation":[0.4375,-0.3125,0],"name":"Frame","mesh":1},{"translation":[-0.3125,-0.015625,0],"name":"Mid","mesh":2},{"translation":[0,-0.696875,0],"name":"Tarp","mesh":3},{"name":"Body","children":[0,1,2,3]},{"translation":[0.015625,-0.015625,0.015625],"name":"Hitbox_Main-col","mesh":4},{"translation":[-0.125,-0.3125,-0.125],"name":"mesh","children":[5]},{"translation":[0,0.328125,0],"name":"Object","children":[4,6]}],"bufferViews":[{"buffer":0,"byteOffset":0,"byteLength":3072,"target":34962,"byteStride":12},{"buffer":0,"byteOffset":3072,"byteLength":3072,"target":34962,"byteStride":12},{"buffer":0,"byteOffset":6144,"byteLength":2048,"target":34962,"byteStride":8},{"buffer":0,"byteOffset":8192,"byteLength":768,"target":34963},{"buffer":0,"byteOffset":8960,"byteLength":4212,"target":34962,"byteStride":12},{"buffer":0,"byteOffset":13172,"byteLength":4212,"target":34962,"byteStride":12},{"buffer":0,"byteOffset":17384,"byteLength":2808,"target":34962,"byteStride":8},{"buffer":0,"byteOffset":20192,"byteLength":1040,"target":34963},{"buffer":0,"byteOffset":21232,"byteLength":288,"target":34962,"byteStride":12},{"buffer":0,"byteOffset":21520,"byteLength":288,"target":34962,"byteStride":12},{"buffer":0,"byteOffset":21808,"byteLength":192,"target":34962,"byteStride":8},{"buffer":0,"byteOffset":22000,"byteLength":72,"target":34963},{"buffer":0,"byteOffset":22072,"byteLength":4200,"target":34962,"byteStride":12},{"buffer":0,"byteOffset":26272,"byteLength":4200,"target":34962,"byteStride":12},{"buffer":0,"byteOffset":30472,"byteLength":2800,"target":34962,"byteStride":8},{"buffer":0,"byteOffset":33272,"byteLength":912,"target":34963},{"buffer":0,"byteOffset":34184,"byteLength":288,"target":34962,"byteStride":12},{"buffer":0,"byteOffset":34472,"byteLength":288,"target":34962,"byteStride":12},{"buffer":0,"byteOffset":34760,"byteLength":192,"target":34962,"byteStride":8},{"buffer":0,"byteOffset":34952,"byteLength":72,"target":34963}],"buffers":[{"byteLength":35024,"uri":"data:application/octet-stream;base64,"}],"accessors":[{"bufferView":0,"componentType":5126,"count":256,"max":[0.44999998807907104,0.6937500238418579,0.731249988079071],"min":[-1.3250000476837158,-1.0750000476837158,-1.0437500476837158],"type":"VEC3"},{"bufferView":1,"componentType":5126,"count":256,"max":[1,1,1],"min":[-1,-1,-1],"type":"VEC3"},{"bufferView":2,"componentType":5126,"count":256,"max":[0.8999999761581421,0.887499988079071],"min":[0,0],"type":"VEC2"},{"bufferView":3,"componentType":5123,"count":384,"max":[255],"min":[0],"type":"SCALAR"},{"bufferView":4,"componentType":5126,"count":351,"max":[0.4375,1.7172081470489502,0.875],"min":[-1.3125,-0.015625,-0.875],"type":"VEC3"},{"bufferView":5,"componentType":5126,"count":351,"max":[1,1,1],"min":[-1,-1,-1],"type":"VEC3"},{"bufferView":6,"componentType":5126,"count":351,"max":[1.6707812547683716,2.362837553024292],"min":[0,0],"type":"VEC2"},{"bufferView":7,"componentType":5123,"count":519,"max":[350],"min":[0],"type":"SCALAR"},{"bufferView":8,"componentType":5126,"count":24,"max":[1.125,1.375,0.8125],"min":[-0.5,-0.25,-0.8125],"type":"VEC3"},{"bufferView":9,"componentType":5126,"count":24,"max":[1,1,1],"min":[-1,-1,-1],"type":"VEC3"},{"bufferView":10,"componentType":5126,"count":24,"max":[1,1],"min":[0,0],"type":"VEC2"},{"bufferView":11,"componentType":5123,"count":36,"max":[23],"min":[0],"type":"SCALAR"},{"bufferView":12,"componentType":5126,"count":350,"max":[0.8812500238418579,2.125,0.8812500238418579],"min":[-0.8812500238418579,0.71875,-0.8812500238418579],"type":"VEC3"},{"bufferView":13,"componentType":5126,"count":350,"max":[1,1,1],"min":[-1,-0.9943889379501343,-1],"type":"VEC3"},{"bufferView":14,"componentType":5126,"count":350,"max":[1.7625000476837158,1.7625000476837158],"min":[0,0],"type":"VEC2"},{"bufferView":15,"componentType":5123,"count":456,"max":[349],"min":[0],"type":"SCALAR"},{"bufferView":16,"componentType":5126,"count":24,"max":[0.984375,1.75,0.984375],"min":[-0.765625,0,-0.765625],"type":"VEC3"},{"bufferView":17,"componentType":5126,"count":24,"max":[1,1,1],"min":[-1,-1,-1],"type":"VEC3"},{"bufferView":18,"componentType":5126,"count":24,"max":[1,1],"min":[0,0],"type":"VEC2"},{"bufferView":19,"componentType":5123,"count":36,"max":[23],"min":[0],"type":"SCALAR"}],"materials":[{"pbrMetallicRoughness":{"metallicFactor":0,"roughnessFactor":1},"alphaMode":"MASK","alphaCutoff":0.05,"doubleSided":true},{"pbrMetallicRoughness":{"metallicFactor":0,"roughnessFactor":1},"alphaMode":"MASK","alphaCutoff":0.05,"doubleSided":true},{"pbrMetallicRoughness":{"metallicFactor":0,"roughnessFactor":1},"alphaMode":"MASK","alphaCutoff":0.05,"doubleSided":true},{"pbrMetallicRoughness":{"metallicFactor":0,"roughnessFactor":1},"alphaMode":"MASK","alphaCutoff":0.05,"doubleSided":true},{"pbrMetallicRoughness":{"metallicFactor":0,"roughnessFactor":1,"baseColorTexture":{"index":0}},"alphaMode":"MASK","alphaCutoff":0.05,"doubleSided":true}],"meshes":[{"primitives":[{"mode":4,"attributes":{"POSITION":0,"NORMAL":1,"TEXCOORD_0":2},"indices":3,"material":0}]},{"primitives":[{"mode":4,"attributes":{"POSITION":4,"NORMAL":5,"TEXCOORD_0":6},"indices":7,"material":1}]},{"primitives":[{"mode":4,"attributes":{"POSITION":8,"NORMAL":9,"TEXCOORD_0":10},"indices":11,"material":2}]},{"primitives":[{"mode":4,"attributes":{"POSITION":12,"NORMAL":13,"TEXCOORD_0":14},"indices":15,"material":3}]},{"primitives":[{"mode":4,"attributes":{"POSITION":16,"NORMAL":17,"TEXCOORD_0":18},"indices":19,"material":4}]}],"textures":[{"sampler":0,"source":0,"name":"No-Texture.png"}],"samplers":[{"magFilter":9728,"minFilter":9728,"wrapS":33071,"wrapT":33071}],"images":[{"mimeType":"image/png","uri":"data:image/png;base64,"}]}