{"asset":{"version":"2.0","generator":"Blockbench 5.0.4 glTF exporter"},"scenes":[{"nodes":[5],"name":"blockbench_export"}],"scene":0,"nodes":[{"translation":[-0.3125,-0.015625,0],"name":"Mid","mesh":0},{"translation":[0,-0.3125,-0.4375],"name":"Frame","mesh":1},{"name":"Body","children":[0,1]},{"translation":[0.015625,-0.015625,0.015625],"name":"Hitbox_Main-col","mesh":2},{"translation":[-0.125,-0.3125,-0.125],"name":"mesh","children":[3]},{"translation":[0,0.328125,0],"name":"Object","children":[2,4]}],"bufferViews":[{"buffer":0,"byteOffset":0,"byteLength":288,"target":34962,"byteStride":12},{"buffer":0,"byteOffset":288,"byteLength":288,"target":34962,"byteStride":12},{"buffer":0,"byteOffset":576,"byteLength":192,"target":34962,"byteStride":8},{"buffer":0,"byteOffset":768,"byteLength":72,"target":34963},{"buffer":0,"byteOffset":840,"byteLength":6132,"target":34962,"byteStride":12},{"buffer":0,"byteOffset":6972,"byteLength":6132,"target":34962,"byteStride":12},{"buffer":0,"byteOffset":13104,"byteLength":4088,"target":34962,"byteStride":8},{"buffer":0,"byteOffset":17192,"byteLength":1520,"target":34963},{"buffer":0,"byteOffset":18712,"byteLength":288,"target":34962,"byteStride":12},{"buffer":0,"byteOffset":19000,"byteLength":288,"target":34962,"byteStride":12},{"buffer":0,"byteOffset":19288,"byteLength":192,"target":34962,"byteStride":8},{"buffer":0,"byteOffset":19480,"byteLength":72,"target":34963}],"buffers":[{"byteLength":19552,"uri":"data:application/octet-stream;base64,"}],"accessors":[{"bufferView":0,"componentType":5126,"count":24,"max":[0.6875,1.375,0.375],"min":[-0.0625,-0.25,-0.375],"type":"VEC3"},{"bufferView":1,"componentType":5126,"count":24,"max":[1,1,1],"min":[-1,-1,-1],"type":"VEC3"},{"bufferView":2,"componentType":5126,"count":24,"max":[0.75,1],"min":[0,0],"type":"VEC2"},{"bufferView":3,"componentType":5123,"count":36,"max":[23],"min":[0],"type":"SCALAR"},{"bufferView":4,"componentType":5126,"count":511,"max":[0.4375,1.734375,0.875],"min":[-0.4375,-0.015625,0],"type":"VEC3"},{"bufferView":5,"componentType":5126,"count":511,"max":[1,1,1],"min":[-1,-1,-1],"type":"VEC3"},{"bufferView":6,"componentType":5126,"count":511,"max":[0.875,0.875],"min":[0,0],"type":"VEC2"},{"bufferView":7,"componentType":5123,"count":759,"max":[510],"min":[0],"type":"SCALAR"},{"bufferView":8,"componentType":5126,"count":24,"max":[0.546875,1.75,0.546875],"min":[-0.328125,0,-0.328125],"type":"VEC3"},{"bufferView":9,"componentType":5126,"count":24,"max":[1,1,1],"min":[-1,-1,-1],"type":"VEC3"},{"bufferView":10,"componentType":5126,"count":24,"max":[1,1],"min":[0,0],"type":"VEC2"},{"bufferView":11,"componentType":5123,"count":36,"max":[23],"min":[0],"type":"SCALAR"}],"materials":[{"pbrMetallicRoughness":{"metallicFactor":0,"roughnessFactor":1},"alphaMode":"MASK","alphaCutoff":0.05,"doubleSided":true},{"pbrMetallicRoughness":{"metallicFactor":0,"roughnessFactor":1},"alphaMode":"MASK","alphaCutoff":0.05,"doubleSided":true},{"pbrMetallicRoughness":{"metallicFactor":0,"roughnessFactor":1,"baseColorTexture":{"index":0}},"alphaMode":"MASK","alphaCutoff":0.05,"doubleSided":true}],"meshes":[{"primitives":[{"mode":4,"attributes":{"POSITION":0,"NORMAL":1,"TEXCOORD_0":2},"indices":3,"material":0}]},{"primitives":[{"mode":4,"attributes":{"POSITION":4,"NORMAL":5,"TEXCOORD_0":6},"indices":7,"material":1}]},{"primitives":[{"mode":4,"attributes":{"POSITION":8,"NORMAL":9,"TEXCOORD_0":10},"indices":11,"material":2}]}],"textures":[{"sampler":0,"source":0,"name":"No-Texture.png"}],"samplers":[{"magFilter":9728,"minFilter":9728,"wrapS":33071,"wrapT":33071}],"images":[{"mimeType":"image/png","uri":"data:image/png;base64,"}]}