{"asset":{"version":"2.0","generator":"Blockbench 5.0.4 glTF exporter"},"scenes":[{"nodes":[7],"name":"blockbench_export"}],"scene":0,"nodes":[{"translation":[-0.3125,-0.015625,0],"name":"Mid","mesh":0},{"translation":[0,-0.3125,-0.4375],"name":"Frame","mesh":1},{"rotation":[0.7071067811865475,0,0,0.7071067811865476],"translation":[0,0.98125,0],"name":"Straps","mesh":2},{"translation":[0,0.553125,0.4375],"name":"Tarp","mesh":3},{"translation":[0,-0.5625,0],"name":"Body","children":[0,1,2,3]},{"translation":[0.015625,-0.015625,0.015625],"name":"Hitbox_Main-col","mesh":4},{"translation":[-0.125,-0.875,-0.125],"name":"mesh","children":[5]},{"rotation":[0.7071067811865475,0,0,0.7071067811865476],"translation":[0,0.4375,0.015625],"name":"Object","children":[4,6]}],"bufferViews":[{"buffer":0,"byteOffset":0,"byteLength":288,"target":34962,"byteStride":12},{"buffer":0,"byteOffset":288,"byteLength":288,"target":34962,"byteStride":12},{"buffer":0,"byteOffset":576,"byteLength":192,"target":34962,"byteStride":8},{"buffer":0,"byteOffset":768,"byteLength":72,"target":34963},{"buffer":0,"byteOffset":840,"byteLength":4584,"target":34962,"byteStride":12},{"buffer":0,"byteOffset":5424,"byteLength":4584,"target":34962,"byteStride":12},{"buffer":0,"byteOffset":10008,"byteLength":3056,"target":34962,"byteStride":8},{"buffer":0,"byteOffset":13064,"byteLength":1140,"target":34963},{"buffer":0,"byteOffset":14204,"byteLength":2304,"target":34962,"byteStride":12},{"buffer":0,"byteOffset":16508,"byteLength":2304,"target":34962,"byteStride":12},{"buffer":0,"byteOffset":18812,"byteLength":1536,"target":34962,"byteStride":8},{"buffer":0,"byteOffset":20348,"byteLength":576,"target":34963},{"buffer":0,"byteOffset":20924,"byteLength":3108,"target":34962,"byteStride":12},{"buffer":0,"byteOffset":24032,"byteLength":3108,"target":34962,"byteStride":12},{"buffer":0,"byteOffset":27140,"byteLength":2072,"target":34962,"byteStride":8},{"buffer":0,"byteOffset":29212,"byteLength":668,"target":34963},{"buffer":0,"byteOffset":29880,"byteLength":288,"target":34962,"byteStride":12},{"buffer":0,"byteOffset":30168,"byteLength":288,"target":34962,"byteStride":12},{"buffer":0,"byteOffset":30456,"byteLength":192,"target":34962,"byteStride":8},{"buffer":0,"byteOffset":30648,"byteLength":72,"target":34963}],"buffers":[{"byteLength":30720,"uri":"data:application/octet-stream;base64,"}],"accessors":[{"bufferView":0,"componentType":5126,"count":24,"max":[0.6875,1.375,0.375],"min":[-0.0625,-0.25,-0.375],"type":"VEC3"},{"bufferView":1,"componentType":5126,"count":24,"max":[1,1,1],"min":[-1,-1,-1],"type":"VEC3"},{"bufferView":2,"componentType":5126,"count":24,"max":[0.75,1],"min":[0,0],"type":"VEC2"},{"bufferView":3,"componentType":5123,"count":36,"max":[23],"min":[0],"type":"SCALAR"},{"bufferView":4,"componentType":5126,"count":382,"max":[0.4375,1.734375,0.875],"min":[-0.4375,-0.015625,0],"type":"VEC3"},{"bufferView":5,"componentType":5126,"count":382,"max":[1,1,1],"min":[-1,-1,-1],"type":"VEC3"},{"bufferView":6,"componentType":5126,"count":382,"max":[0.875,0.875],"min":[0,0],"type":"VEC2"},{"bufferView":7,"componentType":5123,"count":570,"max":[381],"min":[0],"type":"SCALAR"},{"bufferView":8,"componentType":5126,"count":192,"max":[0.44999998807907104,0.44999998807907104,1.321874976158142],"min":[-0.44999998807907104,-0.44999998807907104,-0.453125],"type":"VEC3"},{"bufferView":9,"componentType":5126,"count":192,"max":[1,1,1],"min":[-1,-1,-1],"type":"VEC3"},{"bufferView":10,"componentType":5126,"count":192,"max":[0.8999999761581421,0.887499988079071],"min":[0,0],"type":"VEC2"},{"bufferView":11,"componentType":5123,"count":288,"max":[191],"min":[0],"type":"SCALAR"},{"bufferView":12,"componentType":5126,"count":259,"max":[0.4437499940395355,0.875,-0.3968749940395355],"min":[-0.4437499940395355,-0.887499988079071,-0.8812500238418579],"type":"VEC3"},{"bufferView":13,"componentType":5126,"count":259,"max":[1,1,0.9943889379501343],"min":[-1,-1,-1],"type":"VEC3"},{"bufferView":14,"componentType":5126,"count":259,"max":[0.887499988079071,1.756250023841858],"min":[0,0],"type":"VEC2"},{"bufferView":15,"componentType":5123,"count":333,"max":[258],"min":[0],"type":"SCALAR"},{"bufferView":16,"componentType":5126,"count":24,"max":[0.546875,1.75,0.546875],"min":[-0.328125,0,-0.328125],"type":"VEC3"},{"bufferView":17,"componentType":5126,"count":24,"max":[1,1,1],"min":[-1,-1,-1],"type":"VEC3"},{"bufferView":18,"componentType":5126,"count":24,"max":[1,1],"min":[0,0],"type":"VEC2"},{"bufferView":19,"componentType":5123,"count":36,"max":[23],"min":[0],"type":"SCALAR"}],"materials":[{"pbrMetallicRoughness":{"metallicFactor":0,"roughnessFactor":1},"alphaMode":"MASK","alphaCutoff":0.05,"doubleSided":true},{"pbrMetallicRoughness":{"metallicFactor":0,"roughnessFactor":1},"alphaMode":"MASK","alphaCutoff":0.05,"doubleSided":true},{"pbrMetallicRoughness":{"metallicFactor":0,"roughnessFactor":1},"alphaMode":"MASK","alphaCutoff":0.05,"doubleSided":true},{"pbrMetallicRoughness":{"metallicFactor":0,"roughnessFactor":1},"alphaMode":"MASK","alphaCutoff":0.05,"doubleSided":true},{"pbrMetallicRoughness":{"metallicFactor":0,"roughnessFactor":1,"baseColorTexture":{"index":0}},"alphaMode":"MASK","alphaCutoff":0.05,"doubleSided":true}],"meshes":[{"primitives":[{"mode":4,"attributes":{"POSITION":0,"NORMAL":1,"TEXCOORD_0":2},"indices":3,"material":0}]},{"primitives":[{"mode":4,"attributes":{"POSITION":4,"NORMAL":5,"TEXCOORD_0":6},"indices":7,"material":1}]},{"primitives":[{"mode":4,"attributes":{"POSITION":8,"NORMAL":9,"TEXCOORD_0":10},"indices":11,"material":2}]},{"primitives":[{"mode":4,"attributes":{"POSITION":12,"NORMAL":13,"TEXCOORD_0":14},"indices":15,"material":3}]},{"primitives":[{"mode":4,"attributes":{"POSITION":16,"NORMAL":17,"TEXCOORD_0":18},"indices":19,"material":4}]}],"textures":[{"sampler":0,"source":0,"name":"No-Texture.png"}],"samplers":[{"magFilter":9728,"minFilter":9728,"wrapS":33071,"wrapT":33071}],"images":[{"mimeType":"image/png","uri":"data:image/png;base64,"}]}