{"asset":{"version":"2.0","generator":"Blockbench 5.0.4 glTF exporter"},"scenes":[{"nodes":[6],"name":"blockbench_export"}],"scene":0,"nodes":[{"translation":[0.4375,0.7406250000000001,0.15625],"name":"Straps","mesh":0},{"translation":[0.4375,-0.3125,0],"name":"Frame","mesh":1},{"translation":[0,-0.696875,0],"name":"Tarp","mesh":2},{"name":"Body","children":[0,1,2]},{"translation":[0.015625,-0.015625,0.015625],"name":"Hitbox_Main-col","mesh":3},{"translation":[-0.125,-0.3125,-0.125],"name":"mesh","children":[4]},{"translation":[0,0.328125,0],"name":"Object","children":[3,5]}],"bufferViews":[{"buffer":0,"byteOffset":0,"byteLength":2592,"target":34962,"byteStride":12},{"buffer":0,"byteOffset":2592,"byteLength":2592,"target":34962,"byteStride":12},{"buffer":0,"byteOffset":5184,"byteLength":1728,"target":34962,"byteStride":8},{"buffer":0,"byteOffset":6912,"byteLength":648,"target":34963},{"buffer":0,"byteOffset":7560,"byteLength":4212,"target":34962,"byteStride":12},{"buffer":0,"byteOffset":11772,"byteLength":4212,"target":34962,"byteStride":12},{"buffer":0,"byteOffset":15984,"byteLength":2808,"target":34962,"byteStride":8},{"buffer":0,"byteOffset":18792,"byteLength":1040,"target":34963},{"buffer":0,"byteOffset":19832,"byteLength":4200,"target":34962,"byteStride":12},{"buffer":0,"byteOffset":24032,"byteLength":4200,"target":34962,"byteStride":12},{"buffer":0,"byteOffset":28232,"byteLength":2800,"target":34962,"byteStride":8},{"buffer":0,"byteOffset":31032,"byteLength":912,"target":34963},{"buffer":0,"byteOffset":31944,"byteLength":288,"target":34962,"byteStride":12},{"buffer":0,"byteOffset":32232,"byteLength":288,"target":34962,"byteStride":12},{"buffer":0,"byteOffset":32520,"byteLength":192,"target":34962,"byteStride":8},{"buffer":0,"byteOffset":32712,"byteLength":72,"target":34963}],"buffers":[{"byteLength":32784,"uri":"data:application/octet-stream;base64,"}],"accessors":[{"bufferView":0,"componentType":5126,"count":216,"max":[0.44999998807907104,0.6937500238418579,0.731249988079071],"min":[-1.3250000476837158,-1.0750000476837158,-1.0437500476837158],"type":"VEC3"},{"bufferView":1,"componentType":5126,"count":216,"max":[1,1,1],"min":[-1,-1,-1],"type":"VEC3"},{"bufferView":2,"componentType":5126,"count":216,"max":[0.8999999761581421,0.887499988079071],"min":[0,0],"type":"VEC2"},{"bufferView":3,"componentType":5123,"count":324,"max":[215],"min":[0],"type":"SCALAR"},{"bufferView":4,"componentType":5126,"count":351,"max":[0.4375,1.7172081470489502,0.875],"min":[-1.3125,-0.015625,-0.875],"type":"VEC3"},{"bufferView":5,"componentType":5126,"count":351,"max":[1,1,1],"min":[-1,-1,-1],"type":"VEC3"},{"bufferView":6,"componentType":5126,"count":351,"max":[1.6707812547683716,2.362837553024292],"min":[0,0],"type":"VEC2"},{"bufferView":7,"componentType":5123,"count":519,"max":[350],"min":[0],"type":"SCALAR"},{"bufferView":8,"componentType":5126,"count":350,"max":[0.8812500238418579,2.125,0.8812500238418579],"min":[-0.8812500238418579,0.71875,-0.8812500238418579],"type":"VEC3"},{"bufferView":9,"componentType":5126,"count":350,"max":[1,1,1],"min":[-1,-0.9943889379501343,-1],"type":"VEC3"},{"bufferView":10,"componentType":5126,"count":350,"max":[1.7625000476837158,1.7625000476837158],"min":[0,0],"type":"VEC2"},{"bufferView":11,"componentType":5123,"count":456,"max":[349],"min":[0],"type":"SCALAR"},{"bufferView":12,"componentType":5126,"count":24,"max":[0.984375,1.75,0.984375],"min":[-0.765625,0,-0.765625],"type":"VEC3"},{"bufferView":13,"componentType":5126,"count":24,"max":[1,1,1],"min":[-1,-1,-1],"type":"VEC3"},{"bufferView":14,"componentType":5126,"count":24,"max":[1,1],"min":[0,0],"type":"VEC2"},{"bufferView":15,"componentType":5123,"count":36,"max":[23],"min":[0],"type":"SCALAR"}],"materials":[{"pbrMetallicRoughness":{"metallicFactor":0,"roughnessFactor":1},"alphaMode":"MASK","alphaCutoff":0.05,"doubleSided":true},{"pbrMetallicRoughness":{"metallicFactor":0,"roughnessFactor":1},"alphaMode":"MASK","alphaCutoff":0.05,"doubleSided":true},{"pbrMetallicRoughness":{"metallicFactor":0,"roughnessFactor":1},"alphaMode":"MASK","alphaCutoff":0.05,"doubleSided":true},{"pbrMetallicRoughness":{"metallicFactor":0,"roughnessFactor":1,"baseColorTexture":{"index":0}},"alphaMode":"MASK","alphaCutoff":0.05,"doubleSided":true}],"meshes":[{"primitives":[{"mode":4,"attributes":{"POSITION":0,"NORMAL":1,"TEXCOORD_0":2},"indices":3,"material":0}]},{"primitives":[{"mode":4,"attributes":{"POSITION":4,"NORMAL":5,"TEXCOORD_0":6},"indices":7,"material":1}]},{"primitives":[{"mode":4,"attributes":{"POSITION":8,"NORMAL":9,"TEXCOORD_0":10},"indices":11,"material":2}]},{"primitives":[{"mode":4,"attributes":{"POSITION":12,"NORMAL":13,"TEXCOORD_0":14},"indices":15,"material":3}]}],"textures":[{"sampler":0,"source":0,"name":"No-Texture.png"}],"samplers":[{"magFilter":9728,"minFilter":9728,"wrapS":33071,"wrapT":33071}],"images":[{"mimeType":"image/png","uri":"data:image/png;base64,"}]}