{"asset":{"version":"2.0","generator":"Blockbench 5.0.4 glTF exporter"},"scenes":[{"nodes":[19],"name":"blockbench_export"}],"scene":0,"nodes":[{"translation":[0.015625,-0.015625,-0.421875],"name":"Hitbox_Main-col","mesh":0},{"translation":[-0.125,0.015625,-0.125],"name":"mesh","children":[0]},{"translation":[0,-0.1875,-0.0625],"name":"1","mesh":1},{"translation":[0,0.0625,-0.0625],"name":"2","mesh":2},{"translation":[0,0.375,0],"name":"Shield 1","children":[2,3]},{"translation":[0,0.0625,-0.0625],"name":"4","mesh":3},{"translation":[0,-0.1875,-0.0625],"name":"3","mesh":4},{"translation":[0,0.875,0],"name":"Shield 2","children":[5,6]},{"translation":[0,0.0625,-0.0625],"name":"6","mesh":5},{"translation":[0,-0.1875,-0.0625],"name":"5","mesh":6},{"translation":[0,1.375,0],"name":"Shield 3","children":[8,9]},{"translation":[0,-0.1875,-0.0625],"name":"7","mesh":7},{"translation":[0,0.0625,-0.0625],"name":"8","mesh":8},{"translation":[0,1.875,0],"name":"Shield 4","children":[11,12]},{"name":"Hologram","children":[1,4,7,10,13]},{"translation":[0,0.078125,0],"name":"Base Plate","mesh":9},{"translation":[0,0.0625,0],"name":"Base Energy - glow","mesh":10},{"translation":[0,0.078125,0],"name":"Base Energy Transparent - glow","mesh":11},{"name":"Projector","children":[15,16,17]},{"name":"Hologram Projector","children":[14,18]}],"bufferViews":[{"buffer":0,"byteOffset":0,"byteLength":288,"target":34962,"byteStride":12},{"buffer":0,"byteOffset":288,"byteLength":288,"target":34962,"byteStride":12},{"buffer":0,"byteOffset":576,"byteLength":192,"target":34962,"byteStride":8},{"buffer":0,"byteOffset":768,"byteLength":72,"target":34963},{"buffer":0,"byteOffset":840,"byteLength":96,"target":34962,"byteStride":12},{"buffer":0,"byteOffset":936,"byteLength":96,"target":34962,"byteStride":12},{"buffer":0,"byteOffset":1032,"byteLength":64,"target":34962,"byteStride":8},{"buffer":0,"byteOffset":1096,"byteLength":24,"target":34963},{"buffer":0,"byteOffset":1120,"byteLength":96,"target":34962,"byteStride":12},{"buffer":0,"byteOffset":1216,"byteLength":96,"target":34962,"byteStride":12},{"buffer":0,"byteOffset":1312,"byteLength":64,"target":34962,"byteStride":8},{"buffer":0,"byteOffset":1376,"byteLength":24,"target":34963},{"buffer":0,"byteOffset":1400,"byteLength":96,"target":34962,"byteStride":12},{"buffer":0,"byteOffset":1496,"byteLength":96,"target":34962,"byteStride":12},{"buffer":0,"byteOffset":1592,"byteLength":64,"target":34962,"byteStride":8},{"buffer":0,"byteOffset":1656,"byteLength":24,"target":34963},{"buffer":0,"byteOffset":1680,"byteLength":96,"target":34962,"byteStride":12},{"buffer":0,"byteOffset":1776,"byteLength":96,"target":34962,"byteStride":12},{"buffer":0,"byteOffset":1872,"byteLength":64,"target":34962,"byteStride":8},{"buffer":0,"byteOffset":1936,"byteLength":24,"target":34963},{"buffer":0,"byteOffset":1960,"byteLength":96,"target":34962,"byteStride":12},{"buffer":0,"byteOffset":2056,"byteLength":96,"target":34962,"byteStride":12},{"buffer":0,"byteOffset":2152,"byteLength":64,"target":34962,"byteStride":8},{"buffer":0,"byteOffset":2216,"byteLength":24,"target":34963},{"buffer":0,"byteOffset":2240,"byteLength":96,"target":34962,"byteStride":12},{"buffer":0,"byteOffset":2336,"byteLength":96,"target":34962,"byteStride":12},{"buffer":0,"byteOffset":2432,"byteLength":64,"target":34962,"byteStride":8},{"buffer":0,"byteOffset":2496,"byteLength":24,"target":34963},{"buffer":0,"byteOffset":2520,"byteLength":96,"target":34962,"byteStride":12},{"buffer":0,"byteOffset":2616,"byteLength":96,"target":34962,"byteStride":12},{"buffer":0,"byteOffset":2712,"byteLength":64,"target":34962,"byteStride":8},{"buffer":0,"byteOffset":2776,"byteLength":24,"target":34963},{"buffer":0,"byteOffset":2800,"byteLength":96,"target":34962,"byteStride":12},{"buffer":0,"byteOffset":2896,"byteLength":96,"target":34962,"byteStride":12},{"buffer":0,"byteOffset":2992,"byteLength":64,"target":34962,"byteStride":8},{"buffer":0,"byteOffset":3056,"byteLength":24,"target":34963},{"buffer":0,"byteOffset":3080,"byteLength":960,"target":34962,"byteStride":12},{"buffer":0,"byteOffset":4040,"byteLength":960,"target":34962,"byteStride":12},{"buffer":0,"byteOffset":5000,"byteLength":640,"target":34962,"byteStride":8},{"buffer":0,"byteOffset":5640,"byteLength":240,"target":34963},{"buffer":0,"byteOffset":5880,"byteLength":96,"target":34962,"byteStride":12},{"buffer":0,"byteOffset":5976,"byteLength":96,"target":34962,"byteStride":12},{"buffer":0,"byteOffset":6072,"byteLength":64,"target":34962,"byteStride":8},{"buffer":0,"byteOffset":6136,"byteLength":24,"target":34963},{"buffer":0,"byteOffset":6160,"byteLength":96,"target":34962,"byteStride":12},{"buffer":0,"byteOffset":6256,"byteLength":96,"target":34962,"byteStride":12},{"buffer":0,"byteOffset":6352,"byteLength":64,"target":34962,"byteStride":8},{"buffer":0,"byteOffset":6416,"byteLength":24,"target":34963},{"buffer":0,"byteOffset":6440,"byteLength":44},{"buffer":0,"byteOffset":6484,"byteLength":132},{"buffer":0,"byteOffset":6616,"byteLength":44},{"buffer":0,"byteOffset":6660,"byteLength":132},{"buffer":0,"byteOffset":6792,"byteLength":44},{"buffer":0,"byteOffset":6836,"byteLength":132},{"buffer":0,"byteOffset":6968,"byteLength":44},{"buffer":0,"byteOffset":7012,"byteLength":132},{"buffer":0,"byteOffset":7144,"byteLength":44},{"buffer":0,"byteOffset":7188,"byteLength":132},{"buffer":0,"byteOffset":7320,"byteLength":44},{"buffer":0,"byteOffset":7364,"byteLength":132},{"buffer":0,"byteOffset":7496,"byteLength":44},{"buffer":0,"byteOffset":7540,"byteLength":132},{"buffer":0,"byteOffset":7672,"byteLength":44},{"buffer":0,"byteOffset":7716,"byteLength":132},{"buffer":0,"byteOffset":7848,"byteLength":4},{"buffer":0,"byteOffset":7852,"byteLength":12}],"buffers":[{"byteLength":7864,"uri":"data:application/octet-stream;base64,"}],"accessors":[{"bufferView":0,"componentType":5126,"count":24,"max":[1.609375,2.125,0.5469375252723694],"min":[-1.390625,0.125,0.546875],"type":"VEC3"},{"bufferView":1,"componentType":5126,"count":24,"max":[1,1,1],"min":[-1,-1,-1],"type":"VEC3"},{"bufferView":2,"componentType":5126,"count":24,"max":[1,1],"min":[0,0],"type":"VEC2"},{"bufferView":3,"componentType":5123,"count":36,"max":[23],"min":[0],"type":"SCALAR"},{"bufferView":4,"componentType":5126,"count":8,"max":[1.5,0.1875,0.0625],"min":[-1.5,-0.0625,0.0625],"type":"VEC3"},{"bufferView":5,"componentType":5126,"count":8,"max":[0,0,1],"min":[0,0,-1],"type":"VEC3"},{"bufferView":6,"componentType":5126,"count":8,"max":[3,0.375],"min":[0,0],"type":"VEC2"},{"bufferView":7,"componentType":5123,"count":12,"max":[7],"min":[0],"type":"SCALAR"},{"bufferView":8,"componentType":5126,"count":8,"max":[1.5,0.1875,0.0625],"min":[-1.5,-0.0625,0.0625],"type":"VEC3"},{"bufferView":9,"componentType":5126,"count":8,"max":[0,0,1],"min":[0,0,-1],"type":"VEC3"},{"bufferView":10,"componentType":5126,"count":8,"max":[3,0.375],"min":[0,0],"type":"VEC2"},{"bufferView":11,"componentType":5123,"count":12,"max":[7],"min":[0],"type":"SCALAR"},{"bufferView":12,"componentType":5126,"count":8,"max":[1.5,0.1875,0.0625],"min":[-1.5,-0.0625,0.0625],"type":"VEC3"},{"bufferView":13,"componentType":5126,"count":8,"max":[0,0,1],"min":[0,0,-1],"type":"VEC3"},{"bufferView":14,"componentType":5126,"count":8,"max":[3,0.375],"min":[0,0],"type":"VEC2"},{"bufferView":15,"componentType":5123,"count":12,"max":[7],"min":[0],"type":"SCALAR"},{"bufferView":16,"componentType":5126,"count":8,"max":[1.5,0.1875,0.0625],"min":[-1.5,-0.0625,0.0625],"type":"VEC3"},{"bufferView":17,"componentType":5126,"count":8,"max":[0,0,1],"min":[0,0,-1],"type":"VEC3"},{"bufferView":18,"componentType":5126,"count":8,"max":[3,0.375],"min":[0,0],"type":"VEC2"},{"bufferView":19,"componentType":5123,"count":12,"max":[7],"min":[0],"type":"SCALAR"},{"bufferView":20,"componentType":5126,"count":8,"max":[1.5,0.1875,0.0625],"min":[-1.5,-0.0625,0.0625],"type":"VEC3"},{"bufferView":21,"componentType":5126,"count":8,"max":[0,0,1],"min":[0,0,-1],"type":"VEC3"},{"bufferView":22,"componentType":5126,"count":8,"max":[3,0.375],"min":[0,0],"type":"VEC2"},{"bufferView":23,"componentType":5123,"count":12,"max":[7],"min":[0],"type":"SCALAR"},{"bufferView":24,"componentType":5126,"count":8,"max":[1.5,0.1875,0.0625],"min":[-1.5,-0.0625,0.0625],"type":"VEC3"},{"bufferView":25,"componentType":5126,"count":8,"max":[0,0,1],"min":[0,0,-1],"type":"VEC3"},{"bufferView":26,"componentType":5126,"count":8,"max":[3,0.375],"min":[0,0],"type":"VEC2"},{"bufferView":27,"componentType":5123,"count":12,"max":[7],"min":[0],"type":"SCALAR"},{"bufferView":28,"componentType":5126,"count":8,"max":[1.5,0.1875,0.0625],"min":[-1.5,-0.0625,0.0625],"type":"VEC3"},{"bufferView":29,"componentType":5126,"count":8,"max":[0,0,1],"min":[0,0,-1],"type":"VEC3"},{"bufferView":30,"componentType":5126,"count":8,"max":[3,0.375],"min":[0,0],"type":"VEC2"},{"bufferView":31,"componentType":5123,"count":12,"max":[7],"min":[0],"type":"SCALAR"},{"bufferView":32,"componentType":5126,"count":8,"max":[1.5,0.1875,0.0625],"min":[-1.5,-0.0625,0.0625],"type":"VEC3"},{"bufferView":33,"componentType":5126,"count":8,"max":[0,0,1],"min":[0,0,-1],"type":"VEC3"},{"bufferView":34,"componentType":5126,"count":8,"max":[3,0.375],"min":[0,0],"type":"VEC2"},{"bufferView":35,"componentType":5123,"count":12,"max":[7],"min":[0],"type":"SCALAR"},{"bufferView":36,"componentType":5126,"count":80,"max":[0.34150636196136475,0,0.3125],"min":[-0.34150636196136475,-0.078125,-0.3125],"type":"VEC3"},{"bufferView":37,"componentType":5126,"count":80,"max":[0.665571391582489,1,0.7071067690849304],"min":[-0.665571391582489,-1,-0.7071067690849304],"type":"VEC3"},{"bufferView":38,"componentType":5126,"count":80,"max":[0.6830124855041504,0.3125],"min":[0,0],"type":"VEC2"},{"bufferView":39,"componentType":5123,"count":120,"max":[79],"min":[0],"type":"SCALAR"},{"bufferView":40,"componentType":5126,"count":8,"max":[0.21813076734542847,-0.015625,0.1875],"min":[-0.21813076734542847,-0.015625,-0.1875],"type":"VEC3"},{"bufferView":41,"componentType":5126,"count":8,"max":[0,1,0],"min":[0,1,0],"type":"VEC3"},{"bufferView":42,"componentType":5126,"count":8,"max":[0.5300124883651733,0.234375],"min":[0,0],"type":"VEC2"},{"bufferView":43,"componentType":5123,"count":12,"max":[7],"min":[0],"type":"SCALAR"},{"bufferView":44,"componentType":5126,"count":8,"max":[0.21813076734542847,-0.015625,0.1875],"min":[-0.21813076734542847,-0.015625,-0.1875],"type":"VEC3"},{"bufferView":45,"componentType":5126,"count":8,"max":[0,1,0],"min":[0,1,0],"type":"VEC3"},{"bufferView":46,"componentType":5126,"count":8,"max":[0.5300124883651733,0.234375],"min":[0,0],"type":"VEC2"},{"bufferView":47,"componentType":5123,"count":12,"max":[7],"min":[0],"type":"SCALAR"},{"bufferView":48,"componentType":5126,"count":11,"max":[1.875],"min":[0],"type":"SCALAR"},{"bufferView":49,"componentType":5126,"count":11,"max":[1.5625,0.375,0],"min":[-0.9375,0.375,0],"type":"VEC3"},{"bufferView":50,"componentType":5126,"count":11,"max":[1.9583333730697632],"min":[0],"type":"SCALAR"},{"bufferView":51,"componentType":5126,"count":11,"max":[1,1,1],"min":[0,0,0],"type":"VEC3"},{"bufferView":52,"componentType":5126,"count":11,"max":[1.7083333730697632],"min":[0],"type":"SCALAR"},{"bufferView":53,"componentType":5126,"count":11,"max":[1.5625,0.875,0],"min":[-0.9375,0.875,0],"type":"VEC3"},{"bufferView":54,"componentType":5126,"count":11,"max":[1.7916666269302368],"min":[0],"type":"SCALAR"},{"bufferView":55,"componentType":5126,"count":11,"max":[1,1,1],"min":[0,0,0],"type":"VEC3"},{"bufferView":56,"componentType":5126,"count":11,"max":[1.8333333730697632],"min":[0],"type":"SCALAR"},{"bufferView":57,"componentType":5126,"count":11,"max":[0.9375,1.375,0],"min":[-1.5625,1.375,0],"type":"VEC3"},{"bufferView":58,"componentType":5126,"count":11,"max":[1.875],"min":[0],"type":"SCALAR"},{"bufferView":59,"componentType":5126,"count":11,"max":[1,1,1],"min":[0,0,0],"type":"VEC3"},{"bufferView":60,"componentType":5126,"count":11,"max":[1.9583333730697632],"min":[0],"type":"SCALAR"},{"bufferView":61,"componentType":5126,"count":11,"max":[0.9375,1.875,0],"min":[-1.5625,1.875,0],"type":"VEC3"},{"bufferView":62,"componentType":5126,"count":11,"max":[2],"min":[0],"type":"SCALAR"},{"bufferView":63,"componentType":5126,"count":11,"max":[1,1,1],"min":[0,0,0],"type":"VEC3"},{"bufferView":64,"componentType":5126,"count":1,"max":[0],"min":[0],"type":"SCALAR"},{"bufferView":65,"componentType":5126,"count":1,"max":[0,0,0],"min":[0,0,0],"type":"VEC3"}],"materials":[{"pbrMetallicRoughness":{"metallicFactor":0,"roughnessFactor":1,"baseColorTexture":{"index":0}},"alphaMode":"MASK","alphaCutoff":0.05,"doubleSided":true},{"pbrMetallicRoughness":{"metallicFactor":0,"roughnessFactor":1},"alphaMode":"MASK","alphaCutoff":0.05,"doubleSided":true},{"pbrMetallicRoughness":{"metallicFactor":0,"roughnessFactor":1},"alphaMode":"MASK","alphaCutoff":0.05,"doubleSided":true}],"textures":[{"sampler":0,"source":0,"name":"No-Texture.png"}],"samplers":[{"magFilter":9728,"minFilter":9728,"wrapS":33071,"wrapT":33071}],"images":[{"mimeType":"image/png","uri":"data:image/png;base64,"}],"meshes":[{"primitives":[{"mode":4,"attributes":{"POSITION":0,"NORMAL":1,"TEXCOORD_0":2},"indices":3,"material":0}]},{"primitives":[{"mode":4,"attributes":{"POSITION":4,"NORMAL":5,"TEXCOORD_0":6},"indices":7,"material":1}]},{"primitives":[{"mode":4,"attributes":{"POSITION":8,"NORMAL":9,"TEXCOORD_0":10},"indices":11,"material":1}]},{"primitives":[{"mode":4,"attributes":{"POSITION":12,"NORMAL":13,"TEXCOORD_0":14},"indices":15,"material":1}]},{"primitives":[{"mode":4,"attributes":{"POSITION":16,"NORMAL":17,"TEXCOORD_0":18},"indices":19,"material":1}]},{"primitives":[{"mode":4,"attributes":{"POSITION":20,"NORMAL":21,"TEXCOORD_0":22},"indices":23,"material":1}]},{"primitives":[{"mode":4,"attributes":{"POSITION":24,"NORMAL":25,"TEXCOORD_0":26},"indices":27,"material":1}]},{"primitives":[{"mode":4,"attributes":{"POSITION":28,"NORMAL":29,"TEXCOORD_0":30},"indices":31,"material":1}]},{"primitives":[{"mode":4,"attributes":{"POSITION":32,"NORMAL":33,"TEXCOORD_0":34},"indices":35,"material":1}]},{"primitives":[{"mode":4,"attributes":{"POSITION":36,"NORMAL":37,"TEXCOORD_0":38},"indices":39,"material":2}]},{"primitives":[{"mode":4,"attributes":{"POSITION":40,"NORMAL":41,"TEXCOORD_0":42},"indices":43,"material":1}]},{"primitives":[{"mode":4,"attributes":{"POSITION":44,"NORMAL":45,"TEXCOORD_0":46},"indices":47,"material":1}]}],"animations":[{"name":"Glitching","samplers":[{"input":48,"output":49,"interpolation":"STEP"},{"input":50,"output":51,"interpolation":"STEP"},{"input":52,"output":53,"interpolation":"STEP"},{"input":54,"output":55,"interpolation":"STEP"},{"input":56,"output":57,"interpolation":"STEP"},{"input":58,"output":59,"interpolation":"STEP"},{"input":60,"output":61,"interpolation":"STEP"},{"input":62,"output":63,"interpolation":"STEP"}],"channels":[{"sampler":0,"target":{"node":4,"path":"translation"}},{"sampler":1,"target":{"node":4,"path":"scale"}},{"sampler":2,"target":{"node":7,"path":"translation"}},{"sampler":3,"target":{"node":7,"path":"scale"}},{"sampler":4,"target":{"node":10,"path":"translation"}},{"sampler":5,"target":{"node":10,"path":"scale"}},{"sampler":6,"target":{"node":13,"path":"translation"}},{"sampler":7,"target":{"node":13,"path":"scale"}}]},{"name":"Off","samplers":[{"input":64,"output":65,"interpolation":"LINEAR"}],"channels":[{"sampler":0,"target":{"node":14,"path":"scale"}}]}]}