{"asset":{"version":"2.0","generator":"Blockbench 5.0.3 glTF exporter"},"scenes":[{"nodes":[7],"name":"blockbench_export"}],"scene":0,"nodes":[{"translation":[0,-0.3125,-0.4375],"name":"Frame","mesh":0},{"translation":[0,0.515625,0],"name":"Canister","mesh":1},{"translation":[0,0.515625,0.115625],"name":"Canister_selection_selection","mesh":2},{"translation":[0,0.515625,-0.0625],"name":"Energy - glow","mesh":3},{"name":"Body","children":[0,1,2,3]},{"translation":[0.015625,-0.015625,0.015625],"name":"Hitbox_Main-col","mesh":4},{"translation":[-0.125,-0.3125,-0.125],"name":"mesh","children":[5]},{"translation":[0,0.328125,0],"name":"Object","children":[4,6]}],"bufferViews":[{"buffer":0,"byteOffset":0,"byteLength":6132,"target":34962,"byteStride":12},{"buffer":0,"byteOffset":6132,"byteLength":6132,"target":34962,"byteStride":12},{"buffer":0,"byteOffset":12264,"byteLength":4088,"target":34962,"byteStride":8},{"buffer":0,"byteOffset":16352,"byteLength":1520,"target":34963},{"buffer":0,"byteOffset":17872,"byteLength":2304,"target":34962,"byteStride":12},{"buffer":0,"byteOffset":20176,"byteLength":2304,"target":34962,"byteStride":12},{"buffer":0,"byteOffset":22480,"byteLength":1536,"target":34962,"byteStride":8},{"buffer":0,"byteOffset":24016,"byteLength":516,"target":34963},{"buffer":0,"byteOffset":24532,"byteLength":576,"target":34962,"byteStride":12},{"buffer":0,"byteOffset":25108,"byteLength":576,"target":34962,"byteStride":12},{"buffer":0,"byteOffset":25684,"byteLength":384,"target":34962,"byteStride":8},{"buffer":0,"byteOffset":26068,"byteLength":144,"target":34963},{"buffer":0,"byteOffset":26212,"byteLength":48,"target":34962,"byteStride":12},{"buffer":0,"byteOffset":26260,"byteLength":48,"target":34962,"byteStride":12},{"buffer":0,"byteOffset":26308,"byteLength":32,"target":34962,"byteStride":8},{"buffer":0,"byteOffset":26340,"byteLength":12,"target":34963},{"buffer":0,"byteOffset":26352,"byteLength":288,"target":34962,"byteStride":12},{"buffer":0,"byteOffset":26640,"byteLength":288,"target":34962,"byteStride":12},{"buffer":0,"byteOffset":26928,"byteLength":192,"target":34962,"byteStride":8},{"buffer":0,"byteOffset":27120,"byteLength":72,"target":34963}],"buffers":[{"byteLength":27192,"uri":"data:application/octet-stream;base64,"}],"accessors":[{"bufferView":0,"componentType":5126,"count":511,"max":[0.4375,1.171875,0.875],"min":[-0.4375,-0.015625,0],"type":"VEC3"},{"bufferView":1,"componentType":5126,"count":511,"max":[1,1,1],"min":[-1,-1,-1],"type":"VEC3"},{"bufferView":2,"componentType":5126,"count":511,"max":[0.875,0.875],"min":[0,0],"type":"VEC2"},{"bufferView":3,"componentType":5123,"count":759,"max":[510],"min":[0],"type":"SCALAR"},{"bufferView":4,"componentType":5126,"count":192,"max":[0.421875,0.328125,0.40352118015289307],"min":[-0.421875,-0.828125,-0.40352118015289307],"type":"VEC3"},{"bufferView":5,"componentType":5126,"count":192,"max":[0.9515718221664429,0.999294638633728,1],"min":[-0.9515718221664429,-0.999294638633728,-1],"type":"VEC3"},{"bufferView":6,"componentType":5126,"count":192,"max":[0.23176249861717224,0.7317625284194946],"min":[0,0],"type":"VEC2"},{"bufferView":7,"componentType":5123,"count":258,"max":[191],"min":[0],"type":"SCALAR"},{"bufferView":8,"componentType":5126,"count":48,"max":[0.10650637000799179,0.07525637000799179,-0.48164618015289307],"min":[-0.10650637000799179,-0.57525634765625,-0.5441461801528931],"type":"VEC3"},{"bufferView":9,"componentType":5126,"count":48,"max":[1,1,2.220446049250313e-16],"min":[-1,-1,-1],"type":"VEC3"},{"bufferView":10,"componentType":5126,"count":48,"max":[0.16926249861717224,0.6067625284194946],"min":[0,0],"type":"VEC2"},{"bufferView":11,"componentType":5123,"count":72,"max":[47],"min":[0],"type":"SCALAR"},{"bufferView":12,"componentType":5126,"count":4,"max":[0.09088137000799179,0.05963137373328209,-0.34102118015289307],"min":[-0.09088137000799179,-0.55963134765625,-0.34102118015289307],"type":"VEC3"},{"bufferView":13,"componentType":5126,"count":4,"max":[0,8.964070933197945e-17,-1],"min":[0,8.964070933197945e-17,-1],"type":"VEC3"},{"bufferView":14,"componentType":5126,"count":4,"max":[0.13801249861717224,0.5755125284194946],"min":[0,0],"type":"VEC2"},{"bufferView":15,"componentType":5123,"count":6,"max":[3],"min":[0],"type":"SCALAR"},{"bufferView":16,"componentType":5126,"count":24,"max":[0.546875,1.1875,0.546875],"min":[-0.328125,0,-0.328125],"type":"VEC3"},{"bufferView":17,"componentType":5126,"count":24,"max":[1,1,1],"min":[-1,-1,-1],"type":"VEC3"},{"bufferView":18,"componentType":5126,"count":24,"max":[14,16],"min":[0,0],"type":"VEC2"},{"bufferView":19,"componentType":5123,"count":36,"max":[23],"min":[0],"type":"SCALAR"}],"materials":[{"pbrMetallicRoughness":{"metallicFactor":0,"roughnessFactor":1},"alphaMode":"MASK","alphaCutoff":0.05,"doubleSided":true},{"pbrMetallicRoughness":{"metallicFactor":0,"roughnessFactor":1},"alphaMode":"MASK","alphaCutoff":0.05,"doubleSided":true},{"pbrMetallicRoughness":{"metallicFactor":0,"roughnessFactor":1},"alphaMode":"MASK","alphaCutoff":0.05,"doubleSided":true},{"pbrMetallicRoughness":{"metallicFactor":0,"roughnessFactor":1,"baseColorTexture":{"index":0}},"alphaMode":"MASK","alphaCutoff":0.05,"doubleSided":true}],"meshes":[{"primitives":[{"mode":4,"attributes":{"POSITION":0,"NORMAL":1,"TEXCOORD_0":2},"indices":3,"material":0}]},{"primitives":[{"mode":4,"attributes":{"POSITION":4,"NORMAL":5,"TEXCOORD_0":6},"indices":7,"material":1}]},{"primitives":[{"mode":4,"attributes":{"POSITION":8,"NORMAL":9,"TEXCOORD_0":10},"indices":11,"material":0}]},{"primitives":[{"mode":4,"attributes":{"POSITION":12,"NORMAL":13,"TEXCOORD_0":14},"indices":15,"material":2}]},{"primitives":[{"mode":4,"attributes":{"POSITION":16,"NORMAL":17,"TEXCOORD_0":18},"indices":19,"material":3}]}],"textures":[{"sampler":0,"source":0,"name":"No-Texture.png"}],"samplers":[{"magFilter":9728,"minFilter":9728,"wrapS":33071,"wrapT":33071}],"images":[{"mimeType":"image/png","uri":"data:image/png;base64,"}]}