{"asset":{"version":"2.0","generator":"Blockbench 5.0.7 glTF exporter"},"scenes":[{"nodes":[17],"name":"blockbench_export"}],"scene":0,"nodes":[{"translation":[0.469375,0.640625,0],"name":"Stock","mesh":0},{"translation":[-0.030625000000000013,0.28125,0],"name":"Handle","mesh":1},{"translation":[-0.030625000000000013,0.28125,-0.125],"name":"Grip","mesh":2},{"translation":[-0.405625,0.5625,0.03125],"name":"Body","mesh":3},{"translation":[0.313125,0.53125,-0.03125],"name":"Underside","mesh":4},{"name":"Vent - glow","mesh":5},{"translation":[0.86,0.46875,0.015625],"name":"Decoration - glow","mesh":6},{"translation":[-1.5306250000000001,0.375,0],"scale":[0.033861386138613864,0.033861386138613864,0.033861386138613864],"name":"Muzzle Flash Point"},{"translation":[-1.7181250000000001,0.625,0],"scale":[0.033861386138613864,0.033861386138613864,0.033861386138613864],"name":"Muzzle Flash Point 2"},{"translation":[0.156875,0.25,0.0625],"name":"Drum","mesh":7},{"translation":[0.156875,0.25,0.0625],"name":"Drum - glow","mesh":8},{"translation":[-0.5625,0.3125,0],"name":"Drum","children":[9,10]},{"translation":[0.156875,0.515625,0.03125],"name":"Drum Cover","mesh":9},{"translation":[-0.19687500000000002,0.078125,0.0375],"name":"Band","mesh":10},{"translation":[-0.5625,0.109375,0],"name":"Drum_Cover","children":[12,13]},{"rotation":[-0.7071067811865475,0,0,0.7071067811865476],"translation":[-0.0625,-0.0625,0.25],"name":"Trigger - glow","mesh":11},{"translation":[-0.03125,0.25,0],"name":"Trigger","children":[15]},{"translation":[0.343125,0.359375,0],"name":"Weapon","children":[0,1,2,3,4,5,6,7,8,11,14,16]}],"bufferViews":[{"buffer":0,"byteOffset":0,"byteLength":528,"target":34962,"byteStride":12},{"buffer":0,"byteOffset":528,"byteLength":528,"target":34962,"byteStride":12},{"buffer":0,"byteOffset":1056,"byteLength":352,"target":34962,"byteStride":8},{"buffer":0,"byteOffset":1408,"byteLength":132,"target":34963},{"buffer":0,"byteOffset":1540,"byteLength":1956,"target":34962,"byteStride":12},{"buffer":0,"byteOffset":3496,"byteLength":1956,"target":34962,"byteStride":12},{"buffer":0,"byteOffset":5452,"byteLength":1304,"target":34962,"byteStride":8},{"buffer":0,"byteOffset":6756,"byteLength":488,"target":34963},{"buffer":0,"byteOffset":7244,"byteLength":384,"target":34962,"byteStride":12},{"buffer":0,"byteOffset":7628,"byteLength":384,"target":34962,"byteStride":12},{"buffer":0,"byteOffset":8012,"byteLength":256,"target":34962,"byteStride":8},{"buffer":0,"byteOffset":8268,"byteLength":84,"target":34963},{"buffer":0,"byteOffset":8352,"byteLength":1440,"target":34962,"byteStride":12},{"buffer":0,"byteOffset":9792,"byteLength":1440,"target":34962,"byteStride":12},{"buffer":0,"byteOffset":11232,"byteLength":960,"target":34962,"byteStride":8},{"buffer":0,"byteOffset":12192,"byteLength":336,"target":34963},{"buffer":0,"byteOffset":12528,"byteLength":1584,"target":34962,"byteStride":12},{"buffer":0,"byteOffset":14112,"byteLength":1584,"target":34962,"byteStride":12},{"buffer":0,"byteOffset":15696,"byteLength":1056,"target":34962,"byteStride":8},{"buffer":0,"byteOffset":16752,"byteLength":396,"target":34963},{"buffer":0,"byteOffset":17148,"byteLength":96,"target":34962,"byteStride":12},{"buffer":0,"byteOffset":17244,"byteLength":96,"target":34962,"byteStride":12},{"buffer":0,"byteOffset":17340,"byteLength":64,"target":34962,"byteStride":8},{"buffer":0,"byteOffset":17404,"byteLength":24,"target":34963},{"buffer":0,"byteOffset":17428,"byteLength":672,"target":34962,"byteStride":12},{"buffer":0,"byteOffset":18100,"byteLength":672,"target":34962,"byteStride":12},{"buffer":0,"byteOffset":18772,"byteLength":448,"target":34962,"byteStride":8},{"buffer":0,"byteOffset":19220,"byteLength":144,"target":34963},{"buffer":0,"byteOffset":19364,"byteLength":2784,"target":34962,"byteStride":12},{"buffer":0,"byteOffset":22148,"byteLength":2784,"target":34962,"byteStride":12},{"buffer":0,"byteOffset":24932,"byteLength":1856,"target":34962,"byteStride":8},{"buffer":0,"byteOffset":26788,"byteLength":696,"target":34963},{"buffer":0,"byteOffset":27484,"byteLength":720,"target":34962,"byteStride":12},{"buffer":0,"byteOffset":28204,"byteLength":720,"target":34962,"byteStride":12},{"buffer":0,"byteOffset":28924,"byteLength":480,"target":34962,"byteStride":8},{"buffer":0,"byteOffset":29404,"byteLength":168,"target":34963},{"buffer":0,"byteOffset":29572,"byteLength":840,"target":34962,"byteStride":12},{"buffer":0,"byteOffset":30412,"byteLength":840,"target":34962,"byteStride":12},{"buffer":0,"byteOffset":31252,"byteLength":560,"target":34962,"byteStride":8},{"buffer":0,"byteOffset":31812,"byteLength":192,"target":34963},{"buffer":0,"byteOffset":32004,"byteLength":768,"target":34962,"byteStride":12},{"buffer":0,"byteOffset":32772,"byteLength":768,"target":34962,"byteStride":12},{"buffer":0,"byteOffset":33540,"byteLength":512,"target":34962,"byteStride":8},{"buffer":0,"byteOffset":34052,"byteLength":192,"target":34963},{"buffer":0,"byteOffset":34244,"byteLength":2304,"target":34962,"byteStride":12},{"buffer":0,"byteOffset":36548,"byteLength":2304,"target":34962,"byteStride":12},{"buffer":0,"byteOffset":38852,"byteLength":1536,"target":34962,"byteStride":8},{"buffer":0,"byteOffset":40388,"byteLength":576,"target":34963},{"buffer":0,"byteOffset":40964,"byteLength":16},{"buffer":0,"byteOffset":40980,"byteLength":64},{"buffer":0,"byteOffset":41044,"byteLength":36},{"buffer":0,"byteOffset":41080,"byteLength":144},{"buffer":0,"byteOffset":41224,"byteLength":4},{"buffer":0,"byteOffset":41228,"byteLength":16},{"buffer":0,"byteOffset":41244,"byteLength":16},{"buffer":0,"byteOffset":41260,"byteLength":64},{"buffer":0,"byteOffset":41324,"byteLength":16},{"buffer":0,"byteOffset":41340,"byteLength":64},{"buffer":0,"byteOffset":41404,"byteLength":44},{"buffer":0,"byteOffset":41448,"byteLength":176},{"buffer":0,"byteOffset":41624,"byteLength":144},{"buffer":0,"byteOffset":41768,"byteLength":432},{"buffer":0,"byteOffset":42200,"byteLength":16},{"buffer":0,"byteOffset":42216,"byteLength":48},{"buffer":0,"byteOffset":42264,"byteLength":92},{"buffer":0,"byteOffset":42356,"byteLength":368},{"buffer":0,"byteOffset":42724,"byteLength":148},{"buffer":0,"byteOffset":42872,"byteLength":444},{"buffer":0,"byteOffset":43316,"byteLength":68},{"buffer":0,"byteOffset":43384,"byteLength":272},{"buffer":0,"byteOffset":43656,"byteLength":68},{"buffer":0,"byteOffset":43724,"byteLength":204}],"buffers":[{"byteLength":43928,"uri":"data:application/octet-stream;base64,"}],"accessors":[{"bufferView":0,"componentType":5126,"count":44,"max":[0.46875,-0.015625,0.0625],"min":[-0.08749999850988388,-0.265625,-0.0625],"type":"VEC3"},{"bufferView":1,"componentType":5126,"count":44,"max":[1,1,1],"min":[-0.9014654755592346,-1,-1],"type":"VEC3"},{"bufferView":2,"componentType":5126,"count":44,"max":[0.75,0.3125],"min":[0,0],"type":"VEC2"},{"bufferView":3,"componentType":5123,"count":66,"max":[43],"min":[0],"type":"SCALAR"},{"bufferView":4,"componentType":5126,"count":163,"max":[0.375,0.390625,0.078125],"min":[-0.34375,-0.234375,-0.078125],"type":"VEC3"},{"bufferView":5,"componentType":5126,"count":163,"max":[1,1,1],"min":[-0.8422713875770569,-1,-1],"type":"VEC3"},{"bufferView":6,"componentType":5126,"count":163,"max":[0.5,0.4856337308883667],"min":[0,0],"type":"VEC2"},{"bufferView":7,"componentType":5123,"count":243,"max":[162],"min":[0],"type":"SCALAR"},{"bufferView":8,"componentType":5126,"count":32,"max":[0.2734375,0.07500000298023224,0.1796875],"min":[-0.24609375,-0.22187499701976776,0.06406249850988388],"type":"VEC3"},{"bufferView":9,"componentType":5126,"count":32,"max":[0.029835786670446396,0.061935894191265106,0.9993219971656799],"min":[-0.8320503234863281,-1,-0.9991388320922852],"type":"VEC3"},{"bufferView":10,"componentType":5126,"count":32,"max":[0.3555324971675873,0.3555287718772888],"min":[0,0],"type":"VEC2"},{"bufferView":11,"componentType":5123,"count":42,"max":[31],"min":[0],"type":"SCALAR"},{"bufferView":12,"componentType":5126,"count":120,"max":[0.3125,0.15937499701976776,0.0625],"min":[-0.765625,-0.25,-0.125],"type":"VEC3"},{"bufferView":13,"componentType":5126,"count":120,"max":[0.8320503234863281,1,1],"min":[-0.8137334585189819,-1,-1],"type":"VEC3"},{"bufferView":14,"componentType":5126,"count":120,"max":[0.828125,0.4388437271118164],"min":[0,0],"type":"VEC2"},{"bufferView":15,"componentType":5123,"count":168,"max":[119],"min":[0],"type":"SCALAR"},{"bufferView":16,"componentType":5126,"count":132,"max":[0.53125,0.140625,0.078125],"min":[-2.081249952316284,-0.359375,-0.015625],"type":"VEC3"},{"bufferView":17,"componentType":5126,"count":132,"max":[1,1,1],"min":[-1,-1,-1],"type":"VEC3"},{"bufferView":18,"componentType":5126,"count":132,"max":[0.9375,0.34375],"min":[0,0],"type":"VEC2"},{"bufferView":19,"componentType":5123,"count":198,"max":[131],"min":[0],"type":"SCALAR"},{"bufferView":20,"componentType":5126,"count":8,"max":[0.15625,0.640625,0.07187499850988388],"min":[-0.1875,0.484375,-0.07187499850988388],"type":"VEC3"},{"bufferView":21,"componentType":5126,"count":8,"max":[0,0,1],"min":[0,0,-1],"type":"VEC3"},{"bufferView":22,"componentType":5126,"count":8,"max":[0.34375,0.15625],"min":[0,0],"type":"VEC2"},{"bufferView":23,"componentType":5123,"count":12,"max":[7],"min":[0],"type":"SCALAR"},{"bufferView":24,"componentType":5126,"count":56,"max":[0.03125,0.125,0.05312500149011612],"min":[-0.03125,0.0625,-0.08437500149011612],"type":"VEC3"},{"bufferView":25,"componentType":5126,"count":56,"max":[0.7071067690849304,0.7071067690849304,1],"min":[-0.7071067690849304,-0.7071067690849304,-1],"type":"VEC3"},{"bufferView":26,"componentType":5126,"count":56,"max":[0.0625,0.0625],"min":[0,0],"type":"VEC2"},{"bufferView":27,"componentType":5123,"count":72,"max":[55],"min":[0],"type":"SCALAR"},{"bufferView":28,"componentType":5126,"count":232,"max":[0.04240187630057335,-0.05134812369942665,0.0062500000931322575],"min":[-0.35490188002586365,-0.44865188002586365,-0.13124999403953552],"type":"VEC3"},{"bufferView":29,"componentType":5126,"count":232,"max":[0.9238826036453247,0.9675352573394775,1],"min":[-0.9238826036453247,-0.9675352573394775,-1],"type":"VEC3"},{"bufferView":30,"componentType":5126,"count":232,"max":[0.1875,0.14726251363754272],"min":[0,0],"type":"VEC2"},{"bufferView":31,"componentType":5123,"count":348,"max":[231],"min":[0],"type":"SCALAR"},{"bufferView":32,"componentType":5126,"count":60,"max":[0.03927687555551529,-0.05447312444448471,0],"min":[-0.3517768681049347,-0.4455268681049347,-0.125],"type":"VEC3"},{"bufferView":33,"componentType":5126,"count":60,"max":[0.9238786697387695,0.9238786697387695,1],"min":[-0.9238786697387695,-0.9238786697387695,-1],"type":"VEC3"},{"bufferView":34,"componentType":5126,"count":60,"max":[0.384799987077713,0.14726251363754272],"min":[0,0],"type":"VEC2"},{"bufferView":35,"componentType":5123,"count":84,"max":[59],"min":[0],"type":"SCALAR"},{"bufferView":36,"componentType":5126,"count":70,"max":[0.0625,-0.3125,0.0625],"min":[-0.375,-0.515625,-0.125],"type":"VEC3"},{"bufferView":37,"componentType":5126,"count":70,"max":[1,1,1],"min":[-1,-1,-1],"type":"VEC3"},{"bufferView":38,"componentType":5126,"count":70,"max":[0.34375,0.25],"min":[0,0],"type":"VEC2"},{"bufferView":39,"componentType":5123,"count":96,"max":[69],"min":[0],"type":"SCALAR"},{"bufferView":40,"componentType":5126,"count":64,"max":[0.40312498807907104,0.375,0.015625],"min":[-0.00937500037252903,0.125,-0.09375],"type":"VEC3"},{"bufferView":41,"componentType":5126,"count":64,"max":[1,0,1],"min":[-1,0,-1],"type":"VEC3"},{"bufferView":42,"componentType":5126,"count":64,"max":[0.03125,0.125],"min":[0,0],"type":"VEC2"},{"bufferView":43,"componentType":5123,"count":96,"max":[63],"min":[0],"type":"SCALAR"},{"bufferView":44,"componentType":5126,"count":192,"max":[0.046875,0.2593750059604645,0.046875],"min":[-0.046875,0.24062499403953552,-0.046875],"type":"VEC3"},{"bufferView":45,"componentType":5126,"count":192,"max":[1,1,1],"min":[-1,-1,-1],"type":"VEC3"},{"bufferView":46,"componentType":5126,"count":192,"max":[0.26794999837875366,0.5],"min":[0,0],"type":"VEC2"},{"bufferView":47,"componentType":5123,"count":288,"max":[191],"min":[0],"type":"SCALAR"},{"bufferView":48,"componentType":5126,"count":4,"max":[0.125],"min":[0],"type":"SCALAR"},{"bufferView":49,"componentType":5126,"count":4,"max":[0,0,0.1736481785774231,1],"min":[0,0,0,0.9848077297210693],"type":"VEC4"},{"bufferView":50,"componentType":5126,"count":9,"max":[0.5],"min":[0],"type":"SCALAR"},{"bufferView":51,"componentType":5126,"count":9,"max":[0,0,0.9841658473014832,1],"min":[0,0,0,-1],"type":"VEC4"},{"bufferView":52,"componentType":5126,"count":1,"max":[0],"min":[0],"type":"SCALAR"},{"bufferView":53,"componentType":5126,"count":1,"max":[0,0,0.1736481785774231,0.9848077297210693],"min":[0,0,0.1736481785774231,0.9848077297210693],"type":"VEC4"},{"bufferView":54,"componentType":5126,"count":4,"max":[0.5],"min":[0],"type":"SCALAR"},{"bufferView":55,"componentType":5126,"count":4,"max":[0,0,0.8660253882408142,1],"min":[0,0,0,-1],"type":"VEC4"},{"bufferView":56,"componentType":5126,"count":4,"max":[0.20833000540733337],"min":[0],"type":"SCALAR"},{"bufferView":57,"componentType":5126,"count":4,"max":[0,0,0.1736481785774231,1],"min":[0,0,0,0.9848077297210693],"type":"VEC4"},{"bufferView":58,"componentType":5126,"count":11,"max":[0.541670024394989],"min":[0],"type":"SCALAR"},{"bufferView":59,"componentType":5126,"count":11,"max":[0,0,0.9628877639770508,1],"min":[0,0,-0.29224029183387756,-1],"type":"VEC4"},{"bufferView":60,"componentType":5126,"count":36,"max":[2.125],"min":[0],"type":"SCALAR"},{"bufferView":61,"componentType":5126,"count":36,"max":[-0.5625,0.109375,0],"min":[-0.5625,-0.08984375,0],"type":"VEC3"},{"bufferView":62,"componentType":5126,"count":4,"max":[2.1666667461395264],"min":[0.2083333283662796],"type":"SCALAR"},{"bufferView":63,"componentType":5126,"count":4,"max":[1,1,1],"min":[0,0,0],"type":"VEC3"},{"bufferView":64,"componentType":5126,"count":23,"max":[1.6666666269302368],"min":[0],"type":"SCALAR"},{"bufferView":65,"componentType":5126,"count":23,"max":[0,0,0.22886060178279877,1],"min":[0,0,-0.9933465123176575,-1],"type":"VEC4"},{"bufferView":66,"componentType":5126,"count":37,"max":[2.125],"min":[0],"type":"SCALAR"},{"bufferView":67,"componentType":5126,"count":37,"max":[-0.5625,0.3125,0],"min":[-0.5625,0.20703125,0],"type":"VEC3"},{"bufferView":68,"componentType":5126,"count":17,"max":[2.25],"min":[0],"type":"SCALAR"},{"bufferView":69,"componentType":5126,"count":17,"max":[0,0,0,1],"min":[0,0,-0.3214394748210907,0.9469301104545593],"type":"VEC4"},{"bufferView":70,"componentType":5126,"count":17,"max":[2.25],"min":[0],"type":"SCALAR"},{"bufferView":71,"componentType":5126,"count":17,"max":[0.34312498569488525,0.421875,0],"min":[0.15562500059604645,0.359375,0],"type":"VEC3"}],"materials":[{"pbrMetallicRoughness":{"metallicFactor":0,"roughnessFactor":1},"alphaMode":"MASK","alphaCutoff":0.05,"doubleSided":true},{"pbrMetallicRoughness":{"metallicFactor":0,"roughnessFactor":1},"alphaMode":"MASK","alphaCutoff":0.05,"doubleSided":true},{"pbrMetallicRoughness":{"metallicFactor":0,"roughnessFactor":1},"alphaMode":"MASK","alphaCutoff":0.05,"doubleSided":true},{"pbrMetallicRoughness":{"metallicFactor":0,"roughnessFactor":1},"alphaMode":"MASK","alphaCutoff":0.05,"doubleSided":true},{"pbrMetallicRoughness":{"metallicFactor":0,"roughnessFactor":1},"alphaMode":"MASK","alphaCutoff":0.05,"doubleSided":true}],"meshes":[{"primitives":[{"mode":4,"attributes":{"POSITION":0,"NORMAL":1,"TEXCOORD_0":2},"indices":3,"material":0}]},{"primitives":[{"mode":4,"attributes":{"POSITION":4,"NORMAL":5,"TEXCOORD_0":6},"indices":7,"material":0}]},{"primitives":[{"mode":4,"attributes":{"POSITION":8,"NORMAL":9,"TEXCOORD_0":10},"indices":11,"material":1}]},{"primitives":[{"mode":4,"attributes":{"POSITION":12,"NORMAL":13,"TEXCOORD_0":14},"indices":15,"material":0}]},{"primitives":[{"mode":4,"attributes":{"POSITION":16,"NORMAL":17,"TEXCOORD_0":18},"indices":19,"material":2}]},{"primitives":[{"mode":4,"attributes":{"POSITION":20,"NORMAL":21,"TEXCOORD_0":22},"indices":23,"material":3}]},{"primitives":[{"mode":4,"attributes":{"POSITION":24,"NORMAL":25,"TEXCOORD_0":26},"indices":27,"material":3}]},{"primitives":[{"mode":4,"attributes":{"POSITION":28,"NORMAL":29,"TEXCOORD_0":30},"indices":31,"material":2}]},{"primitives":[{"mode":4,"attributes":{"POSITION":32,"NORMAL":33,"TEXCOORD_0":34},"indices":35,"material":3}]},{"primitives":[{"mode":4,"attributes":{"POSITION":36,"NORMAL":37,"TEXCOORD_0":38},"indices":39,"material":0}]},{"primitives":[{"mode":4,"attributes":{"POSITION":40,"NORMAL":41,"TEXCOORD_0":42},"indices":43,"material":4}]},{"primitives":[{"mode":4,"attributes":{"POSITION":44,"NORMAL":45,"TEXCOORD_0":46},"indices":47,"material":3}]}],"animations":[{"name":"Shoot_Start","samplers":[{"input":48,"output":49,"interpolation":"LINEAR"},{"input":50,"output":51,"interpolation":"LINEAR"}],"channels":[{"sampler":0,"target":{"node":16,"path":"rotation"}},{"sampler":1,"target":{"node":11,"path":"rotation"}}]},{"name":"Shooting","samplers":[{"input":52,"output":53,"interpolation":"LINEAR"},{"input":54,"output":55,"interpolation":"LINEAR"}],"channels":[{"sampler":0,"target":{"node":16,"path":"rotation"}},{"sampler":1,"target":{"node":11,"path":"rotation"}}]},{"name":"Shoot_Stop","samplers":[{"input":56,"output":57,"interpolation":"LINEAR"},{"input":58,"output":59,"interpolation":"LINEAR"}],"channels":[{"sampler":0,"target":{"node":16,"path":"rotation"}},{"sampler":1,"target":{"node":11,"path":"rotation"}}]},{"name":"Reload","samplers":[{"input":60,"output":61,"interpolation":"LINEAR"},{"input":62,"output":63,"interpolation":"LINEAR"},{"input":64,"output":65,"interpolation":"LINEAR"},{"input":66,"output":67,"interpolation":"LINEAR"},{"input":68,"output":69,"interpolation":"LINEAR"},{"input":70,"output":71,"interpolation":"LINEAR"}],"channels":[{"sampler":0,"target":{"node":14,"path":"translation"}},{"sampler":1,"target":{"node":16,"path":"scale"}},{"sampler":2,"target":{"node":11,"path":"rotation"}},{"sampler":3,"target":{"node":11,"path":"translation"}},{"sampler":4,"target":{"node":17,"path":"rotation"}},{"sampler":5,"target":{"node":17,"path":"translation"}}]}]}