{"asset":{"version":"2.0","generator":"Blockbench 5.0.3 glTF exporter"},"scenes":[{"nodes":[13],"name":"blockbench_export"}],"scene":0,"nodes":[{"translation":[0.156875,0.25,0.0625],"name":"Drum","mesh":0},{"translation":[-0.5625,0.3125,0],"name":"Drum","children":[0]},{"translation":[0.156875,0.515625,0.03125],"name":"Drum Cover","mesh":1},{"translation":[-0.5625,0.109375,0],"name":"Drum_Cover","children":[2]},{"rotation":[-0.7071067811865475,0,0,0.7071067811865476],"translation":[-0.0625,-0.0625,0.25],"name":"Trigger - glow","mesh":2},{"translation":[-0.03125,0.25,0],"name":"Trigger","children":[4]},{"translation":[0.469375,0.640625,0],"name":"Stock","mesh":3},{"translation":[0.781875,0.265625,0],"name":"Stock Support","mesh":4},{"translation":[-0.030625000000000013,0.28125,0],"name":"Grip","mesh":5},{"translation":[-0.405625,0.5625,0.03125],"name":"Body","mesh":6},{"translation":[-0.561875,0.5625,0.03125],"name":"Barrel(s)","mesh":7},{"translation":[0.313125,0.53125,-0.03125],"name":"Pipe","mesh":8},{"name":"Glow","mesh":9},{"translation":[0.343125,0.359375,0],"name":"Weapon","children":[1,3,5,6,7,8,9,10,11,12]}],"bufferViews":[{"buffer":0,"byteOffset":0,"byteLength":720,"target":34962,"byteStride":12},{"buffer":0,"byteOffset":720,"byteLength":720,"target":34962,"byteStride":12},{"buffer":0,"byteOffset":1440,"byteLength":480,"target":34962,"byteStride":8},{"buffer":0,"byteOffset":1920,"byteLength":168,"target":34963},{"buffer":0,"byteOffset":2088,"byteLength":840,"target":34962,"byteStride":12},{"buffer":0,"byteOffset":2928,"byteLength":840,"target":34962,"byteStride":12},{"buffer":0,"byteOffset":3768,"byteLength":560,"target":34962,"byteStride":8},{"buffer":0,"byteOffset":4328,"byteLength":192,"target":34963},{"buffer":0,"byteOffset":4520,"byteLength":2304,"target":34962,"byteStride":12},{"buffer":0,"byteOffset":6824,"byteLength":2304,"target":34962,"byteStride":12},{"buffer":0,"byteOffset":9128,"byteLength":1536,"target":34962,"byteStride":8},{"buffer":0,"byteOffset":10664,"byteLength":576,"target":34963},{"buffer":0,"byteOffset":11240,"byteLength":528,"target":34962,"byteStride":12},{"buffer":0,"byteOffset":11768,"byteLength":528,"target":34962,"byteStride":12},{"buffer":0,"byteOffset":12296,"byteLength":352,"target":34962,"byteStride":8},{"buffer":0,"byteOffset":12648,"byteLength":132,"target":34963},{"buffer":0,"byteOffset":12780,"byteLength":672,"target":34962,"byteStride":12},{"buffer":0,"byteOffset":13452,"byteLength":672,"target":34962,"byteStride":12},{"buffer":0,"byteOffset":14124,"byteLength":448,"target":34962,"byteStride":8},{"buffer":0,"byteOffset":14572,"byteLength":168,"target":34963},{"buffer":0,"byteOffset":14740,"byteLength":1752,"target":34962,"byteStride":12},{"buffer":0,"byteOffset":16492,"byteLength":1752,"target":34962,"byteStride":12},{"buffer":0,"byteOffset":18244,"byteLength":1168,"target":34962,"byteStride":8},{"buffer":0,"byteOffset":19412,"byteLength":432,"target":34963},{"buffer":0,"byteOffset":19844,"byteLength":1440,"target":34962,"byteStride":12},{"buffer":0,"byteOffset":21284,"byteLength":1440,"target":34962,"byteStride":12},{"buffer":0,"byteOffset":22724,"byteLength":960,"target":34962,"byteStride":8},{"buffer":0,"byteOffset":23684,"byteLength":336,"target":34963},{"buffer":0,"byteOffset":24020,"byteLength":720,"target":34962,"byteStride":12},{"buffer":0,"byteOffset":24740,"byteLength":720,"target":34962,"byteStride":12},{"buffer":0,"byteOffset":25460,"byteLength":480,"target":34962,"byteStride":8},{"buffer":0,"byteOffset":25940,"byteLength":180,"target":34963},{"buffer":0,"byteOffset":26120,"byteLength":192,"target":34962,"byteStride":12},{"buffer":0,"byteOffset":26312,"byteLength":192,"target":34962,"byteStride":12},{"buffer":0,"byteOffset":26504,"byteLength":128,"target":34962,"byteStride":8},{"buffer":0,"byteOffset":26632,"byteLength":48,"target":34963},{"buffer":0,"byteOffset":26680,"byteLength":96,"target":34962,"byteStride":12},{"buffer":0,"byteOffset":26776,"byteLength":96,"target":34962,"byteStride":12},{"buffer":0,"byteOffset":26872,"byteLength":64,"target":34962,"byteStride":8},{"buffer":0,"byteOffset":26936,"byteLength":24,"target":34963},{"buffer":0,"byteOffset":26960,"byteLength":16},{"buffer":0,"byteOffset":26976,"byteLength":64},{"buffer":0,"byteOffset":27040,"byteLength":4},{"buffer":0,"byteOffset":27044,"byteLength":16},{"buffer":0,"byteOffset":27060,"byteLength":16},{"buffer":0,"byteOffset":27076,"byteLength":64},{"buffer":0,"byteOffset":27140,"byteLength":16},{"buffer":0,"byteOffset":27156,"byteLength":64},{"buffer":0,"byteOffset":27220,"byteLength":48},{"buffer":0,"byteOffset":27268,"byteLength":144},{"buffer":0,"byteOffset":27412,"byteLength":16},{"buffer":0,"byteOffset":27428,"byteLength":48},{"buffer":0,"byteOffset":27476,"byteLength":112},{"buffer":0,"byteOffset":27588,"byteLength":448},{"buffer":0,"byteOffset":28036,"byteLength":28},{"buffer":0,"byteOffset":28064,"byteLength":84}],"buffers":[{"byteLength":28148,"uri":"data:application/octet-stream;base64,"}],"accessors":[{"bufferView":0,"componentType":5126,"count":60,"max":[0.0361516959965229,-0.0575983040034771,0],"min":[-0.3486517071723938,-0.4424017071723938,-0.125],"type":"VEC3"},{"bufferView":1,"componentType":5126,"count":60,"max":[0.9238795042037964,0.9238795042037964,1],"min":[-0.9238795042037964,-0.9238795042037964,-1],"type":"VEC3"},{"bufferView":2,"componentType":5126,"count":60,"max":[0.384799987077713,0.14726251363754272],"min":[0,0],"type":"VEC2"},{"bufferView":3,"componentType":5123,"count":84,"max":[59],"min":[0],"type":"SCALAR"},{"bufferView":4,"componentType":5126,"count":70,"max":[0.0625,-0.3125,0.0625],"min":[-0.375,-0.515625,-0.125],"type":"VEC3"},{"bufferView":5,"componentType":5126,"count":70,"max":[1,1,1],"min":[-1,-1,-1],"type":"VEC3"},{"bufferView":6,"componentType":5126,"count":70,"max":[0.34375,0.25],"min":[0,0],"type":"VEC2"},{"bufferView":7,"componentType":5123,"count":96,"max":[69],"min":[0],"type":"SCALAR"},{"bufferView":8,"componentType":5126,"count":192,"max":[0.046875,0.2593750059604645,0.046875],"min":[-0.046875,0.24062499403953552,-0.046875],"type":"VEC3"},{"bufferView":9,"componentType":5126,"count":192,"max":[1,1,1],"min":[-1,-1,-1],"type":"VEC3"},{"bufferView":10,"componentType":5126,"count":192,"max":[0.26794999837875366,0.5],"min":[0,0],"type":"VEC2"},{"bufferView":11,"componentType":5123,"count":288,"max":[191],"min":[0],"type":"SCALAR"},{"bufferView":12,"componentType":5126,"count":44,"max":[0.46875,-0.015625,0.0625],"min":[-0.08749999850988388,-0.265625,-0.0625],"type":"VEC3"},{"bufferView":13,"componentType":5126,"count":44,"max":[1,1,1],"min":[-0.9014649391174316,-1,-1],"type":"VEC3"},{"bufferView":14,"componentType":5126,"count":44,"max":[0.75,0.3125],"min":[0,0],"type":"VEC2"},{"bufferView":15,"componentType":5123,"count":66,"max":[43],"min":[0],"type":"SCALAR"},{"bufferView":16,"componentType":5126,"count":56,"max":[0.0625,0.20624999701976776,0.03125],"min":[-0.71875,-0.09375,-0.03125],"type":"VEC3"},{"bufferView":17,"componentType":5126,"count":56,"max":[1,1,1],"min":[-1,-1,-1],"type":"VEC3"},{"bufferView":18,"componentType":5126,"count":56,"max":[0.78125,0.3125],"min":[0,0],"type":"VEC2"},{"bufferView":19,"componentType":5123,"count":84,"max":[55],"min":[0],"type":"SCALAR"},{"bufferView":20,"componentType":5126,"count":146,"max":[0.375,0.390625,0.078125],"min":[-0.34375,-0.234375,-0.078125],"type":"VEC3"},{"bufferView":21,"componentType":5126,"count":146,"max":[1,1,1],"min":[-0.8422713875770569,-1,-1],"type":"VEC3"},{"bufferView":22,"componentType":5126,"count":146,"max":[0.5,0.4856339693069458],"min":[0,0],"type":"VEC2"},{"bufferView":23,"componentType":5123,"count":216,"max":[145],"min":[0],"type":"SCALAR"},{"bufferView":24,"componentType":5126,"count":120,"max":[0.3125,0.15937499701976776,0.0625],"min":[-0.765625,-0.25,-0.125],"type":"VEC3"},{"bufferView":25,"componentType":5126,"count":120,"max":[0.8320503234863281,1,1],"min":[-0.8137334585189819,-1,-1],"type":"VEC3"},{"bufferView":26,"componentType":5126,"count":120,"max":[0.828125,0.4388437271118164],"min":[0,0],"type":"VEC2"},{"bufferView":27,"componentType":5123,"count":168,"max":[119],"min":[0],"type":"SCALAR"},{"bufferView":28,"componentType":5126,"count":60,"max":[-0.1875,0.109375,0.015625],"min":[-1.2062499523162842,-0.234375,-0.078125],"type":"VEC3"},{"bufferView":29,"componentType":5126,"count":60,"max":[0,1,1],"min":[-0.8106792569160461,-1,-1],"type":"VEC3"},{"bufferView":30,"componentType":5126,"count":60,"max":[0.9375,0.34375],"min":[0,0],"type":"VEC2"},{"bufferView":31,"componentType":5123,"count":90,"max":[59],"min":[0],"type":"SCALAR"},{"bufferView":32,"componentType":5126,"count":16,"max":[0.140625,0.0625,0.0625],"min":[-0.140625,0,0],"type":"VEC3"},{"bufferView":33,"componentType":5126,"count":16,"max":[0,1,1],"min":[0,-1,-1],"type":"VEC3"},{"bufferView":34,"componentType":5126,"count":16,"max":[0.28125,0.0625],"min":[0,0],"type":"VEC2"},{"bufferView":35,"componentType":5123,"count":24,"max":[15],"min":[0],"type":"SCALAR"},{"bufferView":36,"componentType":5126,"count":8,"max":[0.15625,0.640625,0.0625],"min":[-0.1875,0.484375,-0.0625],"type":"VEC3"},{"bufferView":37,"componentType":5126,"count":8,"max":[0,0,1],"min":[0,0,-1],"type":"VEC3"},{"bufferView":38,"componentType":5126,"count":8,"max":[0.34375,0.15625],"min":[0,0],"type":"VEC2"},{"bufferView":39,"componentType":5123,"count":12,"max":[7],"min":[0],"type":"SCALAR"},{"bufferView":40,"componentType":5126,"count":4,"max":[0.125],"min":[0],"type":"SCALAR"},{"bufferView":41,"componentType":5126,"count":4,"max":[0,0,0.1736481785774231,1],"min":[0,0,0,0.9848077297210693],"type":"VEC4"},{"bufferView":42,"componentType":5126,"count":1,"max":[0],"min":[0],"type":"SCALAR"},{"bufferView":43,"componentType":5126,"count":1,"max":[0,0,0.1736481785774231,0.9848077297210693],"min":[0,0,0.1736481785774231,0.9848077297210693],"type":"VEC4"},{"bufferView":44,"componentType":5126,"count":4,"max":[0.5],"min":[0],"type":"SCALAR"},{"bufferView":45,"componentType":5126,"count":4,"max":[0,0,0.8660253882408142,1],"min":[0,0,0,-1],"type":"VEC4"},{"bufferView":46,"componentType":5126,"count":4,"max":[0.125],"min":[0],"type":"SCALAR"},{"bufferView":47,"componentType":5126,"count":4,"max":[0,0,0.1736481785774231,1],"min":[0,0,0,0.9848077297210693],"type":"VEC4"},{"bufferView":48,"componentType":5126,"count":12,"max":[2.2083332538604736],"min":[0],"type":"SCALAR"},{"bufferView":49,"componentType":5126,"count":12,"max":[-0.5625,0.109375,0],"min":[-0.5625,-0.078125,0],"type":"VEC3"},{"bufferView":50,"componentType":5126,"count":4,"max":[2.25],"min":[0],"type":"SCALAR"},{"bufferView":51,"componentType":5126,"count":4,"max":[1,1,1],"min":[0,0,0],"type":"VEC3"},{"bufferView":52,"componentType":5126,"count":28,"max":[1.75],"min":[0],"type":"SCALAR"},{"bufferView":53,"componentType":5126,"count":28,"max":[0,0,1,1],"min":[0,0,-0.9680556654930115,-0.9680556654930115],"type":"VEC4"},{"bufferView":54,"componentType":5126,"count":7,"max":[2.2083332538604736],"min":[0],"type":"SCALAR"},{"bufferView":55,"componentType":5126,"count":7,"max":[-0.5625,0.3125,0],"min":[-0.5625,0.21875,0],"type":"VEC3"}],"materials":[{"pbrMetallicRoughness":{"metallicFactor":0,"roughnessFactor":1},"alphaMode":"MASK","alphaCutoff":0.05,"doubleSided":true},{"pbrMetallicRoughness":{"metallicFactor":0,"roughnessFactor":1},"alphaMode":"MASK","alphaCutoff":0.05,"doubleSided":true},{"pbrMetallicRoughness":{"metallicFactor":0,"roughnessFactor":1},"alphaMode":"MASK","alphaCutoff":0.05,"doubleSided":true}],"meshes":[{"primitives":[{"mode":4,"attributes":{"POSITION":0,"NORMAL":1,"TEXCOORD_0":2},"indices":3,"material":0}]},{"primitives":[{"mode":4,"attributes":{"POSITION":4,"NORMAL":5,"TEXCOORD_0":6},"indices":7,"material":1}]},{"primitives":[{"mode":4,"attributes":{"POSITION":8,"NORMAL":9,"TEXCOORD_0":10},"indices":11,"material":2}]},{"primitives":[{"mode":4,"attributes":{"POSITION":12,"NORMAL":13,"TEXCOORD_0":14},"indices":15,"material":1}]},{"primitives":[{"mode":4,"attributes":{"POSITION":16,"NORMAL":17,"TEXCOORD_0":18},"indices":19,"material":0}]},{"primitives":[{"mode":4,"attributes":{"POSITION":20,"NORMAL":21,"TEXCOORD_0":22},"indices":23,"material":1}]},{"primitives":[{"mode":4,"attributes":{"POSITION":24,"NORMAL":25,"TEXCOORD_0":26},"indices":27,"material":1}]},{"primitives":[{"mode":4,"attributes":{"POSITION":28,"NORMAL":29,"TEXCOORD_0":30},"indices":31,"material":0}]},{"primitives":[{"mode":4,"attributes":{"POSITION":32,"NORMAL":33,"TEXCOORD_0":34},"indices":35,"material":0}]},{"primitives":[{"mode":4,"attributes":{"POSITION":36,"NORMAL":37,"TEXCOORD_0":38},"indices":39,"material":2}]}],"animations":[{"name":"Shoot_Start","samplers":[{"input":40,"output":41,"interpolation":"LINEAR"}],"channels":[{"sampler":0,"target":{"node":5,"path":"rotation"}}]},{"name":"Shooting","samplers":[{"input":42,"output":43,"interpolation":"LINEAR"},{"input":44,"output":45,"interpolation":"LINEAR"}],"channels":[{"sampler":0,"target":{"node":5,"path":"rotation"}},{"sampler":1,"target":{"node":1,"path":"rotation"}}]},{"name":"Shoot_Stop","samplers":[{"input":46,"output":47,"interpolation":"LINEAR"}],"channels":[{"sampler":0,"target":{"node":5,"path":"rotation"}}]},{"name":"Reload","samplers":[{"input":48,"output":49,"interpolation":"LINEAR"},{"input":50,"output":51,"interpolation":"LINEAR"},{"input":52,"output":53,"interpolation":"LINEAR"},{"input":54,"output":55,"interpolation":"LINEAR"}],"channels":[{"sampler":0,"target":{"node":3,"path":"translation"}},{"sampler":1,"target":{"node":5,"path":"scale"}},{"sampler":2,"target":{"node":1,"path":"rotation"}},{"sampler":3,"target":{"node":1,"path":"translation"}}]}]}