{"asset":{"version":"2.0","generator":"Blockbench 5.0.7 glTF exporter"},"scenes":[{"nodes":[18],"name":"blockbench_export"}],"scene":0,"nodes":[{"rotation":[0,0,0.043619387365336,0.9990482215818578],"translation":[0.11937500000000001,0.08437499999999998,0.015625],"name":"Decoration - glow","mesh":0},{"translation":[-0.405625,0.21875,0.5],"name":"Underside","mesh":1},{"translation":[-0.08687500000000004,-0.01874999999999999,0.046875],"name":"Grip","mesh":2},{"translation":[-0.405625,0.21875,0.5],"name":"Handle","mesh":3},{"translation":[-1.0775000000000001,0.234375,0],"scale":[0.033861386138613864,0.033861386138613864,0.033861386138613864],"name":"Muzzle Flash Point"},{"translation":[0.17874999999999996,-0.09375,-0.375],"name":"Slide","mesh":4},{"rotation":[-0.7071067811865475,0,0,0.7071067811865476],"translation":[0.235,-0.03437499999999999,0.3875],"name":"Base","mesh":5},{"rotation":[-0.7071067811865475,0,0,0.7071067811865476],"translation":[0.26625,-0.03437499999999999,0.49375],"name":"Magazine - glow","mesh":6},{"rotation":[-0.7071067811865475,0,0,0.7071067811865476],"translation":[0.26625,-0.03437499999999999,0.49375],"name":"Cap","mesh":7},{"rotation":[-0.7071067811865475,0,0,0.7071067811865476],"translation":[0.26625,-0.03437499999999999,0.4125],"name":"Cap","mesh":8},{"rotation":[-0.7071067811865475,0,0,0.7071067811865476],"translation":[0.26625,-0.03437499999999999,0.4125],"name":"Magazine - glow","mesh":9},{"name":"Magazine","children":[7,8,9,10]},{"translation":[-0.890625,0.11562499999999998,0],"name":"Slide","children":[5,6,11]},{"rotation":[0,0,0.19509032201612825,0.9807852804032304],"translation":[-0.030625000000000013,-0.04375000000000001,0.0625],"name":"Trigger - glow","mesh":10},{"translation":[-0.046875,0,0],"name":"Trigger","children":[13]},{"translation":[0.5875,0.16875,0.5],"name":"Barrel","mesh":11},{"translation":[0.19687500000000002,-0.20625,0],"name":"Vent - glow","mesh":12},{"translation":[-0.993125,0.11249999999999999,0],"name":"Barrel","children":[15,16]},{"translation":[0.343125,0.359375,0],"name":"Weapon","children":[0,1,2,3,4,12,14,17]}],"bufferViews":[{"buffer":0,"byteOffset":0,"byteLength":672,"target":34962,"byteStride":12},{"buffer":0,"byteOffset":672,"byteLength":672,"target":34962,"byteStride":12},{"buffer":0,"byteOffset":1344,"byteLength":448,"target":34962,"byteStride":8},{"buffer":0,"byteOffset":1792,"byteLength":144,"target":34963},{"buffer":0,"byteOffset":1936,"byteLength":1656,"target":34962,"byteStride":12},{"buffer":0,"byteOffset":3592,"byteLength":1656,"target":34962,"byteStride":12},{"buffer":0,"byteOffset":5248,"byteLength":1104,"target":34962,"byteStride":8},{"buffer":0,"byteOffset":6352,"byteLength":396,"target":34963},{"buffer":0,"byteOffset":6748,"byteLength":288,"target":34962,"byteStride":12},{"buffer":0,"byteOffset":7036,"byteLength":288,"target":34962,"byteStride":12},{"buffer":0,"byteOffset":7324,"byteLength":192,"target":34962,"byteStride":8},{"buffer":0,"byteOffset":7516,"byteLength":72,"target":34963},{"buffer":0,"byteOffset":7588,"byteLength":792,"target":34962,"byteStride":12},{"buffer":0,"byteOffset":8380,"byteLength":792,"target":34962,"byteStride":12},{"buffer":0,"byteOffset":9172,"byteLength":528,"target":34962,"byteStride":8},{"buffer":0,"byteOffset":9700,"byteLength":192,"target":34963},{"buffer":0,"byteOffset":9892,"byteLength":432,"target":34962,"byteStride":12},{"buffer":0,"byteOffset":10324,"byteLength":432,"target":34962,"byteStride":12},{"buffer":0,"byteOffset":10756,"byteLength":288,"target":34962,"byteStride":8},{"buffer":0,"byteOffset":11044,"byteLength":108,"target":34963},{"buffer":0,"byteOffset":11152,"byteLength":240,"target":34962,"byteStride":12},{"buffer":0,"byteOffset":11392,"byteLength":240,"target":34962,"byteStride":12},{"buffer":0,"byteOffset":11632,"byteLength":160,"target":34962,"byteStride":8},{"buffer":0,"byteOffset":11792,"byteLength":60,"target":34963},{"buffer":0,"byteOffset":11852,"byteLength":240,"target":34962,"byteStride":12},{"buffer":0,"byteOffset":12092,"byteLength":240,"target":34962,"byteStride":12},{"buffer":0,"byteOffset":12332,"byteLength":160,"target":34962,"byteStride":8},{"buffer":0,"byteOffset":12492,"byteLength":60,"target":34963},{"buffer":0,"byteOffset":12552,"byteLength":408,"target":34962,"byteStride":12},{"buffer":0,"byteOffset":12960,"byteLength":408,"target":34962,"byteStride":12},{"buffer":0,"byteOffset":13368,"byteLength":272,"target":34962,"byteStride":8},{"buffer":0,"byteOffset":13640,"byteLength":96,"target":34963},{"buffer":0,"byteOffset":13736,"byteLength":408,"target":34962,"byteStride":12},{"buffer":0,"byteOffset":14144,"byteLength":408,"target":34962,"byteStride":12},{"buffer":0,"byteOffset":14552,"byteLength":272,"target":34962,"byteStride":8},{"buffer":0,"byteOffset":14824,"byteLength":96,"target":34963},{"buffer":0,"byteOffset":14920,"byteLength":240,"target":34962,"byteStride":12},{"buffer":0,"byteOffset":15160,"byteLength":240,"target":34962,"byteStride":12},{"buffer":0,"byteOffset":15400,"byteLength":160,"target":34962,"byteStride":8},{"buffer":0,"byteOffset":15560,"byteLength":60,"target":34963},{"buffer":0,"byteOffset":15620,"byteLength":600,"target":34962,"byteStride":12},{"buffer":0,"byteOffset":16220,"byteLength":600,"target":34962,"byteStride":12},{"buffer":0,"byteOffset":16820,"byteLength":400,"target":34962,"byteStride":8},{"buffer":0,"byteOffset":17220,"byteLength":144,"target":34963},{"buffer":0,"byteOffset":17364,"byteLength":2160,"target":34962,"byteStride":12},{"buffer":0,"byteOffset":19524,"byteLength":2160,"target":34962,"byteStride":12},{"buffer":0,"byteOffset":21684,"byteLength":1440,"target":34962,"byteStride":8},{"buffer":0,"byteOffset":23124,"byteLength":540,"target":34963},{"buffer":0,"byteOffset":23664,"byteLength":144,"target":34962,"byteStride":12},{"buffer":0,"byteOffset":23808,"byteLength":144,"target":34962,"byteStride":12},{"buffer":0,"byteOffset":23952,"byteLength":96,"target":34962,"byteStride":8},{"buffer":0,"byteOffset":24048,"byteLength":36,"target":34963},{"buffer":0,"byteOffset":24084,"byteLength":24},{"buffer":0,"byteOffset":24108,"byteLength":96},{"buffer":0,"byteOffset":24204,"byteLength":24},{"buffer":0,"byteOffset":24228,"byteLength":72},{"buffer":0,"byteOffset":24300,"byteLength":156},{"buffer":0,"byteOffset":24456,"byteLength":624},{"buffer":0,"byteOffset":25080,"byteLength":164},{"buffer":0,"byteOffset":25244,"byteLength":492},{"buffer":0,"byteOffset":25736,"byteLength":48},{"buffer":0,"byteOffset":25784,"byteLength":192},{"buffer":0,"byteOffset":25976,"byteLength":16},{"buffer":0,"byteOffset":25992,"byteLength":48},{"buffer":0,"byteOffset":26040,"byteLength":44},{"buffer":0,"byteOffset":26084,"byteLength":176},{"buffer":0,"byteOffset":26260,"byteLength":40},{"buffer":0,"byteOffset":26300,"byteLength":120},{"buffer":0,"byteOffset":26420,"byteLength":56},{"buffer":0,"byteOffset":26476,"byteLength":168}],"buffers":[{"byteLength":26644,"uri":"data:application/octet-stream;base64,"}],"accessors":[{"bufferView":0,"componentType":5126,"count":56,"max":[0.03125,0.125,0.08437500149011612],"min":[-0.03125,0.0625,-0.11562500149011612],"type":"VEC3"},{"bufferView":1,"componentType":5126,"count":56,"max":[0.7071067690849304,0.7071067690849304,1],"min":[-0.7071067690849304,-0.7071067690849304,-1],"type":"VEC3"},{"bufferView":2,"componentType":5126,"count":56,"max":[0.0625,0.0625],"min":[0,0],"type":"VEC2"},{"bufferView":3,"componentType":5123,"count":72,"max":[55],"min":[0],"type":"SCALAR"},{"bufferView":4,"componentType":5126,"count":138,"max":[0.9749956130981445,0.11379062384366989,-0.4312500059604645],"min":[-0.5845812559127808,-0.4454193711280823,-0.5687500238418579],"type":"VEC3"},{"bufferView":5,"componentType":5126,"count":138,"max":[1,1,1],"min":[-1,-1,-1],"type":"VEC3"},{"bufferView":6,"componentType":5126,"count":138,"max":[0.9063624739646912,0.8144562244415283],"min":[0,0],"type":"VEC2"},{"bufferView":7,"componentType":5123,"count":198,"max":[137],"min":[0],"type":"SCALAR"},{"bufferView":8,"componentType":5126,"count":24,"max":[0.5229074954986572,0.11445625126361847,0.03125],"min":[0.07920937240123749,-0.1565168797969818,-0.125],"type":"VEC3"},{"bufferView":9,"componentType":5126,"count":24,"max":[0.6212623715400696,0.9999639987945557,1],"min":[0,0,0],"type":"VEC3"},{"bufferView":10,"componentType":5126,"count":24,"max":[0.2239537537097931,0.2718750238418579],"min":[0,0],"type":"VEC2"},{"bufferView":11,"componentType":5123,"count":36,"max":[23],"min":[0],"type":"SCALAR"},{"bufferView":12,"componentType":5126,"count":66,"max":[0.9071118831634521,0.04084499925374985,-0.40625],"min":[0.3207206130027771,-0.4299262464046478,-0.59375],"type":"VEC3"},{"bufferView":13,"componentType":5126,"count":66,"max":[0.768202543258667,0.7836019992828369,1],"min":[-0.7682026028633118,-0.9999639987945557,0],"type":"VEC3"},{"bufferView":14,"componentType":5126,"count":66,"max":[0.2898106276988983,0.5133625268936157],"min":[0,0],"type":"VEC2"},{"bufferView":15,"componentType":5123,"count":96,"max":[65],"min":[0],"type":"SCALAR"},{"bufferView":16,"componentType":5126,"count":36,"max":[0.19206750392913818,0.13750000298023224,0.4781250059604645],"min":[-0.17812499403953552,-0.01875000074505806,0.2718749940395355],"type":"VEC3"},{"bufferView":17,"componentType":5126,"count":36,"max":[1,1,1],"min":[-1,-1,-1],"type":"VEC3"},{"bufferView":18,"componentType":5126,"count":36,"max":[0.370193749666214,0.20625001192092896],"min":[0,0],"type":"VEC2"},{"bufferView":19,"componentType":5123,"count":54,"max":[35],"min":[0],"type":"SCALAR"},{"bufferView":20,"componentType":5126,"count":20,"max":[0.16562500596046448,0.4749999940395355,0.046875],"min":[0.125,0.30000001192092896,-0.046875],"type":"VEC3"},{"bufferView":21,"componentType":5126,"count":20,"max":[1,0.9883716702461243,0.9883716702461243],"min":[0.15205718576908112,-0.9883716702461243,-0.9883716702461243],"type":"VEC3"},{"bufferView":22,"componentType":5126,"count":20,"max":[0.09375,0.1812499761581421],"min":[0,0],"type":"VEC2"},{"bufferView":23,"componentType":5123,"count":30,"max":[19],"min":[0],"type":"SCALAR"},{"bufferView":24,"componentType":5126,"count":20,"max":[0.13437500596046448,0.484375,0.03125],"min":[-0.20937499403953552,0.421875,-0.03125],"type":"VEC3"},{"bufferView":25,"componentType":5126,"count":20,"max":[1,1,1],"min":[0,-1,-1],"type":"VEC3"},{"bufferView":26,"componentType":5126,"count":20,"max":[0.4375,0.125],"min":[0,0],"type":"VEC2"},{"bufferView":27,"componentType":5123,"count":30,"max":[19],"min":[0],"type":"SCALAR"},{"bufferView":28,"componentType":5126,"count":34,"max":[0.16500000655651093,0.4937500059604645,0.04062499850988388],"min":[0.08687499910593033,0.4124999940395355,-0.04062499850988388],"type":"VEC3"},{"bufferView":29,"componentType":5126,"count":34,"max":[1,1,0.9731854200363159],"min":[-0.8661856055259705,-1,-1],"type":"VEC3"},{"bufferView":30,"componentType":5126,"count":34,"max":[0.13750000298023224,0.13749998807907104],"min":[0,0],"type":"VEC2"},{"bufferView":31,"componentType":5123,"count":48,"max":[33],"min":[0],"type":"SCALAR"},{"bufferView":32,"componentType":5126,"count":34,"max":[0.16500000655651093,0.4937500059604645,0.04062499850988388],"min":[0.08687499910593033,0.4124999940395355,-0.04062499850988388],"type":"VEC3"},{"bufferView":33,"componentType":5126,"count":34,"max":[1,1,0.9731854200363159],"min":[-0.8661856055259705,-1,-1],"type":"VEC3"},{"bufferView":34,"componentType":5126,"count":34,"max":[0.13750000298023224,0.13749998807907104],"min":[0,0],"type":"VEC2"},{"bufferView":35,"componentType":5123,"count":48,"max":[33],"min":[0],"type":"SCALAR"},{"bufferView":36,"componentType":5126,"count":20,"max":[0.13437500596046448,0.484375,0.03125],"min":[-0.20937499403953552,0.421875,-0.03125],"type":"VEC3"},{"bufferView":37,"componentType":5126,"count":20,"max":[1,1,1],"min":[0,-1,-1],"type":"VEC3"},{"bufferView":38,"componentType":5126,"count":20,"max":[0.4375,0.125],"min":[0,0],"type":"VEC2"},{"bufferView":39,"componentType":5123,"count":30,"max":[19],"min":[0],"type":"SCALAR"},{"bufferView":40,"componentType":5126,"count":50,"max":[0.03314562514424324,0.0625,-0.0546875],"min":[-0.015625,-0.04419437423348427,-0.0703125],"type":"VEC3"},{"bufferView":41,"componentType":5126,"count":50,"max":[1,1,1],"min":[-1,-0.7071067690849304,-1],"type":"VEC3"},{"bufferView":42,"componentType":5126,"count":50,"max":[0.046876873821020126,0.0625],"min":[0,0],"type":"VEC2"},{"bufferView":43,"componentType":5123,"count":72,"max":[49],"min":[0],"type":"SCALAR"},{"bufferView":44,"componentType":5126,"count":180,"max":[0.4867456257343292,0.05338750034570694,-0.34375],"min":[-0.6784893870353699,-0.16754500567913055,-0.65625],"type":"VEC3"},{"bufferView":45,"componentType":5126,"count":180,"max":[0.9999969601631165,1,1],"min":[-1,-1,-1],"type":"VEC3"},{"bufferView":46,"componentType":5126,"count":180,"max":[0.9375374913215637,0.3125],"min":[0,0],"type":"VEC2"},{"bufferView":47,"componentType":5123,"count":270,"max":[179],"min":[0],"type":"SCALAR"},{"bufferView":48,"componentType":5126,"count":12,"max":[-0.09375,0.4129543602466583,0.15000000596046448],"min":[-0.2566143870353699,0.22327187657356262,-0.15000000596046448],"type":"VEC3"},{"bufferView":49,"componentType":5126,"count":12,"max":[0,0.0016540775541216135,1],"min":[-0.9999986290931702,0,-1],"type":"VEC3"},{"bufferView":50,"componentType":5126,"count":12,"max":[0.27777498960494995,0.18968123197555542],"min":[0,0],"type":"VEC2"},{"bufferView":51,"componentType":5123,"count":18,"max":[11],"min":[0],"type":"SCALAR"},{"bufferView":52,"componentType":5126,"count":6,"max":[0.2916699945926666],"min":[0],"type":"SCALAR"},{"bufferView":53,"componentType":5126,"count":6,"max":[0,0,0.13052618503570557,1],"min":[0,0,0,0.9914448857307434],"type":"VEC4"},{"bufferView":54,"componentType":5126,"count":6,"max":[0.2916699945926666],"min":[0],"type":"SCALAR"},{"bufferView":55,"componentType":5126,"count":6,"max":[-0.046875,0.012500000186264515,0],"min":[-0.046875,0,0],"type":"VEC3"},{"bufferView":56,"componentType":5126,"count":39,"max":[2],"min":[0],"type":"SCALAR"},{"bufferView":57,"componentType":5126,"count":39,"max":[0,0,0.9997215867042542,1],"min":[0,0,-0.9985769391059875,-0.9999801516532898],"type":"VEC4"},{"bufferView":58,"componentType":5126,"count":41,"max":[2.2083332538604736],"min":[0],"type":"SCALAR"},{"bufferView":59,"componentType":5126,"count":41,"max":[0.35112500190734863,3.484375,0],"min":[-0.09437499940395355,-0.015625,0],"type":"VEC3"},{"bufferView":60,"componentType":5126,"count":12,"max":[1.5833300352096558],"min":[0],"type":"SCALAR"},{"bufferView":61,"componentType":5126,"count":12,"max":[0,0,0,1],"min":[0,0,-0.2712842524051666,0.9624992609024048],"type":"VEC4"},{"bufferView":62,"componentType":5126,"count":4,"max":[1.5416699647903442],"min":[0.16666999459266663],"type":"SCALAR"},{"bufferView":63,"componentType":5126,"count":4,"max":[1,1,1],"min":[0,0,0],"type":"VEC3"},{"bufferView":64,"componentType":5126,"count":11,"max":[1.5833300352096558],"min":[0],"type":"SCALAR"},{"bufferView":65,"componentType":5126,"count":11,"max":[0,0,0,1],"min":[0,0,-0.3826834261417389,0.9238795042037964],"type":"VEC4"},{"bufferView":66,"componentType":5126,"count":10,"max":[1.5833300352096558],"min":[0],"type":"SCALAR"},{"bufferView":67,"componentType":5126,"count":10,"max":[0.34312498569488525,0.359375,0],"min":[0.15562500059604645,0.25,0],"type":"VEC3"},{"bufferView":68,"componentType":5126,"count":14,"max":[1.375],"min":[0],"type":"SCALAR"},{"bufferView":69,"componentType":5126,"count":14,"max":[0.34375,0,0],"min":[0,0,0],"type":"VEC3"}],"materials":[{"pbrMetallicRoughness":{"metallicFactor":0,"roughnessFactor":1},"alphaMode":"MASK","alphaCutoff":0.05,"doubleSided":true},{"pbrMetallicRoughness":{"metallicFactor":0,"roughnessFactor":1},"alphaMode":"MASK","alphaCutoff":0.05,"doubleSided":true},{"pbrMetallicRoughness":{"metallicFactor":0,"roughnessFactor":1},"alphaMode":"MASK","alphaCutoff":0.05,"doubleSided":true},{"pbrMetallicRoughness":{"metallicFactor":0,"roughnessFactor":1},"alphaMode":"MASK","alphaCutoff":0.05,"doubleSided":true}],"meshes":[{"primitives":[{"mode":4,"attributes":{"POSITION":0,"NORMAL":1,"TEXCOORD_0":2},"indices":3,"material":0}]},{"primitives":[{"mode":4,"attributes":{"POSITION":4,"NORMAL":5,"TEXCOORD_0":6},"indices":7,"material":1}]},{"primitives":[{"mode":4,"attributes":{"POSITION":8,"NORMAL":9,"TEXCOORD_0":10},"indices":11,"material":2}]},{"primitives":[{"mode":4,"attributes":{"POSITION":12,"NORMAL":13,"TEXCOORD_0":14},"indices":15,"material":3}]},{"primitives":[{"mode":4,"attributes":{"POSITION":16,"NORMAL":17,"TEXCOORD_0":18},"indices":19,"material":3}]},{"primitives":[{"mode":4,"attributes":{"POSITION":20,"NORMAL":21,"TEXCOORD_0":22},"indices":23,"material":1}]},{"primitives":[{"mode":4,"attributes":{"POSITION":24,"NORMAL":25,"TEXCOORD_0":26},"indices":27,"material":0}]},{"primitives":[{"mode":4,"attributes":{"POSITION":28,"NORMAL":29,"TEXCOORD_0":30},"indices":31,"material":1}]},{"primitives":[{"mode":4,"attributes":{"POSITION":32,"NORMAL":33,"TEXCOORD_0":34},"indices":35,"material":1}]},{"primitives":[{"mode":4,"attributes":{"POSITION":36,"NORMAL":37,"TEXCOORD_0":38},"indices":39,"material":0}]},{"primitives":[{"mode":4,"attributes":{"POSITION":40,"NORMAL":41,"TEXCOORD_0":42},"indices":43,"material":0}]},{"primitives":[{"mode":4,"attributes":{"POSITION":44,"NORMAL":45,"TEXCOORD_0":46},"indices":47,"material":3}]},{"primitives":[{"mode":4,"attributes":{"POSITION":48,"NORMAL":49,"TEXCOORD_0":50},"indices":51,"material":0}]}],"animations":[{"name":"Shoot","samplers":[{"input":52,"output":53,"interpolation":"LINEAR"},{"input":54,"output":55,"interpolation":"LINEAR"}],"channels":[{"sampler":0,"target":{"node":14,"path":"rotation"}},{"sampler":1,"target":{"node":14,"path":"translation"}}]},{"name":"Inspect","samplers":[{"input":56,"output":57,"interpolation":"LINEAR"},{"input":58,"output":59,"interpolation":"LINEAR"}],"channels":[{"sampler":0,"target":{"node":18,"path":"rotation"}},{"sampler":1,"target":{"node":18,"path":"translation"}}]},{"name":"Reload","samplers":[{"input":60,"output":61,"interpolation":"LINEAR"},{"input":62,"output":63,"interpolation":"LINEAR"},{"input":64,"output":65,"interpolation":"LINEAR"},{"input":66,"output":67,"interpolation":"LINEAR"},{"input":68,"output":69,"interpolation":"LINEAR"}],"channels":[{"sampler":0,"target":{"node":12,"path":"rotation"}},{"sampler":1,"target":{"node":14,"path":"scale"}},{"sampler":2,"target":{"node":18,"path":"rotation"}},{"sampler":3,"target":{"node":18,"path":"translation"}},{"sampler":4,"target":{"node":11,"path":"translation"}}]}]}