{"asset":{"version":"2.0","generator":"Blockbench 5.0.3 glTF exporter"},"scenes":[{"nodes":[13],"name":"blockbench_export"}],"scene":0,"nodes":[{"translation":[0.32875,-0.1875,0],"name":"Slide","mesh":0},{"translation":[0.10999999999999999,0.015625,0],"name":"Decoration - glow","mesh":1},{"translation":[-0.796875,0.21875,0],"name":"Slide","children":[0,1]},{"translation":[0.259375,0,0],"name":"Glowstick - glow","mesh":2},{"translation":[0.540625,0,0],"name":"Cap","mesh":3},{"translation":[-0.28125,0.203125,0],"name":"Magazine","children":[3,4]},{"rotation":[0,0,0.19509032201612825,0.9807852804032304],"translation":[-0.015000000000000013,-0.028124999999999956,0.0625],"name":"Trigger - glow","mesh":4},{"translation":[-0.15625,0.109375,0],"name":"Trigger","children":[6]},{"translation":[-0.46875,0.015625,0],"name":"Base","mesh":5},{"translation":[-0.024375000000000036,-0.03125,0],"name":"Grip","mesh":6},{"translation":[-0.79625,0.203125,0],"name":"Barrel - glow","mesh":7},{"translation":[-0.46875,0.015625,0],"name":"Handle","mesh":8},{"translation":[-0.46875,0.015625,0],"name":"Decoration - glow","mesh":9},{"translation":[0.343125,0.359375,0],"name":"Weapon","children":[2,5,7,8,9,10,11,12]}],"bufferViews":[{"buffer":0,"byteOffset":0,"byteLength":1056,"target":34962,"byteStride":12},{"buffer":0,"byteOffset":1056,"byteLength":1056,"target":34962,"byteStride":12},{"buffer":0,"byteOffset":2112,"byteLength":704,"target":34962,"byteStride":8},{"buffer":0,"byteOffset":2816,"byteLength":264,"target":34963},{"buffer":0,"byteOffset":3080,"byteLength":672,"target":34962,"byteStride":12},{"buffer":0,"byteOffset":3752,"byteLength":672,"target":34962,"byteStride":12},{"buffer":0,"byteOffset":4424,"byteLength":448,"target":34962,"byteStride":8},{"buffer":0,"byteOffset":4872,"byteLength":144,"target":34963},{"buffer":0,"byteOffset":5016,"byteLength":240,"target":34962,"byteStride":12},{"buffer":0,"byteOffset":5256,"byteLength":240,"target":34962,"byteStride":12},{"buffer":0,"byteOffset":5496,"byteLength":160,"target":34962,"byteStride":8},{"buffer":0,"byteOffset":5656,"byteLength":60,"target":34963},{"buffer":0,"byteOffset":5716,"byteLength":408,"target":34962,"byteStride":12},{"buffer":0,"byteOffset":6124,"byteLength":408,"target":34962,"byteStride":12},{"buffer":0,"byteOffset":6532,"byteLength":272,"target":34962,"byteStride":8},{"buffer":0,"byteOffset":6804,"byteLength":96,"target":34963},{"buffer":0,"byteOffset":6900,"byteLength":600,"target":34962,"byteStride":12},{"buffer":0,"byteOffset":7500,"byteLength":600,"target":34962,"byteStride":12},{"buffer":0,"byteOffset":8100,"byteLength":400,"target":34962,"byteStride":8},{"buffer":0,"byteOffset":8500,"byteLength":144,"target":34963},{"buffer":0,"byteOffset":8644,"byteLength":2256,"target":34962,"byteStride":12},{"buffer":0,"byteOffset":10900,"byteLength":2256,"target":34962,"byteStride":12},{"buffer":0,"byteOffset":13156,"byteLength":1504,"target":34962,"byteStride":8},{"buffer":0,"byteOffset":14660,"byteLength":564,"target":34963},{"buffer":0,"byteOffset":15224,"byteLength":192,"target":34962,"byteStride":12},{"buffer":0,"byteOffset":15416,"byteLength":192,"target":34962,"byteStride":12},{"buffer":0,"byteOffset":15608,"byteLength":128,"target":34962,"byteStride":8},{"buffer":0,"byteOffset":15736,"byteLength":48,"target":34963},{"buffer":0,"byteOffset":15784,"byteLength":480,"target":34962,"byteStride":12},{"buffer":0,"byteOffset":16264,"byteLength":480,"target":34962,"byteStride":12},{"buffer":0,"byteOffset":16744,"byteLength":320,"target":34962,"byteStride":8},{"buffer":0,"byteOffset":17064,"byteLength":120,"target":34963},{"buffer":0,"byteOffset":17184,"byteLength":528,"target":34962,"byteStride":12},{"buffer":0,"byteOffset":17712,"byteLength":528,"target":34962,"byteStride":12},{"buffer":0,"byteOffset":18240,"byteLength":352,"target":34962,"byteStride":8},{"buffer":0,"byteOffset":18592,"byteLength":132,"target":34963},{"buffer":0,"byteOffset":18724,"byteLength":48,"target":34962,"byteStride":12},{"buffer":0,"byteOffset":18772,"byteLength":48,"target":34962,"byteStride":12},{"buffer":0,"byteOffset":18820,"byteLength":32,"target":34962,"byteStride":8},{"buffer":0,"byteOffset":18852,"byteLength":12,"target":34963},{"buffer":0,"byteOffset":18864,"byteLength":100},{"buffer":0,"byteOffset":18964,"byteLength":400},{"buffer":0,"byteOffset":19364,"byteLength":12},{"buffer":0,"byteOffset":19376,"byteLength":36},{"buffer":0,"byteOffset":19412,"byteLength":48},{"buffer":0,"byteOffset":19460,"byteLength":192},{"buffer":0,"byteOffset":19652,"byteLength":24},{"buffer":0,"byteOffset":19676,"byteLength":96},{"buffer":0,"byteOffset":19772,"byteLength":24},{"buffer":0,"byteOffset":19796,"byteLength":72},{"buffer":0,"byteOffset":19868,"byteLength":16},{"buffer":0,"byteOffset":19884,"byteLength":48}],"buffers":[{"byteLength":19932,"uri":"data:application/octet-stream;base64,"}],"accessors":[{"bufferView":0,"componentType":5126,"count":88,"max":[0.3843750059604645,0.359375,0.109375],"min":[-0.40625,0.15625,-0.109375],"type":"VEC3"},{"bufferView":1,"componentType":5126,"count":88,"max":[0.9446256160736084,1,1],"min":[-0.9427222609519958,-1,-1],"type":"VEC3"},{"bufferView":2,"componentType":5126,"count":88,"max":[0.7281249761581421,0.653418779373169],"min":[0,0],"type":"VEC2"},{"bufferView":3,"componentType":5123,"count":132,"max":[87],"min":[0],"type":"SCALAR"},{"bufferView":4,"componentType":5126,"count":56,"max":[0.03125,0.125,0.11562500149011612],"min":[-0.03125,0.0625,-0.11562500149011612],"type":"VEC3"},{"bufferView":5,"componentType":5126,"count":56,"max":[0.7071067690849304,0.7071067690849304,1],"min":[-0.7071067690849304,-0.7071067690849304,-1],"type":"VEC3"},{"bufferView":6,"componentType":5126,"count":56,"max":[0.0625,0.0625],"min":[0,0],"type":"VEC2"},{"bufferView":7,"componentType":5123,"count":72,"max":[55],"min":[0],"type":"SCALAR"},{"bufferView":8,"componentType":5126,"count":20,"max":[0.203125,0.125,0.0625],"min":[-0.265625,0,-0.0625],"type":"VEC3"},{"bufferView":9,"componentType":5126,"count":20,"max":[0,1,1],"min":[-1,-1,-1],"type":"VEC3"},{"bufferView":10,"componentType":5126,"count":20,"max":[0.46875,0.125],"min":[0,0],"type":"VEC2"},{"bufferView":11,"componentType":5123,"count":30,"max":[19],"min":[0],"type":"SCALAR"},{"bufferView":12,"componentType":5126,"count":34,"max":[-0.03125,0.13124999403953552,0.06875000149011612],"min":[-0.125,-0.0062500000931322575,-0.06875000149011612],"type":"VEC3"},{"bufferView":13,"componentType":5126,"count":34,"max":[1,1,1],"min":[-0.9465101957321167,-0.9486833214759827,-1],"type":"VEC3"},{"bufferView":14,"componentType":5126,"count":34,"max":[0.13750000298023224,0.13749998807907104],"min":[0,0],"type":"VEC2"},{"bufferView":15,"componentType":5123,"count":48,"max":[33],"min":[0],"type":"SCALAR"},{"bufferView":16,"componentType":5126,"count":50,"max":[0.03314562886953354,0.0625,-0.0546875],"min":[-0.015625,-0.04419417306780815,-0.0703125],"type":"VEC3"},{"bufferView":17,"componentType":5126,"count":50,"max":[1,1,1],"min":[-1,-0.7071067690849304,-1],"type":"VEC3"},{"bufferView":18,"componentType":5126,"count":50,"max":[0.04687676206231117,0.0625],"min":[0,0],"type":"VEC2"},{"bufferView":19,"componentType":5123,"count":72,"max":[49],"min":[0],"type":"SCALAR"},{"bufferView":20,"componentType":5126,"count":188,"max":[0.578125,0.359375,0.09375],"min":[-0.390625,0.140625,-0.09375],"type":"VEC3"},{"bufferView":21,"componentType":5126,"count":188,"max":[0.9441724419593811,1,1],"min":[-0.9417418837547302,-1,-1],"type":"VEC3"},{"bufferView":22,"componentType":5126,"count":188,"max":[0.828125,0.6337839365005493],"min":[0,0],"type":"VEC2"},{"bufferView":23,"componentType":5123,"count":282,"max":[187],"min":[0],"type":"SCALAR"},{"bufferView":24,"componentType":5126,"count":16,"max":[0.14687499403953552,0.125,0.046875],"min":[-0.09375,-0.078125,-0.046875],"type":"VEC3"},{"bufferView":25,"componentType":5126,"count":16,"max":[0.9472159743309021,0.32059618830680847,1],"min":[-0.9472159743309021,-0.32059618830680847,-1],"type":"VEC3"},{"bufferView":26,"componentType":5126,"count":16,"max":[0.24062499403953552,0.21444374322891235],"min":[0,0],"type":"VEC2"},{"bufferView":27,"componentType":5123,"count":24,"max":[15],"min":[0],"type":"SCALAR"},{"bufferView":28,"componentType":5126,"count":40,"max":[0.046875,0.125,0.046875],"min":[-0.0625,-0.015625,-0.046875],"type":"VEC3"},{"bufferView":29,"componentType":5126,"count":40,"max":[0,1,1],"min":[-1,-1,-1],"type":"VEC3"},{"bufferView":30,"componentType":5126,"count":40,"max":[0.09375,0.09375],"min":[0,0],"type":"VEC2"},{"bufferView":31,"componentType":5123,"count":60,"max":[39],"min":[0],"type":"SCALAR"},{"bufferView":32,"componentType":5126,"count":44,"max":[0.6131250262260437,0.140625,0.078125],"min":[0.30687499046325684,-0.15625,-0.078125],"type":"VEC3"},{"bufferView":33,"componentType":5126,"count":44,"max":[0.9438583850860596,1,1],"min":[-0.9438583850860596,-1,-1],"type":"VEC3"},{"bufferView":34,"componentType":5126,"count":44,"max":[0.23125000298023224,0.125],"min":[0,0],"type":"VEC2"},{"bufferView":35,"componentType":5123,"count":66,"max":[43],"min":[0],"type":"SCALAR"},{"bufferView":36,"componentType":5126,"count":4,"max":[0.22897866368293762,0.3180930018424988,0.09375],"min":[-0.09914618730545044,0.3180930018424988,-0.09375],"type":"VEC3"},{"bufferView":37,"componentType":5126,"count":4,"max":[-6.117437285901861e-13,1,0],"min":[-6.117437285901861e-13,1,0],"type":"VEC3"},{"bufferView":38,"componentType":5126,"count":4,"max":[0.1875,0.328125],"min":[0,0],"type":"VEC2"},{"bufferView":39,"componentType":5123,"count":6,"max":[3],"min":[0],"type":"SCALAR"},{"bufferView":40,"componentType":5126,"count":25,"max":[1.75],"min":[0],"type":"SCALAR"},{"bufferView":41,"componentType":5126,"count":25,"max":[0,0,0.3420201539993286,1],"min":[0,0,0,0.9396926164627075],"type":"VEC4"},{"bufferView":42,"componentType":5126,"count":3,"max":[1.7083333730697632],"min":[1.625],"type":"SCALAR"},{"bufferView":43,"componentType":5126,"count":3,"max":[-0.28125,0.21875,0],"min":[-0.28125,0.203125,0],"type":"VEC3"},{"bufferView":44,"componentType":5126,"count":12,"max":[1.75],"min":[0],"type":"SCALAR"},{"bufferView":45,"componentType":5126,"count":12,"max":[0,0,0.258819043636322,1],"min":[0,0,0,0.9659258127212524],"type":"VEC4"},{"bufferView":46,"componentType":5126,"count":6,"max":[1.5833333730697632],"min":[0],"type":"SCALAR"},{"bufferView":47,"componentType":5126,"count":6,"max":[0,0,0,1],"min":[0,0,-0.2164396196603775,0.9762960076332092],"type":"VEC4"},{"bufferView":48,"componentType":5126,"count":6,"max":[1.5833333730697632],"min":[0],"type":"SCALAR"},{"bufferView":49,"componentType":5126,"count":6,"max":[0.46875,0.203125,0],"min":[-0.28125,-0.109375,0],"type":"VEC3"},{"bufferView":50,"componentType":5126,"count":4,"max":[1.5833333730697632],"min":[0],"type":"SCALAR"},{"bufferView":51,"componentType":5126,"count":4,"max":[1,1,1],"min":[0,0,0],"type":"VEC3"}],"materials":[{"pbrMetallicRoughness":{"metallicFactor":0,"roughnessFactor":1},"alphaMode":"MASK","alphaCutoff":0.05,"doubleSided":true},{"pbrMetallicRoughness":{"metallicFactor":0,"roughnessFactor":1},"alphaMode":"MASK","alphaCutoff":0.05,"doubleSided":true},{"pbrMetallicRoughness":{"metallicFactor":0,"roughnessFactor":1},"alphaMode":"MASK","alphaCutoff":0.05,"doubleSided":true},{"pbrMetallicRoughness":{"metallicFactor":0,"roughnessFactor":1},"alphaMode":"MASK","alphaCutoff":0.05,"doubleSided":true}],"meshes":[{"primitives":[{"mode":4,"attributes":{"POSITION":0,"NORMAL":1,"TEXCOORD_0":2},"indices":3,"material":0}]},{"primitives":[{"mode":4,"attributes":{"POSITION":4,"NORMAL":5,"TEXCOORD_0":6},"indices":7,"material":1}]},{"primitives":[{"mode":4,"attributes":{"POSITION":8,"NORMAL":9,"TEXCOORD_0":10},"indices":11,"material":1}]},{"primitives":[{"mode":4,"attributes":{"POSITION":12,"NORMAL":13,"TEXCOORD_0":14},"indices":15,"material":2}]},{"primitives":[{"mode":4,"attributes":{"POSITION":16,"NORMAL":17,"TEXCOORD_0":18},"indices":19,"material":1}]},{"primitives":[{"mode":4,"attributes":{"POSITION":20,"NORMAL":21,"TEXCOORD_0":22},"indices":23,"material":2}]},{"primitives":[{"mode":4,"attributes":{"POSITION":24,"NORMAL":25,"TEXCOORD_0":26},"indices":27,"material":3}]},{"primitives":[{"mode":4,"attributes":{"POSITION":28,"NORMAL":29,"TEXCOORD_0":30},"indices":31,"material":1}]},{"primitives":[{"mode":4,"attributes":{"POSITION":32,"NORMAL":33,"TEXCOORD_0":34},"indices":35,"material":0}]},{"primitives":[{"mode":4,"attributes":{"POSITION":36,"NORMAL":37,"TEXCOORD_0":38},"indices":39,"material":1}]}],"animations":[{"name":"Inspect","samplers":[{"input":40,"output":41,"interpolation":"LINEAR"},{"input":42,"output":43,"interpolation":"LINEAR"}],"channels":[{"sampler":0,"target":{"node":2,"path":"rotation"}},{"sampler":1,"target":{"node":5,"path":"translation"}}]},{"name":"Reload","samplers":[{"input":44,"output":45,"interpolation":"LINEAR"},{"input":46,"output":47,"interpolation":"LINEAR"},{"input":48,"output":49,"interpolation":"LINEAR"},{"input":50,"output":51,"interpolation":"LINEAR"}],"channels":[{"sampler":0,"target":{"node":2,"path":"rotation"}},{"sampler":1,"target":{"node":5,"path":"rotation"}},{"sampler":2,"target":{"node":5,"path":"translation"}},{"sampler":3,"target":{"node":7,"path":"scale"}}]}]}