{"asset":{"version":"2.0","generator":"Blockbench 5.0.7 glTF exporter"},"scenes":[{"nodes":[17],"name":"blockbench_export"}],"scene":0,"nodes":[{"translation":[-0.46875,0.015625,0],"name":"Base","mesh":0},{"translation":[-0.024375000000000036,-0.03125,0],"name":"Grip","mesh":1},{"translation":[-0.79625,0.203125,0],"name":"Barrel - glow","mesh":2},{"translation":[-0.46875,0.015625,0],"name":"Handle","mesh":3},{"translation":[-0.46875,0.015625,0],"name":"Decoration - glow","mesh":4},{"translation":[-0.89,0.265625,0],"scale":[0.033861386138613864,0.033861386138613864,0.033861386138613864],"name":"Muzzle Flash Point"},{"translation":[-0.39,0.359375,0],"scale":[0.033861386138613864,0.033861386138613864,0.033861386138613864],"name":"Reload Particle Point"},{"translation":[0.32875,-0.1875,0],"name":"Slide","mesh":5},{"translation":[0.10999999999999999,0.015625,0],"name":"Decoration - glow","mesh":6},{"translation":[-0.796875,0.21875,0],"name":"Slide","children":[7,8]},{"translation":[0.25937499999999997,0,0],"name":"Glowstick - glow","mesh":7},{"translation":[0.540625,0,0],"name":"Cap","mesh":8},{"translation":[-0.28125,0.203125,0],"name":"Magazine","children":[10,11]},{"rotation":[0,0,0.19509032201612825,0.9807852804032304],"translation":[-0.015000000000000013,-0.02812500000000001,0.0625],"name":"Trigger - glow","mesh":9},{"translation":[-0.15625,0.109375,0],"name":"Trigger","children":[13]},{"translation":[-0.006250000000000033,-0.0625,0],"name":"Magazine Extra - glow","mesh":10},{"translation":[0.015625,0.265625,0],"name":"Magazine Extra","children":[15]},{"translation":[0.343125,0.359375,0],"name":"Weapon","children":[0,1,2,3,4,5,6,9,12,14,16]}],"bufferViews":[{"buffer":0,"byteOffset":0,"byteLength":2400,"target":34962,"byteStride":12},{"buffer":0,"byteOffset":2400,"byteLength":2400,"target":34962,"byteStride":12},{"buffer":0,"byteOffset":4800,"byteLength":1600,"target":34962,"byteStride":8},{"buffer":0,"byteOffset":6400,"byteLength":600,"target":34963},{"buffer":0,"byteOffset":7000,"byteLength":192,"target":34962,"byteStride":12},{"buffer":0,"byteOffset":7192,"byteLength":192,"target":34962,"byteStride":12},{"buffer":0,"byteOffset":7384,"byteLength":128,"target":34962,"byteStride":8},{"buffer":0,"byteOffset":7512,"byteLength":48,"target":34963},{"buffer":0,"byteOffset":7560,"byteLength":480,"target":34962,"byteStride":12},{"buffer":0,"byteOffset":8040,"byteLength":480,"target":34962,"byteStride":12},{"buffer":0,"byteOffset":8520,"byteLength":320,"target":34962,"byteStride":8},{"buffer":0,"byteOffset":8840,"byteLength":120,"target":34963},{"buffer":0,"byteOffset":8960,"byteLength":528,"target":34962,"byteStride":12},{"buffer":0,"byteOffset":9488,"byteLength":528,"target":34962,"byteStride":12},{"buffer":0,"byteOffset":10016,"byteLength":352,"target":34962,"byteStride":8},{"buffer":0,"byteOffset":10368,"byteLength":132,"target":34963},{"buffer":0,"byteOffset":10500,"byteLength":48,"target":34962,"byteStride":12},{"buffer":0,"byteOffset":10548,"byteLength":48,"target":34962,"byteStride":12},{"buffer":0,"byteOffset":10596,"byteLength":32,"target":34962,"byteStride":8},{"buffer":0,"byteOffset":10628,"byteLength":12,"target":34963},{"buffer":0,"byteOffset":10640,"byteLength":1056,"target":34962,"byteStride":12},{"buffer":0,"byteOffset":11696,"byteLength":1056,"target":34962,"byteStride":12},{"buffer":0,"byteOffset":12752,"byteLength":704,"target":34962,"byteStride":8},{"buffer":0,"byteOffset":13456,"byteLength":264,"target":34963},{"buffer":0,"byteOffset":13720,"byteLength":672,"target":34962,"byteStride":12},{"buffer":0,"byteOffset":14392,"byteLength":672,"target":34962,"byteStride":12},{"buffer":0,"byteOffset":15064,"byteLength":448,"target":34962,"byteStride":8},{"buffer":0,"byteOffset":15512,"byteLength":144,"target":34963},{"buffer":0,"byteOffset":15656,"byteLength":240,"target":34962,"byteStride":12},{"buffer":0,"byteOffset":15896,"byteLength":240,"target":34962,"byteStride":12},{"buffer":0,"byteOffset":16136,"byteLength":160,"target":34962,"byteStride":8},{"buffer":0,"byteOffset":16296,"byteLength":60,"target":34963},{"buffer":0,"byteOffset":16356,"byteLength":408,"target":34962,"byteStride":12},{"buffer":0,"byteOffset":16764,"byteLength":408,"target":34962,"byteStride":12},{"buffer":0,"byteOffset":17172,"byteLength":272,"target":34962,"byteStride":8},{"buffer":0,"byteOffset":17444,"byteLength":96,"target":34963},{"buffer":0,"byteOffset":17540,"byteLength":600,"target":34962,"byteStride":12},{"buffer":0,"byteOffset":18140,"byteLength":600,"target":34962,"byteStride":12},{"buffer":0,"byteOffset":18740,"byteLength":400,"target":34962,"byteStride":8},{"buffer":0,"byteOffset":19140,"byteLength":144,"target":34963},{"buffer":0,"byteOffset":19284,"byteLength":96,"target":34962,"byteStride":12},{"buffer":0,"byteOffset":19380,"byteLength":96,"target":34962,"byteStride":12},{"buffer":0,"byteOffset":19476,"byteLength":64,"target":34962,"byteStride":8},{"buffer":0,"byteOffset":19540,"byteLength":24,"target":34963},{"buffer":0,"byteOffset":19564,"byteLength":24},{"buffer":0,"byteOffset":19588,"byteLength":96},{"buffer":0,"byteOffset":19684,"byteLength":24},{"buffer":0,"byteOffset":19708,"byteLength":72},{"buffer":0,"byteOffset":19780,"byteLength":104},{"buffer":0,"byteOffset":19884,"byteLength":416},{"buffer":0,"byteOffset":20300,"byteLength":12},{"buffer":0,"byteOffset":20312,"byteLength":36},{"buffer":0,"byteOffset":20348,"byteLength":60},{"buffer":0,"byteOffset":20408,"byteLength":240},{"buffer":0,"byteOffset":20648,"byteLength":24},{"buffer":0,"byteOffset":20672,"byteLength":96},{"buffer":0,"byteOffset":20768,"byteLength":108},{"buffer":0,"byteOffset":20876,"byteLength":324},{"buffer":0,"byteOffset":21200,"byteLength":16},{"buffer":0,"byteOffset":21216,"byteLength":48},{"buffer":0,"byteOffset":21264,"byteLength":52},{"buffer":0,"byteOffset":21316,"byteLength":208},{"buffer":0,"byteOffset":21524,"byteLength":52},{"buffer":0,"byteOffset":21576,"byteLength":156},{"buffer":0,"byteOffset":21732,"byteLength":20},{"buffer":0,"byteOffset":21752,"byteLength":60}],"buffers":[{"byteLength":21812,"uri":"data:application/octet-stream;base64,"}],"accessors":[{"bufferView":0,"componentType":5126,"count":200,"max":[0.578125,0.359375,0.09375],"min":[-0.390625,0.140625,-0.09375],"type":"VEC3"},{"bufferView":1,"componentType":5126,"count":200,"max":[0.944172203540802,1,1],"min":[-0.9417418837547302,-1,-1],"type":"VEC3"},{"bufferView":2,"componentType":5126,"count":200,"max":[0.828125,0.633783757686615],"min":[0,0],"type":"VEC2"},{"bufferView":3,"componentType":5123,"count":300,"max":[199],"min":[0],"type":"SCALAR"},{"bufferView":4,"componentType":5126,"count":16,"max":[0.14687499403953552,0.125,0.046875],"min":[-0.09375,-0.078125,-0.046875],"type":"VEC3"},{"bufferView":5,"componentType":5126,"count":16,"max":[0.9472159743309021,0.32059618830680847,1],"min":[-0.9472159743309021,-0.32059618830680847,-1],"type":"VEC3"},{"bufferView":6,"componentType":5126,"count":16,"max":[0.24062499403953552,0.21444374322891235],"min":[0,0],"type":"VEC2"},{"bufferView":7,"componentType":5123,"count":24,"max":[15],"min":[0],"type":"SCALAR"},{"bufferView":8,"componentType":5126,"count":40,"max":[0.046875,0.125,0.046875],"min":[-0.09375,-0.015625,-0.046875],"type":"VEC3"},{"bufferView":9,"componentType":5126,"count":40,"max":[0,1,1],"min":[-1,-1,-1],"type":"VEC3"},{"bufferView":10,"componentType":5126,"count":40,"max":[0.09375,0.09375],"min":[0,0],"type":"VEC2"},{"bufferView":11,"componentType":5123,"count":60,"max":[39],"min":[0],"type":"SCALAR"},{"bufferView":12,"componentType":5126,"count":44,"max":[0.6131250262260437,0.140625,0.078125],"min":[0.30687499046325684,-0.15625,-0.078125],"type":"VEC3"},{"bufferView":13,"componentType":5126,"count":44,"max":[0.9438583850860596,1,1],"min":[-0.9438583850860596,-1,-1],"type":"VEC3"},{"bufferView":14,"componentType":5126,"count":44,"max":[0.23125000298023224,0.125],"min":[0,0],"type":"VEC2"},{"bufferView":15,"componentType":5123,"count":66,"max":[43],"min":[0],"type":"SCALAR"},{"bufferView":16,"componentType":5126,"count":4,"max":[0.2758537530899048,0.33371812105178833,0.08749999850988388],"min":[-0.14602124691009521,0.33371812105178833,-0.08749999850988388],"type":"VEC3"},{"bufferView":17,"componentType":5126,"count":4,"max":[0,1,0],"min":[0,1,0],"type":"VEC3"},{"bufferView":18,"componentType":5126,"count":4,"max":[0.1875,0.328125],"min":[0,0],"type":"VEC2"},{"bufferView":19,"componentType":5123,"count":6,"max":[3],"min":[0],"type":"SCALAR"},{"bufferView":20,"componentType":5126,"count":88,"max":[0.3843750059604645,0.359375,0.109375],"min":[-0.40625,0.15625,-0.109375],"type":"VEC3"},{"bufferView":21,"componentType":5126,"count":88,"max":[0.9446216225624084,1,1],"min":[-0.9427222609519958,-1,-1],"type":"VEC3"},{"bufferView":22,"componentType":5126,"count":88,"max":[0.7906249761581421,0.653418779373169],"min":[0,0],"type":"VEC2"},{"bufferView":23,"componentType":5123,"count":132,"max":[87],"min":[0],"type":"SCALAR"},{"bufferView":24,"componentType":5126,"count":56,"max":[0.03125,0.125,0.11562500149011612],"min":[-0.03125,0.0625,-0.11562500149011612],"type":"VEC3"},{"bufferView":25,"componentType":5126,"count":56,"max":[0.7071067690849304,0.7071067690849304,1],"min":[-0.7071067690849304,-0.7071067690849304,-1],"type":"VEC3"},{"bufferView":26,"componentType":5126,"count":56,"max":[0.0625,0.0625],"min":[0,0],"type":"VEC2"},{"bufferView":27,"componentType":5123,"count":72,"max":[55],"min":[0],"type":"SCALAR"},{"bufferView":28,"componentType":5126,"count":20,"max":[0.203125,0.125,0.0625],"min":[-0.265625,0,-0.0625],"type":"VEC3"},{"bufferView":29,"componentType":5126,"count":20,"max":[0,1,1],"min":[-1,-1,-1],"type":"VEC3"},{"bufferView":30,"componentType":5126,"count":20,"max":[0.46875,0.125],"min":[0,0],"type":"VEC2"},{"bufferView":31,"componentType":5123,"count":30,"max":[19],"min":[0],"type":"SCALAR"},{"bufferView":32,"componentType":5126,"count":34,"max":[-0.03125,0.13124999403953552,0.06875000149011612],"min":[-0.125,-0.0062500000931322575,-0.06875000149011612],"type":"VEC3"},{"bufferView":33,"componentType":5126,"count":34,"max":[1,1,1],"min":[-0.9465101957321167,-0.9486833214759827,-1],"type":"VEC3"},{"bufferView":34,"componentType":5126,"count":34,"max":[0.13750000298023224,0.13749998807907104],"min":[0,0],"type":"VEC2"},{"bufferView":35,"componentType":5123,"count":48,"max":[33],"min":[0],"type":"SCALAR"},{"bufferView":36,"componentType":5126,"count":50,"max":[0.03314562514424324,0.0625,-0.0546875],"min":[-0.015625,-0.04419437423348427,-0.0703125],"type":"VEC3"},{"bufferView":37,"componentType":5126,"count":50,"max":[1,1,1],"min":[-1,-0.7071067690849304,-1],"type":"VEC3"},{"bufferView":38,"componentType":5126,"count":50,"max":[0.046876873821020126,0.0625],"min":[0,0],"type":"VEC2"},{"bufferView":39,"componentType":5123,"count":72,"max":[49],"min":[0],"type":"SCALAR"},{"bufferView":40,"componentType":5126,"count":8,"max":[0.03125,0.125,0.08437500149011612],"min":[-0.140625,0,-0.08437500149011612],"type":"VEC3"},{"bufferView":41,"componentType":5126,"count":8,"max":[0,0,1],"min":[0,0,-1],"type":"VEC3"},{"bufferView":42,"componentType":5126,"count":8,"max":[0.46875,0.125],"min":[0,0],"type":"VEC2"},{"bufferView":43,"componentType":5123,"count":12,"max":[7],"min":[0],"type":"SCALAR"},{"bufferView":44,"componentType":5126,"count":6,"max":[0.2916699945926666],"min":[0],"type":"SCALAR"},{"bufferView":45,"componentType":5126,"count":6,"max":[0,0,0.13052618503570557,1],"min":[0,0,0,0.9914448857307434],"type":"VEC4"},{"bufferView":46,"componentType":5126,"count":6,"max":[0.2916699945926666],"min":[0],"type":"SCALAR"},{"bufferView":47,"componentType":5126,"count":6,"max":[-0.15625,0.12187500298023224,0],"min":[-0.15625,0.109375,0],"type":"VEC3"},{"bufferView":48,"componentType":5126,"count":26,"max":[1.75],"min":[0],"type":"SCALAR"},{"bufferView":49,"componentType":5126,"count":26,"max":[0,0,0.3430129289627075,1],"min":[0,0,0,0.9393306970596313],"type":"VEC4"},{"bufferView":50,"componentType":5126,"count":3,"max":[1.7083300352096558],"min":[1.625],"type":"SCALAR"},{"bufferView":51,"componentType":5126,"count":3,"max":[-0.28125,0.21875,0],"min":[-0.28125,0.203125,0],"type":"VEC3"},{"bufferView":52,"componentType":5126,"count":15,"max":[1.8333300352096558],"min":[0],"type":"SCALAR"},{"bufferView":53,"componentType":5126,"count":15,"max":[0,0,0.258819043636322,1],"min":[0,0,0,0.9659258127212524],"type":"VEC4"},{"bufferView":54,"componentType":5126,"count":6,"max":[1.6666699647903442],"min":[0.16666999459266663],"type":"SCALAR"},{"bufferView":55,"componentType":5126,"count":6,"max":[0,0,0,1],"min":[0,0,-0.2164396196603775,0.9762960076332092],"type":"VEC4"},{"bufferView":56,"componentType":5126,"count":27,"max":[1.6666699647903442],"min":[0],"type":"SCALAR"},{"bufferView":57,"componentType":5126,"count":27,"max":[0.5078125,0.203125,0],"min":[-0.28125,-0.1484375,0],"type":"VEC3"},{"bufferView":58,"componentType":5126,"count":4,"max":[1.6666699647903442],"min":[0.16666999459266663],"type":"SCALAR"},{"bufferView":59,"componentType":5126,"count":4,"max":[1,1,1],"min":[0,0,0],"type":"VEC3"},{"bufferView":60,"componentType":5126,"count":13,"max":[2],"min":[0],"type":"SCALAR"},{"bufferView":61,"componentType":5126,"count":13,"max":[0,0,0,1],"min":[0,0,-0.3826834261417389,0.9238795042037964],"type":"VEC4"},{"bufferView":62,"componentType":5126,"count":13,"max":[2],"min":[0],"type":"SCALAR"},{"bufferView":63,"componentType":5126,"count":13,"max":[0.34312498569488525,0.453125,0],"min":[0.030625000596046448,0.359375,0],"type":"VEC3"},{"bufferView":64,"componentType":5126,"count":5,"max":[1.5833300352096558],"min":[0.16666999459266663],"type":"SCALAR"},{"bufferView":65,"componentType":5126,"count":5,"max":[1,1,1],"min":[0,0,0],"type":"VEC3"}],"materials":[{"pbrMetallicRoughness":{"metallicFactor":0,"roughnessFactor":1},"alphaMode":"MASK","alphaCutoff":0.05,"doubleSided":true},{"pbrMetallicRoughness":{"metallicFactor":0,"roughnessFactor":1},"alphaMode":"MASK","alphaCutoff":0.05,"doubleSided":true},{"pbrMetallicRoughness":{"metallicFactor":0,"roughnessFactor":1},"alphaMode":"MASK","alphaCutoff":0.05,"doubleSided":true},{"pbrMetallicRoughness":{"metallicFactor":0,"roughnessFactor":1},"alphaMode":"MASK","alphaCutoff":0.05,"doubleSided":true}],"meshes":[{"primitives":[{"mode":4,"attributes":{"POSITION":0,"NORMAL":1,"TEXCOORD_0":2},"indices":3,"material":0}]},{"primitives":[{"mode":4,"attributes":{"POSITION":4,"NORMAL":5,"TEXCOORD_0":6},"indices":7,"material":1}]},{"primitives":[{"mode":4,"attributes":{"POSITION":8,"NORMAL":9,"TEXCOORD_0":10},"indices":11,"material":2}]},{"primitives":[{"mode":4,"attributes":{"POSITION":12,"NORMAL":13,"TEXCOORD_0":14},"indices":15,"material":3}]},{"primitives":[{"mode":4,"attributes":{"POSITION":16,"NORMAL":17,"TEXCOORD_0":18},"indices":19,"material":2}]},{"primitives":[{"mode":4,"attributes":{"POSITION":20,"NORMAL":21,"TEXCOORD_0":22},"indices":23,"material":3}]},{"primitives":[{"mode":4,"attributes":{"POSITION":24,"NORMAL":25,"TEXCOORD_0":26},"indices":27,"material":2}]},{"primitives":[{"mode":4,"attributes":{"POSITION":28,"NORMAL":29,"TEXCOORD_0":30},"indices":31,"material":2}]},{"primitives":[{"mode":4,"attributes":{"POSITION":32,"NORMAL":33,"TEXCOORD_0":34},"indices":35,"material":0}]},{"primitives":[{"mode":4,"attributes":{"POSITION":36,"NORMAL":37,"TEXCOORD_0":38},"indices":39,"material":2}]},{"primitives":[{"mode":4,"attributes":{"POSITION":40,"NORMAL":41,"TEXCOORD_0":42},"indices":43,"material":2}]}],"animations":[{"name":"Shoot","samplers":[{"input":44,"output":45,"interpolation":"LINEAR"},{"input":46,"output":47,"interpolation":"LINEAR"}],"channels":[{"sampler":0,"target":{"node":14,"path":"rotation"}},{"sampler":1,"target":{"node":14,"path":"translation"}}]},{"name":"Inspect","samplers":[{"input":48,"output":49,"interpolation":"LINEAR"},{"input":50,"output":51,"interpolation":"LINEAR"}],"channels":[{"sampler":0,"target":{"node":9,"path":"rotation"}},{"sampler":1,"target":{"node":12,"path":"translation"}}]},{"name":"Reload","samplers":[{"input":52,"output":53,"interpolation":"LINEAR"},{"input":54,"output":55,"interpolation":"LINEAR"},{"input":56,"output":57,"interpolation":"LINEAR"},{"input":58,"output":59,"interpolation":"LINEAR"},{"input":60,"output":61,"interpolation":"LINEAR"},{"input":62,"output":63,"interpolation":"LINEAR"},{"input":64,"output":65,"interpolation":"STEP"}],"channels":[{"sampler":0,"target":{"node":9,"path":"rotation"}},{"sampler":1,"target":{"node":12,"path":"rotation"}},{"sampler":2,"target":{"node":12,"path":"translation"}},{"sampler":3,"target":{"node":14,"path":"scale"}},{"sampler":4,"target":{"node":17,"path":"rotation"}},{"sampler":5,"target":{"node":17,"path":"translation"}},{"sampler":6,"target":{"node":16,"path":"scale"}}]}]}