{"asset":{"version":"2.0","generator":"Blockbench 5.0.3 glTF exporter"},"scenes":[{"nodes":[11],"name":"blockbench_export"}],"scene":0,"nodes":[{"translation":[-0.311875,-0.328125,0],"name":"Slide","mesh":0},{"translation":[-0.71875,0.21875,0],"name":"Slide","children":[0]},{"rotation":[-0.7071067811865475,0,0,0.7071067811865476],"translation":[-0.0625,-0.0625,0.25],"name":"Trigger - glow","mesh":1},{"translation":[-0.03125,0.109375,0],"name":"Trigger","children":[2]},{"translation":[-0.25875000000000004,-0.0031250000000000444,0],"name":"Barrel","mesh":2},{"rotation":[0,0,-1,6.123233995736766e-17],"translation":[0.04125000000000001,0.25,0],"name":"Mag Socket","mesh":3},{"name":"Head","children":[4,5]},{"translation":[0.688125,-0.171875,0],"name":"Stock","mesh":4},{"translation":[-0.09312500000000001,-0.203125,0],"name":"Body","mesh":5},{"translation":[-0.06187500000000001,0.1875,0],"name":"Magazine - glow","mesh":6},{"translation":[0.010000000000000009,0.1875,0],"name":"Mag Socket","mesh":7},{"translation":[0.343125,0.359375,0],"name":"Weapon","children":[1,3,6,7,8,9,10]}],"bufferViews":[{"buffer":0,"byteOffset":0,"byteLength":240,"target":34962,"byteStride":12},{"buffer":0,"byteOffset":240,"byteLength":240,"target":34962,"byteStride":12},{"buffer":0,"byteOffset":480,"byteLength":160,"target":34962,"byteStride":8},{"buffer":0,"byteOffset":640,"byteLength":60,"target":34963},{"buffer":0,"byteOffset":700,"byteLength":2304,"target":34962,"byteStride":12},{"buffer":0,"byteOffset":3004,"byteLength":2304,"target":34962,"byteStride":12},{"buffer":0,"byteOffset":5308,"byteLength":1536,"target":34962,"byteStride":8},{"buffer":0,"byteOffset":6844,"byteLength":576,"target":34963},{"buffer":0,"byteOffset":7420,"byteLength":1296,"target":34962,"byteStride":12},{"buffer":0,"byteOffset":8716,"byteLength":1296,"target":34962,"byteStride":12},{"buffer":0,"byteOffset":10012,"byteLength":864,"target":34962,"byteStride":8},{"buffer":0,"byteOffset":10876,"byteLength":324,"target":34963},{"buffer":0,"byteOffset":11200,"byteLength":432,"target":34962,"byteStride":12},{"buffer":0,"byteOffset":11632,"byteLength":432,"target":34962,"byteStride":12},{"buffer":0,"byteOffset":12064,"byteLength":288,"target":34962,"byteStride":8},{"buffer":0,"byteOffset":12352,"byteLength":108,"target":34963},{"buffer":0,"byteOffset":12460,"byteLength":480,"target":34962,"byteStride":12},{"buffer":0,"byteOffset":12940,"byteLength":480,"target":34962,"byteStride":12},{"buffer":0,"byteOffset":13420,"byteLength":320,"target":34962,"byteStride":8},{"buffer":0,"byteOffset":13740,"byteLength":120,"target":34963},{"buffer":0,"byteOffset":13860,"byteLength":1656,"target":34962,"byteStride":12},{"buffer":0,"byteOffset":15516,"byteLength":1656,"target":34962,"byteStride":12},{"buffer":0,"byteOffset":17172,"byteLength":1104,"target":34962,"byteStride":8},{"buffer":0,"byteOffset":18276,"byteLength":408,"target":34963},{"buffer":0,"byteOffset":18684,"byteLength":288,"target":34962,"byteStride":12},{"buffer":0,"byteOffset":18972,"byteLength":288,"target":34962,"byteStride":12},{"buffer":0,"byteOffset":19260,"byteLength":192,"target":34962,"byteStride":8},{"buffer":0,"byteOffset":19452,"byteLength":72,"target":34963},{"buffer":0,"byteOffset":19524,"byteLength":240,"target":34962,"byteStride":12},{"buffer":0,"byteOffset":19764,"byteLength":240,"target":34962,"byteStride":12},{"buffer":0,"byteOffset":20004,"byteLength":160,"target":34962,"byteStride":8},{"buffer":0,"byteOffset":20164,"byteLength":60,"target":34963},{"buffer":0,"byteOffset":20224,"byteLength":28},{"buffer":0,"byteOffset":20252,"byteLength":84},{"buffer":0,"byteOffset":20336,"byteLength":24},{"buffer":0,"byteOffset":20360,"byteLength":96},{"buffer":0,"byteOffset":20456,"byteLength":48},{"buffer":0,"byteOffset":20504,"byteLength":144},{"buffer":0,"byteOffset":20648,"byteLength":24},{"buffer":0,"byteOffset":20672,"byteLength":96},{"buffer":0,"byteOffset":20768,"byteLength":60},{"buffer":0,"byteOffset":20828,"byteLength":180},{"buffer":0,"byteOffset":21008,"byteLength":16},{"buffer":0,"byteOffset":21024,"byteLength":48}],"buffers":[{"byteLength":21072,"uri":"data:application/octet-stream;base64,"}],"accessors":[{"bufferView":0,"componentType":5126,"count":20,"max":[0.3125,0.29374998807907104,0.05624999850988388],"min":[-0.22499999403953552,0.203125,-0.05624999850988388],"type":"VEC3"},{"bufferView":1,"componentType":5126,"count":20,"max":[0.9061217308044434,0.4230170249938965,1],"min":[-0.9061217308044434,-1,-1],"type":"VEC3"},{"bufferView":2,"componentType":5126,"count":20,"max":[0.5375000238418579,0.11250001192092896],"min":[0,0],"type":"VEC2"},{"bufferView":3,"componentType":5123,"count":30,"max":[19],"min":[0],"type":"SCALAR"},{"bufferView":4,"componentType":5126,"count":192,"max":[0.046875,0.2593750059604645,0.046875],"min":[-0.046875,0.24062499403953552,-0.046875],"type":"VEC3"},{"bufferView":5,"componentType":5126,"count":192,"max":[1,1,1],"min":[-1,-1,-1],"type":"VEC3"},{"bufferView":6,"componentType":5126,"count":192,"max":[0.26794999837875366,0.5],"min":[0,0],"type":"VEC2"},{"bufferView":7,"componentType":5123,"count":288,"max":[191],"min":[0],"type":"SCALAR"},{"bufferView":8,"componentType":5126,"count":108,"max":[0.375,0.3375000059604645,0.078125],"min":[-1.296875,0.171875,-0.078125],"type":"VEC3"},{"bufferView":9,"componentType":5126,"count":108,"max":[0.9366166591644287,1,1],"min":[-1,-1,-1],"type":"VEC3"},{"bufferView":10,"componentType":5126,"count":108,"max":[1.625,0.25],"min":[0,0],"type":"VEC2"},{"bufferView":11,"componentType":5123,"count":162,"max":[107],"min":[0],"type":"SCALAR"},{"bufferView":12,"componentType":5126,"count":36,"max":[0.078125,0.046875,0.046875],"min":[-0.015625,-0.046875,-0.046875],"type":"VEC3"},{"bufferView":13,"componentType":5126,"count":36,"max":[0,1,1],"min":[-1,-1,-1],"type":"VEC3"},{"bufferView":14,"componentType":5126,"count":36,"max":[0.125,0.125],"min":[0,0],"type":"VEC2"},{"bufferView":15,"componentType":5123,"count":54,"max":[35],"min":[0],"type":"SCALAR"},{"bufferView":16,"componentType":5126,"count":40,"max":[0.32811927795410156,0.4133450984954834,0.078125],"min":[-0.28125,0.0852200910449028,-0.078125],"type":"VEC3"},{"bufferView":17,"componentType":5126,"count":40,"max":[0.99991375207901,1,1],"min":[-1,-0.9800679683685303,-1],"type":"VEC3"},{"bufferView":18,"componentType":5126,"count":40,"max":[1,0.5898812413215637],"min":[0,0],"type":"VEC2"},{"bufferView":19,"componentType":5123,"count":60,"max":[39],"min":[0],"type":"SCALAR"},{"bufferView":20,"componentType":5126,"count":138,"max":[0.625,0.5062500238418579,0.0625],"min":[-1.203125,0.15000000596046448,-0.0625],"type":"VEC3"},{"bufferView":21,"componentType":5126,"count":138,"max":[1,1,1],"min":[-1,-1,-1],"type":"VEC3"},{"bufferView":22,"componentType":5126,"count":138,"max":[1.3374124765396118,0.4101625084877014],"min":[0,0],"type":"VEC2"},{"bufferView":23,"componentType":5123,"count":204,"max":[137],"min":[0],"type":"SCALAR"},{"bufferView":24,"componentType":5126,"count":24,"max":[0.0625,0.09375,0.03125],"min":[-0.3125,0.03125,-0.03125],"type":"VEC3"},{"bufferView":25,"componentType":5126,"count":24,"max":[1,1,1],"min":[-1,-1,-1],"type":"VEC3"},{"bufferView":26,"componentType":5126,"count":24,"max":[0.125,0.125],"min":[0,0],"type":"VEC2"},{"bufferView":27,"componentType":5123,"count":36,"max":[23],"min":[0],"type":"SCALAR"},{"bufferView":28,"componentType":5126,"count":20,"max":[0.015625,0.109375,0.046875],"min":[-0.015625,0.015625,-0.046875],"type":"VEC3"},{"bufferView":29,"componentType":5126,"count":20,"max":[-0.1961161345243454,0.9805806875228882,0.9805806875228882],"min":[-1,-0.9805806875228882,-0.9805806875228882],"type":"VEC3"},{"bufferView":30,"componentType":5126,"count":20,"max":[0.09375,0.09375],"min":[0,0],"type":"VEC2"},{"bufferView":31,"componentType":5123,"count":30,"max":[19],"min":[0],"type":"SCALAR"},{"bufferView":32,"componentType":5126,"count":7,"max":[1],"min":[0],"type":"SCALAR"},{"bufferView":33,"componentType":5126,"count":7,"max":[-0.46875,0.21875,0],"min":[-0.71875,0.21875,0],"type":"VEC3"},{"bufferView":34,"componentType":5126,"count":6,"max":[0.2916666567325592],"min":[0],"type":"SCALAR"},{"bufferView":35,"componentType":5126,"count":6,"max":[0,0,0.13052618503570557,1],"min":[0,0,0,0.9914448857307434],"type":"VEC4"},{"bufferView":36,"componentType":5126,"count":12,"max":[2],"min":[0],"type":"SCALAR"},{"bufferView":37,"componentType":5126,"count":12,"max":[-0.40625,0.21875,0],"min":[-0.71875,0.21875,0],"type":"VEC3"},{"bufferView":38,"componentType":5126,"count":6,"max":[1.9583333730697632],"min":[0],"type":"SCALAR"},{"bufferView":39,"componentType":5126,"count":6,"max":[0,0,0.008726535364985466,1],"min":[0,0,0,0.9999619126319885],"type":"VEC4"},{"bufferView":40,"componentType":5126,"count":15,"max":[2.2083332538604736],"min":[0],"type":"SCALAR"},{"bufferView":41,"componentType":5126,"count":15,"max":[0,0,0],"min":[-0.3984375,0,0],"type":"VEC3"},{"bufferView":42,"componentType":5126,"count":4,"max":[2.25],"min":[0.3333333432674408],"type":"SCALAR"},{"bufferView":43,"componentType":5126,"count":4,"max":[1,1,1],"min":[0,0,0],"type":"VEC3"}],"materials":[{"pbrMetallicRoughness":{"metallicFactor":0,"roughnessFactor":1},"alphaMode":"MASK","alphaCutoff":0.05,"doubleSided":true},{"pbrMetallicRoughness":{"metallicFactor":0,"roughnessFactor":1},"alphaMode":"MASK","alphaCutoff":0.05,"doubleSided":true},{"pbrMetallicRoughness":{"metallicFactor":0,"roughnessFactor":1},"alphaMode":"MASK","alphaCutoff":0.05,"doubleSided":true}],"meshes":[{"primitives":[{"mode":4,"attributes":{"POSITION":0,"NORMAL":1,"TEXCOORD_0":2},"indices":3,"material":0}]},{"primitives":[{"mode":4,"attributes":{"POSITION":4,"NORMAL":5,"TEXCOORD_0":6},"indices":7,"material":1}]},{"primitives":[{"mode":4,"attributes":{"POSITION":8,"NORMAL":9,"TEXCOORD_0":10},"indices":11,"material":0}]},{"primitives":[{"mode":4,"attributes":{"POSITION":12,"NORMAL":13,"TEXCOORD_0":14},"indices":15,"material":2}]},{"primitives":[{"mode":4,"attributes":{"POSITION":16,"NORMAL":17,"TEXCOORD_0":18},"indices":19,"material":0}]},{"primitives":[{"mode":4,"attributes":{"POSITION":20,"NORMAL":21,"TEXCOORD_0":22},"indices":23,"material":2}]},{"primitives":[{"mode":4,"attributes":{"POSITION":24,"NORMAL":25,"TEXCOORD_0":26},"indices":27,"material":1}]},{"primitives":[{"mode":4,"attributes":{"POSITION":28,"NORMAL":29,"TEXCOORD_0":30},"indices":31,"material":2}]}],"animations":[{"name":"Shoot","samplers":[{"input":32,"output":33,"interpolation":"LINEAR"},{"input":34,"output":35,"interpolation":"LINEAR"}],"channels":[{"sampler":0,"target":{"node":1,"path":"translation"}},{"sampler":1,"target":{"node":3,"path":"rotation"}}]},{"name":"Reload","samplers":[{"input":36,"output":37,"interpolation":"LINEAR"},{"input":38,"output":39,"interpolation":"LINEAR"},{"input":40,"output":41,"interpolation":"LINEAR"},{"input":42,"output":43,"interpolation":"LINEAR"}],"channels":[{"sampler":0,"target":{"node":1,"path":"translation"}},{"sampler":1,"target":{"node":6,"path":"rotation"}},{"sampler":2,"target":{"node":6,"path":"translation"}},{"sampler":3,"target":{"node":3,"path":"scale"}}]}]}