{"asset":{"version":"2.0","generator":"Blockbench 5.0.7 glTF exporter"},"scenes":[{"nodes":[25],"name":"blockbench_export"}],"scene":0,"nodes":[{"translation":[-0.718125,-0.796875,0.5],"name":"Barrel","mesh":0},{"translation":[-0.780625,-0.790625,0.53125],"name":"Scope Frame","mesh":1},{"translation":[-1.5462500000000001,-0.790625,0.53125],"name":"Scope","mesh":2},{"translation":[-0.780625,-0.790625,0.53125],"name":"Lens - glow","mesh":3},{"translation":[-2.5525,-0.9375,0.571875],"name":"Barrel End","mesh":4},{"translation":[-1.5306250000000001,0.24062499999999998,-0.125],"name":"Barrel - glow","mesh":5},{"translation":[-0.718125,-0.78125,0.53125],"name":"Underside","mesh":6},{"translation":[-0.718125,-0.796875,0.53125],"name":"Stock","mesh":7},{"translation":[0.95375,0.140625,0],"name":"Decoration - glow","mesh":8},{"translation":[-0.705625,-0.796875,0.54375],"name":"Grip","mesh":9},{"translation":[-2.67125,0.28125,0],"scale":[0.019000000000000003,0.019000000000000003,0.019000000000000003],"name":"Muzzle Flash Point"},{"rotation":[0,0,0.19509032201612825,0.9807852804032304],"translation":[0.006250000000000033,0,0.09999999999999999],"name":"Knob","mesh":10},{"translation":[0,0,0.065625],"name":"Left","children":[11]},{"rotation":[0,0,0.19509032201612825,0.9807852804032304],"translation":[0.006250000000000033,0,0.025],"name":"Knob","mesh":11},{"translation":[0,0,-0.065625],"name":"Right","children":[13]},{"rotation":[0,0,-0.19509032201612825,0.9807852804032304],"translation":[0.08749999999999997,0.1875,0],"name":"Pins","children":[12,14]},{"rotation":[-0.7071067811865475,0,0,0.7071067811865476],"translation":[-0.0625,-0.0625,0.25],"name":"Trigger - glow","mesh":12},{"translation":[-0.046875,0.0625,0],"name":"Trigger","children":[16]},{"translation":[-0.6868749999999999,-1.075,0.53125],"name":"Base","mesh":13},{"translation":[-0.6868749999999999,-1.075,0.53125],"name":"Mag - glow","mesh":14},{"translation":[-0.03125,0.29375,0],"name":"Front","children":[18,19]},{"translation":[-0.774375,-1.103125,0.53125],"name":"Base","mesh":15},{"translation":[-0.774375,-1.103125,0.53125],"name":"Mag - glow","mesh":16},{"translation":[0.05625000000000002,0.32187499999999997,0],"name":"Back","children":[21,22]},{"translation":[0.05624999999999997,-0.10625000000000001,0],"name":"Magazine","children":[20,23]},{"translation":[0.343125,0.359375,0],"name":"Weapon","children":[0,1,2,3,4,5,6,7,8,9,10,15,17,24]}],"bufferViews":[{"buffer":0,"byteOffset":0,"byteLength":2160,"target":34962,"byteStride":12},{"buffer":0,"byteOffset":2160,"byteLength":2160,"target":34962,"byteStride":12},{"buffer":0,"byteOffset":4320,"byteLength":1440,"target":34962,"byteStride":8},{"buffer":0,"byteOffset":5760,"byteLength":528,"target":34963},{"buffer":0,"byteOffset":6288,"byteLength":672,"target":34962,"byteStride":12},{"buffer":0,"byteOffset":6960,"byteLength":672,"target":34962,"byteStride":12},{"buffer":0,"byteOffset":7632,"byteLength":448,"target":34962,"byteStride":8},{"buffer":0,"byteOffset":8080,"byteLength":168,"target":34963},{"buffer":0,"byteOffset":8248,"byteLength":288,"target":34962,"byteStride":12},{"buffer":0,"byteOffset":8536,"byteLength":288,"target":34962,"byteStride":12},{"buffer":0,"byteOffset":8824,"byteLength":192,"target":34962,"byteStride":8},{"buffer":0,"byteOffset":9016,"byteLength":72,"target":34963},{"buffer":0,"byteOffset":9088,"byteLength":48,"target":34962,"byteStride":12},{"buffer":0,"byteOffset":9136,"byteLength":48,"target":34962,"byteStride":12},{"buffer":0,"byteOffset":9184,"byteLength":32,"target":34962,"byteStride":8},{"buffer":0,"byteOffset":9216,"byteLength":12,"target":34963},{"buffer":0,"byteOffset":9228,"byteLength":288,"target":34962,"byteStride":12},{"buffer":0,"byteOffset":9516,"byteLength":288,"target":34962,"byteStride":12},{"buffer":0,"byteOffset":9804,"byteLength":192,"target":34962,"byteStride":8},{"buffer":0,"byteOffset":9996,"byteLength":72,"target":34963},{"buffer":0,"byteOffset":10068,"byteLength":96,"target":34962,"byteStride":12},{"buffer":0,"byteOffset":10164,"byteLength":96,"target":34962,"byteStride":12},{"buffer":0,"byteOffset":10260,"byteLength":64,"target":34962,"byteStride":8},{"buffer":0,"byteOffset":10324,"byteLength":24,"target":34963},{"buffer":0,"byteOffset":10348,"byteLength":1536,"target":34962,"byteStride":12},{"buffer":0,"byteOffset":11884,"byteLength":1536,"target":34962,"byteStride":12},{"buffer":0,"byteOffset":13420,"byteLength":1024,"target":34962,"byteStride":8},{"buffer":0,"byteOffset":14444,"byteLength":372,"target":34963},{"buffer":0,"byteOffset":14816,"byteLength":768,"target":34962,"byteStride":12},{"buffer":0,"byteOffset":15584,"byteLength":768,"target":34962,"byteStride":12},{"buffer":0,"byteOffset":16352,"byteLength":512,"target":34962,"byteStride":8},{"buffer":0,"byteOffset":16864,"byteLength":192,"target":34963},{"buffer":0,"byteOffset":17056,"byteLength":624,"target":34962,"byteStride":12},{"buffer":0,"byteOffset":17680,"byteLength":624,"target":34962,"byteStride":12},{"buffer":0,"byteOffset":18304,"byteLength":416,"target":34962,"byteStride":8},{"buffer":0,"byteOffset":18720,"byteLength":144,"target":34963},{"buffer":0,"byteOffset":18864,"byteLength":192,"target":34962,"byteStride":12},{"buffer":0,"byteOffset":19056,"byteLength":192,"target":34962,"byteStride":12},{"buffer":0,"byteOffset":19248,"byteLength":128,"target":34962,"byteStride":8},{"buffer":0,"byteOffset":19376,"byteLength":48,"target":34963},{"buffer":0,"byteOffset":19424,"byteLength":240,"target":34962,"byteStride":12},{"buffer":0,"byteOffset":19664,"byteLength":240,"target":34962,"byteStride":12},{"buffer":0,"byteOffset":19904,"byteLength":160,"target":34962,"byteStride":8},{"buffer":0,"byteOffset":20064,"byteLength":60,"target":34963},{"buffer":0,"byteOffset":20124,"byteLength":240,"target":34962,"byteStride":12},{"buffer":0,"byteOffset":20364,"byteLength":240,"target":34962,"byteStride":12},{"buffer":0,"byteOffset":20604,"byteLength":160,"target":34962,"byteStride":8},{"buffer":0,"byteOffset":20764,"byteLength":60,"target":34963},{"buffer":0,"byteOffset":20824,"byteLength":2304,"target":34962,"byteStride":12},{"buffer":0,"byteOffset":23128,"byteLength":2304,"target":34962,"byteStride":12},{"buffer":0,"byteOffset":25432,"byteLength":1536,"target":34962,"byteStride":8},{"buffer":0,"byteOffset":26968,"byteLength":576,"target":34963},{"buffer":0,"byteOffset":27544,"byteLength":288,"target":34962,"byteStride":12},{"buffer":0,"byteOffset":27832,"byteLength":288,"target":34962,"byteStride":12},{"buffer":0,"byteOffset":28120,"byteLength":192,"target":34962,"byteStride":8},{"buffer":0,"byteOffset":28312,"byteLength":72,"target":34963},{"buffer":0,"byteOffset":28384,"byteLength":240,"target":34962,"byteStride":12},{"buffer":0,"byteOffset":28624,"byteLength":240,"target":34962,"byteStride":12},{"buffer":0,"byteOffset":28864,"byteLength":160,"target":34962,"byteStride":8},{"buffer":0,"byteOffset":29024,"byteLength":60,"target":34963},{"buffer":0,"byteOffset":29084,"byteLength":240,"target":34962,"byteStride":12},{"buffer":0,"byteOffset":29324,"byteLength":240,"target":34962,"byteStride":12},{"buffer":0,"byteOffset":29564,"byteLength":160,"target":34962,"byteStride":8},{"buffer":0,"byteOffset":29724,"byteLength":60,"target":34963},{"buffer":0,"byteOffset":29784,"byteLength":240,"target":34962,"byteStride":12},{"buffer":0,"byteOffset":30024,"byteLength":240,"target":34962,"byteStride":12},{"buffer":0,"byteOffset":30264,"byteLength":160,"target":34962,"byteStride":8},{"buffer":0,"byteOffset":30424,"byteLength":60,"target":34963},{"buffer":0,"byteOffset":30484,"byteLength":24},{"buffer":0,"byteOffset":30508,"byteLength":96},{"buffer":0,"byteOffset":30604,"byteLength":44},{"buffer":0,"byteOffset":30648,"byteLength":132},{"buffer":0,"byteOffset":30780,"byteLength":44},{"buffer":0,"byteOffset":30824,"byteLength":132},{"buffer":0,"byteOffset":30956,"byteLength":16},{"buffer":0,"byteOffset":30972,"byteLength":48},{"buffer":0,"byteOffset":31020,"byteLength":44},{"buffer":0,"byteOffset":31064,"byteLength":176},{"buffer":0,"byteOffset":31240,"byteLength":52},{"buffer":0,"byteOffset":31292,"byteLength":156},{"buffer":0,"byteOffset":31448,"byteLength":44},{"buffer":0,"byteOffset":31492,"byteLength":132},{"buffer":0,"byteOffset":31624,"byteLength":44},{"buffer":0,"byteOffset":31668,"byteLength":132},{"buffer":0,"byteOffset":31800,"byteLength":52},{"buffer":0,"byteOffset":31852,"byteLength":208},{"buffer":0,"byteOffset":32060,"byteLength":56},{"buffer":0,"byteOffset":32116,"byteLength":168}],"buffers":[{"byteLength":32284,"uri":"data:application/octet-stream;base64,"}],"accessors":[{"bufferView":0,"componentType":5126,"count":180,"max":[0.653124988079071,1.140625,-0.375],"min":[-2.018749952316284,0.96875,-0.625],"type":"VEC3"},{"bufferView":1,"componentType":5126,"count":180,"max":[0.9284766912460327,1,1],"min":[-1,-1,-1],"type":"VEC3"},{"bufferView":2,"componentType":5126,"count":180,"max":[2.15625,0.24456876516342163],"min":[0,0],"type":"VEC2"},{"bufferView":3,"componentType":5123,"count":264,"max":[179],"min":[0],"type":"SCALAR"},{"bufferView":4,"componentType":5126,"count":56,"max":[0.8187500238418579,1.256250023841858,-0.4468750059604645],"min":[-0.3499999940395355,1.1170462369918823,-0.6156250238418579],"type":"VEC3"},{"bufferView":5,"componentType":5126,"count":56,"max":[0.9794096946716309,1,0.9265182614326477],"min":[-0.8390741944313049,-1,-0.9265182614326477],"type":"VEC3"},{"bufferView":6,"componentType":5126,"count":56,"max":[1.1687500476837158,0.13979065418243408],"min":[0,0],"type":"VEC2"},{"bufferView":7,"componentType":5123,"count":84,"max":[55],"min":[0],"type":"SCALAR"},{"bufferView":8,"componentType":5126,"count":24,"max":[0.515625,1.240625023841858,-0.4625000059604645],"min":[0.02187499962747097,1.134374976158142,-0.6000000238418579],"type":"VEC3"},{"bufferView":9,"componentType":5126,"count":24,"max":[0.8318025469779968,1,0.9109162092208862],"min":[-0.8610497117042542,-1,-0.9109162092208862],"type":"VEC3"},{"bufferView":10,"componentType":5126,"count":24,"max":[0.4625000059604645,0.09647500514984131],"min":[0,0],"type":"VEC2"},{"bufferView":11,"componentType":5123,"count":36,"max":[23],"min":[0],"type":"SCALAR"},{"bufferView":12,"componentType":5126,"count":4,"max":[0.7853699922561646,1.2327837944030762,-0.4625000059604645],"min":[0.7399731278419495,1.1448818445205688,-0.6000000238418579],"type":"VEC3"},{"bufferView":13,"componentType":5126,"count":4,"max":[0.8885046243667603,0.4588676989078522,0],"min":[0.8885046243667603,0.4588676989078522,0],"type":"VEC3"},{"bufferView":14,"componentType":5126,"count":4,"max":[0.09375,0.13625001907348633],"min":[0,0],"type":"VEC2"},{"bufferView":15,"componentType":5123,"count":6,"max":[3],"min":[0],"type":"SCALAR"},{"bufferView":16,"componentType":5126,"count":24,"max":[0.5152681469917297,1.25,-0.518750011920929],"min":[-0.09821437299251556,1.1749999523162842,-0.625],"type":"VEC3"},{"bufferView":17,"componentType":5126,"count":24,"max":[0.5893788933753967,1,1],"min":[-0.621161162853241,-1,-1],"type":"VEC3"},{"bufferView":18,"componentType":5126,"count":24,"max":[0.5759812593460083,0.11498749256134033],"min":[0,0],"type":"VEC2"},{"bufferView":19,"componentType":5123,"count":36,"max":[23],"min":[0],"type":"SCALAR"},{"bufferView":20,"componentType":5126,"count":8,"max":[0.06875000149011612,0.0625,0.21875],"min":[-0.515625,0,0.03125],"type":"VEC3"},{"bufferView":21,"componentType":5126,"count":8,"max":[0,0,1],"min":[0,0,-1],"type":"VEC3"},{"bufferView":22,"componentType":5126,"count":8,"max":[0.5625,0.0625],"min":[0,0],"type":"VEC2"},{"bufferView":23,"componentType":5123,"count":12,"max":[7],"min":[0],"type":"SCALAR"},{"bufferView":24,"componentType":5126,"count":128,"max":[1.6724944114685059,1.125,-0.46875],"min":[-1.0939912796020508,0.7204393744468689,-0.59375],"type":"VEC3"},{"bufferView":25,"componentType":5126,"count":128,"max":[0.8682433366775513,1,1],"min":[-0.8682443499565125,-1,-1],"type":"VEC3"},{"bufferView":26,"componentType":5126,"count":128,"max":[1.774762511253357,0.3920400142669678],"min":[0,0],"type":"VEC2"},{"bufferView":27,"componentType":5123,"count":186,"max":[127],"min":[0],"type":"SCALAR"},{"bufferView":28,"componentType":5126,"count":64,"max":[1.7908649444580078,1.085515022277832,-0.4468750059604645],"min":[0.9781249761581421,0.6955868601799011,-0.6156250238418579],"type":"VEC3"},{"bufferView":29,"componentType":5126,"count":64,"max":[0.9119763374328613,1,1],"min":[-0.868242621421814,-1,-1],"type":"VEC3"},{"bufferView":30,"componentType":5126,"count":64,"max":[0.5781187415122986,0.578125],"min":[0,0],"type":"VEC2"},{"bufferView":31,"componentType":5123,"count":96,"max":[63],"min":[0],"type":"SCALAR"},{"bufferView":32,"componentType":5126,"count":52,"max":[0.03125,0.125,0.09062500298023224],"min":[-0.03125,0.0625,-0.09062500298023224],"type":"VEC3"},{"bufferView":33,"componentType":5126,"count":52,"max":[0.7071067690849304,0.7071067690849304,1],"min":[-0.7071067690849304,-0.7071067690849304,-1],"type":"VEC3"},{"bufferView":34,"componentType":5126,"count":52,"max":[0.0625,0.0625],"min":[0,0],"type":"VEC2"},{"bufferView":35,"componentType":5123,"count":72,"max":[51],"min":[0],"type":"SCALAR"},{"bufferView":36,"componentType":5126,"count":16,"max":[1.2993968725204468,0.8076543807983398,-0.48180124163627625],"min":[0.9889299869537354,0.701836884021759,-0.6056987643241882],"type":"VEC3"},{"bufferView":37,"componentType":5126,"count":16,"max":[0.8682441115379333,1,0],"min":[0,0,-1],"type":"VEC3"},{"bufferView":38,"componentType":5126,"count":16,"max":[0.31046250462532043,0.12389999628067017],"min":[0,0],"type":"VEC2"},{"bufferView":39,"componentType":5123,"count":24,"max":[15],"min":[0],"type":"SCALAR"},{"bufferView":40,"componentType":5126,"count":20,"max":[0.0835762470960617,0.08982624858617783,-0.015625],"min":[-0.09607625007629395,-0.08982624858617783,-0.125],"type":"VEC3"},{"bufferView":41,"componentType":5126,"count":20,"max":[0.918407142162323,0.918407142162323,1],"min":[-0.918407142162323,-0.918407142162323,0.10868920385837555],"type":"VEC3"},{"bufferView":42,"componentType":5126,"count":20,"max":[0.13750000298023224,0.13749998807907104],"min":[0,0],"type":"VEC2"},{"bufferView":43,"componentType":5123,"count":30,"max":[19],"min":[0],"type":"SCALAR"},{"bufferView":44,"componentType":5126,"count":20,"max":[0.0835762470960617,0.08982624858617783,0],"min":[-0.09607625007629395,-0.08982624858617783,-0.109375],"type":"VEC3"},{"bufferView":45,"componentType":5126,"count":20,"max":[0.9184055924415588,0.9184055924415588,-0.10868874192237854],"min":[-0.9184055924415588,-0.9184055924415588,-1],"type":"VEC3"},{"bufferView":46,"componentType":5126,"count":20,"max":[0.13750000298023224,0.13749998807907104],"min":[0,0],"type":"VEC2"},{"bufferView":47,"componentType":5123,"count":30,"max":[19],"min":[0],"type":"SCALAR"},{"bufferView":48,"componentType":5126,"count":192,"max":[0.046875,0.2593750059604645,0.046875],"min":[-0.046875,0.24062499403953552,-0.046875],"type":"VEC3"},{"bufferView":49,"componentType":5126,"count":192,"max":[1,1,1],"min":[-1,-1,-1],"type":"VEC3"},{"bufferView":50,"componentType":5126,"count":192,"max":[0.26794999837875366,0.5],"min":[0,0],"type":"VEC2"},{"bufferView":51,"componentType":5123,"count":288,"max":[191],"min":[0],"type":"SCALAR"},{"bufferView":52,"componentType":5126,"count":24,"max":[0.8343200087547302,0.8870681524276733,-0.4625000059604645],"min":[0.7108399868011475,0.8230518698692322,-0.6000000238418579],"type":"VEC3"},{"bufferView":53,"componentType":5126,"count":24,"max":[0.8543227314949036,0.9503940343856812,1],"min":[-0.8543227314949036,-0.9503940343856812,-1],"type":"VEC3"},{"bufferView":54,"componentType":5126,"count":24,"max":[0.13750000298023224,0.11106252670288086],"min":[0,0],"type":"VEC2"},{"bufferView":55,"componentType":5123,"count":36,"max":[23],"min":[0],"type":"SCALAR"},{"bufferView":56,"componentType":5126,"count":20,"max":[0.7979193925857544,1.1780205965042114,-0.4803124964237213],"min":[0.632108747959137,0.8585687279701233,-0.5821874737739563],"type":"VEC3"},{"bufferView":57,"componentType":5126,"count":20,"max":[0.9503936171531677,0.9503955245018005,1],"min":[-0.9503942131996155,-0.31104806065559387,-1],"type":"VEC3"},{"bufferView":58,"componentType":5126,"count":20,"max":[0.3125031292438507,0.3125030994415283],"min":[0,0],"type":"VEC2"},{"bufferView":59,"componentType":5123,"count":30,"max":[19],"min":[0],"type":"SCALAR"},{"bufferView":60,"componentType":5126,"count":20,"max":[0.9398705959320068,0.9216130971908569,-0.4625000059604645],"min":[0.8163906335830688,0.8575968742370605,-0.6000000238418579],"type":"VEC3"},{"bufferView":61,"componentType":5126,"count":20,"max":[0.8543227314949036,0.9503940343856812,1],"min":[-0.3110484778881073,-0.9503940343856812,-1],"type":"VEC3"},{"bufferView":62,"componentType":5126,"count":20,"max":[0.13787437975406647,0.11106252670288086],"min":[0,0],"type":"VEC2"},{"bufferView":63,"componentType":5123,"count":30,"max":[19],"min":[0],"type":"SCALAR"},{"bufferView":64,"componentType":5126,"count":20,"max":[0.903469979763031,1.2125662565231323,-0.4803124964237213],"min":[0.7376593947410583,0.8931137323379517,-0.5821874737739563],"type":"VEC3"},{"bufferView":65,"componentType":5126,"count":20,"max":[0.9503936171531677,0.9503929615020752,1],"min":[-0.9503942131996155,-0.31104806065559387,-1],"type":"VEC3"},{"bufferView":66,"componentType":5126,"count":20,"max":[0.3125031292438507,0.3125030994415283],"min":[0,0],"type":"VEC2"},{"bufferView":67,"componentType":5123,"count":30,"max":[19],"min":[0],"type":"SCALAR"},{"bufferView":68,"componentType":5126,"count":6,"max":[0.2916699945926666],"min":[0],"type":"SCALAR"},{"bufferView":69,"componentType":5126,"count":6,"max":[0,0,0.13052618503570557,1],"min":[0,0,0,0.9914448857307434],"type":"VEC4"},{"bufferView":70,"componentType":5126,"count":11,"max":[0.708329975605011],"min":[0],"type":"SCALAR"},{"bufferView":71,"componentType":5126,"count":11,"max":[0,0,0.06562499701976776],"min":[0,0,0.01992187462747097],"type":"VEC3"},{"bufferView":72,"componentType":5126,"count":11,"max":[0.708329975605011],"min":[0],"type":"SCALAR"},{"bufferView":73,"componentType":5126,"count":11,"max":[0,0,-0.01992187462747097],"min":[0,0,-0.06562499701976776],"type":"VEC3"},{"bufferView":74,"componentType":5126,"count":4,"max":[2.25],"min":[0],"type":"SCALAR"},{"bufferView":75,"componentType":5126,"count":4,"max":[1,1,1],"min":[0,0,0],"type":"VEC3"},{"bufferView":76,"componentType":5126,"count":11,"max":[2.25],"min":[0],"type":"SCALAR"},{"bufferView":77,"componentType":5126,"count":11,"max":[0,0,0,1],"min":[0,0,-0.09359346330165863,0.9956104755401611],"type":"VEC4"},{"bufferView":78,"componentType":5126,"count":13,"max":[2.25],"min":[0],"type":"SCALAR"},{"bufferView":79,"componentType":5126,"count":13,"max":[0.03587963059544563,0.29374998807907104,0],"min":[-0.03125,0.09236110746860504,0],"type":"VEC3"},{"bufferView":80,"componentType":5126,"count":11,"max":[2.25],"min":[0],"type":"SCALAR"},{"bufferView":81,"componentType":5126,"count":11,"max":[0,0,0.06562499701976776],"min":[0,0,0.00937500037252903],"type":"VEC3"},{"bufferView":82,"componentType":5126,"count":11,"max":[2.25],"min":[0],"type":"SCALAR"},{"bufferView":83,"componentType":5126,"count":11,"max":[0,0,-0.00937500037252903],"min":[0,0,-0.06562499701976776],"type":"VEC3"},{"bufferView":84,"componentType":5126,"count":13,"max":[2.208329916000366],"min":[0],"type":"SCALAR"},{"bufferView":85,"componentType":5126,"count":13,"max":[0,0,0,1],"min":[0,0,-0.04684817045927048,0.9989020228385925],"type":"VEC4"},{"bufferView":86,"componentType":5126,"count":14,"max":[2.208329916000366],"min":[0],"type":"SCALAR"},{"bufferView":87,"componentType":5126,"count":14,"max":[0.14016203582286835,0.3218750059604645,0],"min":[0.05624999850988388,0.05335647985339165,0],"type":"VEC3"}],"materials":[{"pbrMetallicRoughness":{"metallicFactor":0,"roughnessFactor":1},"alphaMode":"MASK","alphaCutoff":0.05,"doubleSided":true},{"pbrMetallicRoughness":{"metallicFactor":0,"roughnessFactor":1},"alphaMode":"MASK","alphaCutoff":0.05,"doubleSided":true},{"pbrMetallicRoughness":{"metallicFactor":0,"roughnessFactor":1},"alphaMode":"MASK","alphaCutoff":0.05,"doubleSided":true},{"pbrMetallicRoughness":{"metallicFactor":0,"roughnessFactor":1},"alphaMode":"MASK","alphaCutoff":0.05,"doubleSided":true}],"meshes":[{"primitives":[{"mode":4,"attributes":{"POSITION":0,"NORMAL":1,"TEXCOORD_0":2},"indices":3,"material":0}]},{"primitives":[{"mode":4,"attributes":{"POSITION":4,"NORMAL":5,"TEXCOORD_0":6},"indices":7,"material":0}]},{"primitives":[{"mode":4,"attributes":{"POSITION":8,"NORMAL":9,"TEXCOORD_0":10},"indices":11,"material":1}]},{"primitives":[{"mode":4,"attributes":{"POSITION":12,"NORMAL":13,"TEXCOORD_0":14},"indices":15,"material":2}]},{"primitives":[{"mode":4,"attributes":{"POSITION":16,"NORMAL":17,"TEXCOORD_0":18},"indices":19,"material":1}]},{"primitives":[{"mode":4,"attributes":{"POSITION":20,"NORMAL":21,"TEXCOORD_0":22},"indices":23,"material":2}]},{"primitives":[{"mode":4,"attributes":{"POSITION":24,"NORMAL":25,"TEXCOORD_0":26},"indices":27,"material":1}]},{"primitives":[{"mode":4,"attributes":{"POSITION":28,"NORMAL":29,"TEXCOORD_0":30},"indices":31,"material":0}]},{"primitives":[{"mode":4,"attributes":{"POSITION":32,"NORMAL":33,"TEXCOORD_0":34},"indices":35,"material":2}]},{"primitives":[{"mode":4,"attributes":{"POSITION":36,"NORMAL":37,"TEXCOORD_0":38},"indices":39,"material":3}]},{"primitives":[{"mode":4,"attributes":{"POSITION":40,"NORMAL":41,"TEXCOORD_0":42},"indices":43,"material":0}]},{"primitives":[{"mode":4,"attributes":{"POSITION":44,"NORMAL":45,"TEXCOORD_0":46},"indices":47,"material":0}]},{"primitives":[{"mode":4,"attributes":{"POSITION":48,"NORMAL":49,"TEXCOORD_0":50},"indices":51,"material":2}]},{"primitives":[{"mode":4,"attributes":{"POSITION":52,"NORMAL":53,"TEXCOORD_0":54},"indices":55,"material":0}]},{"primitives":[{"mode":4,"attributes":{"POSITION":56,"NORMAL":57,"TEXCOORD_0":58},"indices":59,"material":2}]},{"primitives":[{"mode":4,"attributes":{"POSITION":60,"NORMAL":61,"TEXCOORD_0":62},"indices":63,"material":0}]},{"primitives":[{"mode":4,"attributes":{"POSITION":64,"NORMAL":65,"TEXCOORD_0":66},"indices":67,"material":2}]}],"animations":[{"name":"Shoot","samplers":[{"input":68,"output":69,"interpolation":"LINEAR"},{"input":70,"output":71,"interpolation":"LINEAR"},{"input":72,"output":73,"interpolation":"LINEAR"}],"channels":[{"sampler":0,"target":{"node":17,"path":"rotation"}},{"sampler":1,"target":{"node":12,"path":"translation"}},{"sampler":2,"target":{"node":14,"path":"translation"}}]},{"name":"Reload","samplers":[{"input":74,"output":75,"interpolation":"LINEAR"},{"input":76,"output":77,"interpolation":"LINEAR"},{"input":78,"output":79,"interpolation":"LINEAR"},{"input":80,"output":81,"interpolation":"LINEAR"},{"input":82,"output":83,"interpolation":"LINEAR"},{"input":84,"output":85,"interpolation":"LINEAR"},{"input":86,"output":87,"interpolation":"LINEAR"}],"channels":[{"sampler":0,"target":{"node":17,"path":"scale"}},{"sampler":1,"target":{"node":20,"path":"rotation"}},{"sampler":2,"target":{"node":20,"path":"translation"}},{"sampler":3,"target":{"node":12,"path":"translation"}},{"sampler":4,"target":{"node":14,"path":"translation"}},{"sampler":5,"target":{"node":23,"path":"rotation"}},{"sampler":6,"target":{"node":23,"path":"translation"}}]}]}