{"asset":{"version":"2.0","generator":"Blockbench 5.0.3 glTF exporter"},"scenes":[{"nodes":[23],"name":"blockbench_export"}],"scene":0,"nodes":[{"translation":[0.006250000000000033,-0.5,0.084375],"name":"Knob","mesh":0},{"translation":[0,0,0.040625],"name":"Left","children":[0]},{"translation":[0.006250000000000033,-0.5,0.040625],"name":"Knob","mesh":1},{"translation":[0,0,-0.040625],"name":"Right","children":[2]},{"translation":[0.05624999999999997,0.21875,0],"name":"Pin","children":[1,3]},{"rotation":[-0.7071067811865475,0,0,0.7071067811865476],"translation":[-0.0625,-0.0625,0.25],"name":"Trigger - glow","mesh":2},{"translation":[-0.03125,0.109375,0],"name":"Trigger","children":[5]},{"translation":[-0.718125,-0.796875,0.5],"name":"Barrel","mesh":3},{"translation":[-0.780625,-0.790625,0.53125],"name":"Scope Frame","mesh":4},{"translation":[-1.5462500000000001,-0.790625,0.53125],"name":"Scope","mesh":5},{"translation":[-0.780625,-0.790625,0.53125],"name":"Lens","mesh":6},{"translation":[-2.5525,-0.9375,0.571875],"name":"Barrel End","mesh":7},{"translation":[-1.5931250000000001,0.24062499999999998,-0.125],"name":"Barrel - glow","mesh":8},{"translation":[-0.718125,-0.78125,0.53125],"name":"Underside","mesh":9},{"translation":[-0.718125,-0.796875,0.53125],"name":"Stock","mesh":10},{"name":"Head","children":[7,8,9,10,11,12,13,14]},{"translation":[-0.686875,-1.075,0.53125],"name":"Magazine - glow","mesh":11},{"translation":[-0.686875,-1.075,0.53125],"name":"Magazine Base","mesh":12},{"translation":[-0.03125,0.29374999999999996,0],"name":"Front","children":[16,17]},{"translation":[-0.774375,-1.103125,0.53125],"name":"Magazine - glow","mesh":13},{"translation":[-0.774375,-1.103125,0.53125],"name":"Magazine Base","mesh":14},{"translation":[0.05625000000000002,0.321875,0],"name":"Back","children":[19,20]},{"name":"Magazine","children":[18,21]},{"translation":[0.343125,0.359375,0],"name":"Weapon","children":[4,6,15,22]}],"bufferViews":[{"buffer":0,"byteOffset":0,"byteLength":240,"target":34962,"byteStride":12},{"buffer":0,"byteOffset":240,"byteLength":240,"target":34962,"byteStride":12},{"buffer":0,"byteOffset":480,"byteLength":160,"target":34962,"byteStride":8},{"buffer":0,"byteOffset":640,"byteLength":60,"target":34963},{"buffer":0,"byteOffset":700,"byteLength":240,"target":34962,"byteStride":12},{"buffer":0,"byteOffset":940,"byteLength":240,"target":34962,"byteStride":12},{"buffer":0,"byteOffset":1180,"byteLength":160,"target":34962,"byteStride":8},{"buffer":0,"byteOffset":1340,"byteLength":60,"target":34963},{"buffer":0,"byteOffset":1400,"byteLength":2304,"target":34962,"byteStride":12},{"buffer":0,"byteOffset":3704,"byteLength":2304,"target":34962,"byteStride":12},{"buffer":0,"byteOffset":6008,"byteLength":1536,"target":34962,"byteStride":8},{"buffer":0,"byteOffset":7544,"byteLength":576,"target":34963},{"buffer":0,"byteOffset":8120,"byteLength":2016,"target":34962,"byteStride":12},{"buffer":0,"byteOffset":10136,"byteLength":2016,"target":34962,"byteStride":12},{"buffer":0,"byteOffset":12152,"byteLength":1344,"target":34962,"byteStride":8},{"buffer":0,"byteOffset":13496,"byteLength":492,"target":34963},{"buffer":0,"byteOffset":13988,"byteLength":432,"target":34962,"byteStride":12},{"buffer":0,"byteOffset":14420,"byteLength":432,"target":34962,"byteStride":12},{"buffer":0,"byteOffset":14852,"byteLength":288,"target":34962,"byteStride":8},{"buffer":0,"byteOffset":15140,"byteLength":108,"target":34963},{"buffer":0,"byteOffset":15248,"byteLength":288,"target":34962,"byteStride":12},{"buffer":0,"byteOffset":15536,"byteLength":288,"target":34962,"byteStride":12},{"buffer":0,"byteOffset":15824,"byteLength":192,"target":34962,"byteStride":8},{"buffer":0,"byteOffset":16016,"byteLength":72,"target":34963},{"buffer":0,"byteOffset":16088,"byteLength":48,"target":34962,"byteStride":12},{"buffer":0,"byteOffset":16136,"byteLength":48,"target":34962,"byteStride":12},{"buffer":0,"byteOffset":16184,"byteLength":32,"target":34962,"byteStride":8},{"buffer":0,"byteOffset":16216,"byteLength":12,"target":34963},{"buffer":0,"byteOffset":16228,"byteLength":288,"target":34962,"byteStride":12},{"buffer":0,"byteOffset":16516,"byteLength":288,"target":34962,"byteStride":12},{"buffer":0,"byteOffset":16804,"byteLength":192,"target":34962,"byteStride":8},{"buffer":0,"byteOffset":16996,"byteLength":72,"target":34963},{"buffer":0,"byteOffset":17068,"byteLength":96,"target":34962,"byteStride":12},{"buffer":0,"byteOffset":17164,"byteLength":96,"target":34962,"byteStride":12},{"buffer":0,"byteOffset":17260,"byteLength":64,"target":34962,"byteStride":8},{"buffer":0,"byteOffset":17324,"byteLength":24,"target":34963},{"buffer":0,"byteOffset":17348,"byteLength":1272,"target":34962,"byteStride":12},{"buffer":0,"byteOffset":18620,"byteLength":1272,"target":34962,"byteStride":12},{"buffer":0,"byteOffset":19892,"byteLength":848,"target":34962,"byteStride":8},{"buffer":0,"byteOffset":20740,"byteLength":312,"target":34963},{"buffer":0,"byteOffset":21052,"byteLength":576,"target":34962,"byteStride":12},{"buffer":0,"byteOffset":21628,"byteLength":576,"target":34962,"byteStride":12},{"buffer":0,"byteOffset":22204,"byteLength":384,"target":34962,"byteStride":8},{"buffer":0,"byteOffset":22588,"byteLength":144,"target":34963},{"buffer":0,"byteOffset":22732,"byteLength":192,"target":34962,"byteStride":12},{"buffer":0,"byteOffset":22924,"byteLength":192,"target":34962,"byteStride":12},{"buffer":0,"byteOffset":23116,"byteLength":128,"target":34962,"byteStride":8},{"buffer":0,"byteOffset":23244,"byteLength":48,"target":34963},{"buffer":0,"byteOffset":23292,"byteLength":288,"target":34962,"byteStride":12},{"buffer":0,"byteOffset":23580,"byteLength":288,"target":34962,"byteStride":12},{"buffer":0,"byteOffset":23868,"byteLength":192,"target":34962,"byteStride":8},{"buffer":0,"byteOffset":24060,"byteLength":72,"target":34963},{"buffer":0,"byteOffset":24132,"byteLength":192,"target":34962,"byteStride":12},{"buffer":0,"byteOffset":24324,"byteLength":192,"target":34962,"byteStride":12},{"buffer":0,"byteOffset":24516,"byteLength":128,"target":34962,"byteStride":8},{"buffer":0,"byteOffset":24644,"byteLength":48,"target":34963},{"buffer":0,"byteOffset":24692,"byteLength":288,"target":34962,"byteStride":12},{"buffer":0,"byteOffset":24980,"byteLength":288,"target":34962,"byteStride":12},{"buffer":0,"byteOffset":25268,"byteLength":192,"target":34962,"byteStride":8},{"buffer":0,"byteOffset":25460,"byteLength":72,"target":34963},{"buffer":0,"byteOffset":25532,"byteLength":24},{"buffer":0,"byteOffset":25556,"byteLength":96},{"buffer":0,"byteOffset":25652,"byteLength":44},{"buffer":0,"byteOffset":25696,"byteLength":132},{"buffer":0,"byteOffset":25828,"byteLength":44},{"buffer":0,"byteOffset":25872,"byteLength":132},{"buffer":0,"byteOffset":26004,"byteLength":16},{"buffer":0,"byteOffset":26020,"byteLength":48},{"buffer":0,"byteOffset":26068,"byteLength":36},{"buffer":0,"byteOffset":26104,"byteLength":144},{"buffer":0,"byteOffset":26248,"byteLength":44},{"buffer":0,"byteOffset":26292,"byteLength":132},{"buffer":0,"byteOffset":26424,"byteLength":44},{"buffer":0,"byteOffset":26468,"byteLength":132},{"buffer":0,"byteOffset":26600,"byteLength":44},{"buffer":0,"byteOffset":26644,"byteLength":132},{"buffer":0,"byteOffset":26776,"byteLength":40},{"buffer":0,"byteOffset":26816,"byteLength":160},{"buffer":0,"byteOffset":26976,"byteLength":48},{"buffer":0,"byteOffset":27024,"byteLength":144}],"buffers":[{"byteLength":27168,"uri":"data:application/octet-stream;base64,"}],"accessors":[{"bufferView":0,"componentType":5126,"count":20,"max":[0.0835762470960617,0.589826226234436,-0.046875],"min":[-0.09607625007629395,0.4101737439632416,-0.09375],"type":"VEC3"},{"bufferView":1,"componentType":5126,"count":20,"max":[0.8952069282531738,0.8952069282531738,1],"min":[-0.8952069282531738,-0.8952069282531738,0.24720165133476257],"type":"VEC3"},{"bufferView":2,"componentType":5126,"count":20,"max":[0.13750000298023224,0.13749998807907104],"min":[0,0],"type":"VEC2"},{"bufferView":3,"componentType":5123,"count":30,"max":[19],"min":[0],"type":"SCALAR"},{"bufferView":4,"componentType":5126,"count":20,"max":[0.0835762470960617,0.589826226234436,-0.03125],"min":[-0.09607625007629395,0.4101737439632416,-0.078125],"type":"VEC3"},{"bufferView":5,"componentType":5126,"count":20,"max":[0.8952056169509888,0.8952056169509888,-0.24720065295696259],"min":[-0.8952056169509888,-0.8952056169509888,-1],"type":"VEC3"},{"bufferView":6,"componentType":5126,"count":20,"max":[0.13750000298023224,0.13749998807907104],"min":[0,0],"type":"VEC2"},{"bufferView":7,"componentType":5123,"count":30,"max":[19],"min":[0],"type":"SCALAR"},{"bufferView":8,"componentType":5126,"count":192,"max":[0.046875,0.2593750059604645,0.046875],"min":[-0.046875,0.24062499403953552,-0.046875],"type":"VEC3"},{"bufferView":9,"componentType":5126,"count":192,"max":[1,1,1],"min":[-1,-1,-1],"type":"VEC3"},{"bufferView":10,"componentType":5126,"count":192,"max":[0.26794999837875366,0.5],"min":[0,0],"type":"VEC2"},{"bufferView":11,"componentType":5123,"count":288,"max":[191],"min":[0],"type":"SCALAR"},{"bufferView":12,"componentType":5126,"count":168,"max":[0.653124988079071,1.140625,-0.40625],"min":[-1.9718749523162842,0.96875,-0.59375],"type":"VEC3"},{"bufferView":13,"componentType":5126,"count":168,"max":[0.9284766912460327,1,1],"min":[-1,-1,-1],"type":"VEC3"},{"bufferView":14,"componentType":5126,"count":168,"max":[2.15625,0.24456876516342163],"min":[0,0],"type":"VEC2"},{"bufferView":15,"componentType":5123,"count":246,"max":[167],"min":[0],"type":"SCALAR"},{"bufferView":16,"componentType":5126,"count":36,"max":[0.8187500238418579,1.256250023841858,-0.4781250059604645],"min":[-0.3499999940395355,1.134374976158142,-0.5843750238418579],"type":"VEC3"},{"bufferView":17,"componentType":5126,"count":36,"max":[0.9794096946716309,1,0.960274875164032],"min":[-0.8390741944313049,-1,-0.960274875164032],"type":"VEC3"},{"bufferView":18,"componentType":5126,"count":36,"max":[1.1687500476837158,0.13979065418243408],"min":[0,0],"type":"VEC2"},{"bufferView":19,"componentType":5123,"count":54,"max":[35],"min":[0],"type":"SCALAR"},{"bufferView":20,"componentType":5126,"count":24,"max":[0.515625,1.240625023841858,-0.4937500059604645],"min":[0.02187499962747097,1.134374976158142,-0.5687500238418579],"type":"VEC3"},{"bufferView":21,"componentType":5126,"count":24,"max":[0.8318025469779968,1,0.97081059217453],"min":[-0.8610497117042542,-1,-0.97081059217453],"type":"VEC3"},{"bufferView":22,"componentType":5126,"count":24,"max":[0.4625000059604645,0.09647500514984131],"min":[0,0],"type":"VEC2"},{"bufferView":23,"componentType":5123,"count":36,"max":[23],"min":[0],"type":"SCALAR"},{"bufferView":24,"componentType":5126,"count":4,"max":[0.7883806228637695,1.231093168258667,-0.4937500059604645],"min":[0.7369624972343445,1.146572470664978,-0.5687500238418579],"type":"VEC3"},{"bufferView":25,"componentType":5126,"count":4,"max":[0.8543296456336975,0.5197314620018005,0],"min":[0.8543296456336975,0.5197314620018005,0],"type":"VEC3"},{"bufferView":26,"componentType":5126,"count":4,"max":[0.09375,0.13625001907348633],"min":[0,0],"type":"VEC2"},{"bufferView":27,"componentType":5123,"count":6,"max":[3],"min":[0],"type":"SCALAR"},{"bufferView":28,"componentType":5126,"count":24,"max":[0.5152681469917297,1.25,-0.534375011920929],"min":[-0.09821437299251556,1.1749999523162842,-0.609375],"type":"VEC3"},{"bufferView":29,"componentType":5126,"count":24,"max":[0.5893788933753967,1,1],"min":[-0.621161162853241,-1,-1],"type":"VEC3"},{"bufferView":30,"componentType":5126,"count":24,"max":[0.5759812593460083,0.11498749256134033],"min":[0,0],"type":"VEC2"},{"bufferView":31,"componentType":5123,"count":36,"max":[23],"min":[0],"type":"SCALAR"},{"bufferView":32,"componentType":5126,"count":8,"max":[0.06875000149011612,0.0625,0.171875],"min":[-0.515625,0,0.078125],"type":"VEC3"},{"bufferView":33,"componentType":5126,"count":8,"max":[0,0,1],"min":[0,0,-1],"type":"VEC3"},{"bufferView":34,"componentType":5126,"count":8,"max":[0.5625,0.0625],"min":[0,0],"type":"VEC2"},{"bufferView":35,"componentType":5123,"count":12,"max":[7],"min":[0],"type":"SCALAR"},{"bufferView":36,"componentType":5126,"count":106,"max":[1.6245168447494507,1.125,-0.5],"min":[-1.0939912796020508,0.7985643744468689,-0.5625],"type":"VEC3"},{"bufferView":37,"componentType":5126,"count":106,"max":[0.8682443499565125,1,1],"min":[-0.8682443499565125,-1,-1],"type":"VEC3"},{"bufferView":38,"componentType":5126,"count":106,"max":[1.774762511253357,0.4687437415122986],"min":[0,0],"type":"VEC2"},{"bufferView":39,"componentType":5123,"count":156,"max":[105],"min":[0],"type":"SCALAR"},{"bufferView":40,"componentType":5126,"count":48,"max":[1.7221150398254395,1.09176504611969,-0.4781250059604645],"min":[0.875,0.7862118482589722,-0.5843750238418579],"type":"VEC3"},{"bufferView":41,"componentType":5126,"count":48,"max":[0.9119763374328613,1,1],"min":[-0.8682429194450378,-1,-1],"type":"VEC3"},{"bufferView":42,"componentType":5126,"count":48,"max":[0.5781187415122986,0.578125],"min":[0,0],"type":"VEC2"},{"bufferView":43,"componentType":5123,"count":72,"max":[47],"min":[0],"type":"SCALAR"},{"bufferView":44,"componentType":5126,"count":16,"max":[0.787618100643158,1.0855499505996704,-0.5093749761581421],"min":[0.6496743559837341,0.854773759841919,-0.5531250238418579],"type":"VEC3"},{"bufferView":45,"componentType":5126,"count":16,"max":[0.9503937363624573,0.31104934215545654,1],"min":[-0.9503940343856812,-0.3110484778881073,-1],"type":"VEC3"},{"bufferView":46,"componentType":5126,"count":16,"max":[0.21875187754631042,0.21875184774398804],"min":[0,0],"type":"VEC2"},{"bufferView":47,"componentType":5123,"count":24,"max":[15],"min":[0],"type":"SCALAR"},{"bufferView":48,"componentType":5126,"count":24,"max":[0.8163193464279175,0.8811768889427185,-0.4937500059604645],"min":[0.7108399868011475,0.8230518698692322,-0.5687500238418579],"type":"VEC3"},{"bufferView":49,"componentType":5126,"count":24,"max":[0.8543227314949036,0.9503938555717468,1],"min":[-0.8543227314949036,-0.9503938555717468,-1],"type":"VEC3"},{"bufferView":50,"componentType":5126,"count":24,"max":[0.09999562799930573,0.09212499856948853],"min":[0,0],"type":"VEC2"},{"bufferView":51,"componentType":5123,"count":36,"max":[23],"min":[0],"type":"SCALAR"},{"bufferView":52,"componentType":5126,"count":16,"max":[0.875,1.114148736000061,-0.5093749761581421],"min":[0.7370519042015076,0.8833712339401245,-0.5531250238418579],"type":"VEC3"},{"bufferView":53,"componentType":5126,"count":16,"max":[0,0,1],"min":[-0.9503940343856812,-0.31104934215545654,0],"type":"VEC3"},{"bufferView":54,"componentType":5126,"count":16,"max":[0.07355999946594238,0.21875309944152832],"min":[0,0],"type":"VEC2"},{"bufferView":55,"componentType":5123,"count":24,"max":[15],"min":[0],"type":"SCALAR"},{"bufferView":56,"componentType":5126,"count":24,"max":[0.8929293751716614,0.90625,-0.4937500059604645],"min":[0.7983899712562561,0.8517056107521057,-0.5687500238418579],"type":"VEC3"},{"bufferView":57,"componentType":5126,"count":24,"max":[0.8543227314949036,0.950394332408905,1],"min":[-0.8543227314949036,-0.950394332408905,-1],"type":"VEC3"},{"bufferView":58,"componentType":5126,"count":24,"max":[0.08848687261343002,0.08061248064041138],"min":[0,0],"type":"VEC2"},{"bufferView":59,"componentType":5123,"count":36,"max":[23],"min":[0],"type":"SCALAR"},{"bufferView":60,"componentType":5126,"count":6,"max":[0.2916699945926666],"min":[0],"type":"SCALAR"},{"bufferView":61,"componentType":5126,"count":6,"max":[0,0,0.13052618503570557,1],"min":[0,0,0,0.9914448857307434],"type":"VEC4"},{"bufferView":62,"componentType":5126,"count":11,"max":[0.708329975605011],"min":[0],"type":"SCALAR"},{"bufferView":63,"componentType":5126,"count":11,"max":[0,0,0.04062499850988388],"min":[0,0,-0.005078124813735485],"type":"VEC3"},{"bufferView":64,"componentType":5126,"count":11,"max":[0.708329975605011],"min":[0],"type":"SCALAR"},{"bufferView":65,"componentType":5126,"count":11,"max":[0,0,0.005078124813735485],"min":[0,0,-0.04062499850988388],"type":"VEC3"},{"bufferView":66,"componentType":5126,"count":4,"max":[2.25],"min":[0.125],"type":"SCALAR"},{"bufferView":67,"componentType":5126,"count":4,"max":[1,1,1],"min":[0,0,0],"type":"VEC3"},{"bufferView":68,"componentType":5126,"count":9,"max":[2.25],"min":[0],"type":"SCALAR"},{"bufferView":69,"componentType":5126,"count":9,"max":[0,0,0,1],"min":[0,0,-0.08715574443340302,0.9961947202682495],"type":"VEC4"},{"bufferView":70,"componentType":5126,"count":11,"max":[2.25],"min":[0],"type":"SCALAR"},{"bufferView":71,"componentType":5126,"count":11,"max":[0.03125,0.29374998807907104,0],"min":[-0.03125,0.10625000298023224,0],"type":"VEC3"},{"bufferView":72,"componentType":5126,"count":11,"max":[2.25],"min":[0],"type":"SCALAR"},{"bufferView":73,"componentType":5126,"count":11,"max":[0,0,0.04062499850988388],"min":[0,0,0],"type":"VEC3"},{"bufferView":74,"componentType":5126,"count":11,"max":[2.25],"min":[0],"type":"SCALAR"},{"bufferView":75,"componentType":5126,"count":11,"max":[0,0,0],"min":[0,0,-0.04062499850988388],"type":"VEC3"},{"bufferView":76,"componentType":5126,"count":10,"max":[2.2083332538604736],"min":[0],"type":"SCALAR"},{"bufferView":77,"componentType":5126,"count":10,"max":[0,0,0,1],"min":[0,0,-0.04361938685178757,0.9990482330322266],"type":"VEC4"},{"bufferView":78,"componentType":5126,"count":12,"max":[2.2083332538604736],"min":[0],"type":"SCALAR"},{"bufferView":79,"componentType":5126,"count":12,"max":[0.11874999850988388,0.3218750059604645,0],"min":[0.05624999850988388,0.13437500596046448,0],"type":"VEC3"}],"materials":[{"pbrMetallicRoughness":{"metallicFactor":0,"roughnessFactor":1},"alphaMode":"MASK","alphaCutoff":0.05,"doubleSided":true},{"pbrMetallicRoughness":{"metallicFactor":0,"roughnessFactor":1},"alphaMode":"MASK","alphaCutoff":0.05,"doubleSided":true},{"pbrMetallicRoughness":{"metallicFactor":0,"roughnessFactor":1},"alphaMode":"MASK","alphaCutoff":0.05,"doubleSided":true}],"meshes":[{"primitives":[{"mode":4,"attributes":{"POSITION":0,"NORMAL":1,"TEXCOORD_0":2},"indices":3,"material":0}]},{"primitives":[{"mode":4,"attributes":{"POSITION":4,"NORMAL":5,"TEXCOORD_0":6},"indices":7,"material":0}]},{"primitives":[{"mode":4,"attributes":{"POSITION":8,"NORMAL":9,"TEXCOORD_0":10},"indices":11,"material":1}]},{"primitives":[{"mode":4,"attributes":{"POSITION":12,"NORMAL":13,"TEXCOORD_0":14},"indices":15,"material":0}]},{"primitives":[{"mode":4,"attributes":{"POSITION":16,"NORMAL":17,"TEXCOORD_0":18},"indices":19,"material":0}]},{"primitives":[{"mode":4,"attributes":{"POSITION":20,"NORMAL":21,"TEXCOORD_0":22},"indices":23,"material":2}]},{"primitives":[{"mode":4,"attributes":{"POSITION":24,"NORMAL":25,"TEXCOORD_0":26},"indices":27,"material":1}]},{"primitives":[{"mode":4,"attributes":{"POSITION":28,"NORMAL":29,"TEXCOORD_0":30},"indices":31,"material":2}]},{"primitives":[{"mode":4,"attributes":{"POSITION":32,"NORMAL":33,"TEXCOORD_0":34},"indices":35,"material":1}]},{"primitives":[{"mode":4,"attributes":{"POSITION":36,"NORMAL":37,"TEXCOORD_0":38},"indices":39,"material":2}]},{"primitives":[{"mode":4,"attributes":{"POSITION":40,"NORMAL":41,"TEXCOORD_0":42},"indices":43,"material":0}]},{"primitives":[{"mode":4,"attributes":{"POSITION":44,"NORMAL":45,"TEXCOORD_0":46},"indices":47,"material":1}]},{"primitives":[{"mode":4,"attributes":{"POSITION":48,"NORMAL":49,"TEXCOORD_0":50},"indices":51,"material":0}]},{"primitives":[{"mode":4,"attributes":{"POSITION":52,"NORMAL":53,"TEXCOORD_0":54},"indices":55,"material":1}]},{"primitives":[{"mode":4,"attributes":{"POSITION":56,"NORMAL":57,"TEXCOORD_0":58},"indices":59,"material":0}]}],"animations":[{"name":"Shoot","samplers":[{"input":60,"output":61,"interpolation":"LINEAR"},{"input":62,"output":63,"interpolation":"LINEAR"},{"input":64,"output":65,"interpolation":"LINEAR"}],"channels":[{"sampler":0,"target":{"node":6,"path":"rotation"}},{"sampler":1,"target":{"node":1,"path":"translation"}},{"sampler":2,"target":{"node":3,"path":"translation"}}]},{"name":"Reload","samplers":[{"input":66,"output":67,"interpolation":"LINEAR"},{"input":68,"output":69,"interpolation":"LINEAR"},{"input":70,"output":71,"interpolation":"LINEAR"},{"input":72,"output":73,"interpolation":"LINEAR"},{"input":74,"output":75,"interpolation":"LINEAR"},{"input":76,"output":77,"interpolation":"LINEAR"},{"input":78,"output":79,"interpolation":"LINEAR"}],"channels":[{"sampler":0,"target":{"node":6,"path":"scale"}},{"sampler":1,"target":{"node":18,"path":"rotation"}},{"sampler":2,"target":{"node":18,"path":"translation"}},{"sampler":3,"target":{"node":1,"path":"translation"}},{"sampler":4,"target":{"node":3,"path":"translation"}},{"sampler":5,"target":{"node":21,"path":"rotation"}},{"sampler":6,"target":{"node":21,"path":"translation"}}]}]}